<?xml version="1.0" encoding="UTF-8" standalone="no"?>
<svg
   xmlns:dc="http://purl.org/dc/elements/1.1/"
   xmlns:cc="http://creativecommons.org/ns#"
   xmlns:rdf="http://www.w3.org/1999/02/22-rdf-syntax-ns#"
   xmlns:svg="http://www.w3.org/2000/svg"
   xmlns="http://www.w3.org/2000/svg"
   xmlns:sodipodi="http://sodipodi.sourceforge.net/DTD/sodipodi-0.dtd"
   xmlns:inkscape="http://www.inkscape.org/namespaces/inkscape"
   id="Layer_1"
   data-name="Layer 1"
   viewBox="0 0 2901.46 3583.93"
   version="1.1"
   sodipodi:docname="Jimmy Johns - White.svg"
   inkscape:version="0.92.2 (5c3e80d, 2017-08-06)">
  <metadata
     id="metadata1023">
    <rdf:RDF>
      <cc:Work
         rdf:about="">
        <dc:format>image/svg+xml</dc:format>
        <dc:type
           rdf:resource="http://purl.org/dc/dcmitype/StillImage" />
        <dc:title>jimmy johns circle logo</dc:title>
      </cc:Work>
    </rdf:RDF>
  </metadata>
  <sodipodi:namedview
     pagecolor="#ffffff"
     bordercolor="#666666"
     borderopacity="1"
     objecttolerance="10"
     gridtolerance="10"
     guidetolerance="10"
     inkscape:pageopacity="0"
     inkscape:pageshadow="2"
     inkscape:window-width="2560"
     inkscape:window-height="1361"
     id="namedview1021"
     showgrid="false"
     inkscape:zoom="0.25"
     inkscape:cx="10.230537"
     inkscape:cy="1763.1775"
     inkscape:window-x="-9"
     inkscape:window-y="-9"
     inkscape:window-maximized="1"
     inkscape:current-layer="Layer_1"
     inkscape:pagecheckerboard="true" />
  <defs
     id="defs922">
    <style
       id="style920">.cls-1{fill:#fff;}.cls-2{fill:#e31837;}</style>
  </defs>
  <title
     id="title924">jimmy johns circle logo</title>
  <path
     d="M 1450.7305 0 C 649.48951 0 1.2126596e-012 649.61119 0 1450.7402 C 0 2251.8702 649.52881 2901.4902 1450.7598 2901.4902 C 2251.9898 2901.4902 2901.4609 2251.8902 2901.4609 1450.7402 C 2901.4609 649.54119 2251.9705 -1.2126596e-012 1450.7305 0 z M 1450.7305 120.09961 L 1450.7598 120.10938 C 2185.6698 120.10938 2781.3008 715.88119 2781.3008 1450.7402 C 2781.3008 2113.5702 2296.7302 2663.1691 1662.4102 2764.5391 C 1659.8235 2746.4524 1657.2464 2728.3505 1654.6797 2710.2305 C 2262.2897 2612.6205 2726.4707 2085.8302 2726.4707 1450.7402 C 2726.4707 746.18119 2155.3598 174.99023 1450.7598 174.99023 C 746.15881 174.99023 175.00977 746.19119 175.00977 1450.7402 C 175.00977 2085.8202 639.14881 2612.6209 1246.7598 2710.2109 C 1244.1731 2728.2976 1241.596 2746.3995 1239.0293 2764.5195 C 604.7393 2663.1195 120.09961 2113.5205 120.09961 1450.7305 C 120.09961 715.86951 715.81951 120.09961 1450.7305 120.09961 z M 1311.8809 308.18945 L 1324.8105 364.25977 L 1310.0195 367.64062 L 1271.0098 465.39062 L 1279.5605 502.51953 L 1298.1699 498.25977 L 1311.0508 554.30078 L 1183.4707 583.68945 L 1170.5391 527.66016 L 1189.0996 523.38086 L 1180.5293 486.25 L 1102.3105 415.55078 L 1086.5098 419.17969 L 1073.5703 363.16016 L 1195.6602 334.92969 L 1208.5703 391.03906 L 1194.8105 394.17969 L 1230.1504 436.00977 L 1249.1191 381.71094 L 1235.0098 384.94922 L 1222.0996 328.88086 L 1311.8809 308.18945 z M 1547.4004 308.5 L 1681.2305 327.58984 L 1673.1406 384.53906 L 1652.8398 381.64062 L 1630.0898 540.94922 C 1624.3798 581.14922 1617.3709 600.1207 1598.2109 614.4707 C 1579.4209 628.6107 1561.7493 630.31047 1533.0293 626.23047 C 1518.4593 624.17047 1512.2498 622.50984 1497.8398 618.33984 L 1506.1992 560.01953 A 42.66 42.66 0 0 0 1516.1191 562.83008 C 1530.4191 564.90008 1533.9905 557.49914 1537.9805 529.61914 L 1560.9102 368.51953 L 1539.25 365.40039 L 1547.4004 308.5 z M 1838.4414 379.00586 C 1856.9698 378.9993 1877.1667 382.95758 1898.6992 392.08008 C 1984.8292 428.57008 1996.6306 507.09992 1974.6406 559.16992 C 1952.6506 611.23992 1887.9495 657.36984 1801.7695 620.83984 C 1715.5895 584.30984 1703.6903 505.69977 1725.8203 453.75977 L 1725.8203 453.76953 C 1742.2978 414.73203 1782.8561 379.02555 1838.4414 379.00586 z M 978.50977 392.80078 L 1009.8398 440.96094 L 994.16016 451.21094 L 1062.0605 555.64062 L 1077.7109 545.48047 L 1109.0195 593.69922 L 1004.9004 661.36914 L 973.50977 613.16016 L 989.19922 602.99023 L 916.68945 491.36914 L 916.08984 491.75977 L 960.14062 690.40039 L 930.01953 709.98047 L 767.00977 588.73047 L 766.36914 589.09961 L 838.83984 700.66016 L 854.56055 690.42969 L 885.88086 738.66992 L 807.82031 789.4707 L 776.41992 741.19922 L 792.11914 731.05078 L 724.24023 626.58008 L 708.58008 636.81055 L 677.15039 588.51953 L 798.25 509.85938 L 878.25 568.17969 L 858.31055 470.84961 L 978.50977 392.80078 z M 1865.9746 441.18359 C 1865.4889 441.17093 1865.0073 441.17338 1864.5293 441.19141 C 1847.9573 441.81617 1835.8688 460.80313 1821.6094 494.35938 C 1804.1494 535.63936 1800.2294 559.15086 1823.6094 569.13086 C 1846.9894 579.11086 1861.3508 559.78078 1878.8008 518.55078 C 1896.2508 477.32078 1900.1808 453.65023 1876.8008 443.74023 C 1872.965 442.11438 1869.3743 441.27221 1865.9746 441.18359 z M 2112.5508 506.85938 L 2206.5195 591.33008 L 2168.0898 634.16992 L 2156.7695 624 L 2132.2207 651.30078 L 2173.4492 688.32031 L 2197.9609 661.06055 L 2186.6797 650.89062 L 2225.1602 608.15039 L 2319.0508 692.59961 L 2280.6191 735.41016 L 2266.9102 723.13086 L 2183.6504 815.75 L 2197.2695 828.0293 L 2158.8691 870.80078 L 2064.9297 786.28906 L 2103.3301 743.4707 L 2114.6094 753.63086 L 2140.8398 724.53906 L 2099.5898 687.4707 L 2073.4199 716.58984 L 2084.7305 726.7793 L 2046.2598 769.5293 L 1952.3203 685.0293 L 1990.7598 642.26953 L 2004.4805 654.57031 L 2087.7402 561.92969 L 2074.0898 549.68945 L 2112.5508 506.85938 z M 591.66016 673.66992 L 639.81055 705.26953 L 629.53906 720.86914 L 733.74023 789.19922 L 743.92969 773.56055 L 792.08984 805.10938 L 723.9707 909.03906 L 675.84961 877.43945 L 686.07031 861.80078 L 574.82031 788.81055 L 574.49023 789.39062 L 694.74023 953.51953 L 675.06055 983.66016 L 476.90039 938.21094 L 476.57031 938.7793 L 587.86914 1011.7109 L 598.08984 996.08008 L 646.2207 1027.5996 L 595.14062 1105.5391 L 546.98047 1073.9805 L 557.26953 1058.3809 L 453.05078 990.06055 L 442.84961 1005.6797 L 394.66992 974.19922 L 473.86914 853.49023 L 570.48047 874.65039 L 513.08984 793.56055 L 591.66016 673.66992 z M 2382.3008 771.55078 L 2437.6797 870.73047 L 2370.9609 1007.9902 L 2371.2695 1008.5703 L 2430.3496 975.5 L 2420.5605 957.91016 L 2470.8203 929.91992 L 2517.9902 1014.2891 L 2467.8008 1042.3398 L 2457.5703 1024.1895 L 2295.2695 1114.9297 L 2256.6504 1045.9297 L 2334.8301 887.03906 L 2334.5195 886.41992 L 2260.8203 927.55078 L 2271.3398 946.34961 L 2221.1309 974.41992 L 2173.1602 888.50977 L 2223.3398 860.46094 L 2233.5703 878.91016 L 2342.4102 818.09961 L 2332.0391 799.60938 L 2382.3008 771.55078 z M 911.84961 910.55078 L 1434.7305 910.59961 L 1434.7305 1158.4805 L 1362.2305 1158.4805 L 1362.2305 1706.4805 C 1362.2305 1844.4305 1349.6202 1927.0507 1280.7402 1995.9707 C 1213.5802 2062.9907 1142.5801 2076.1602 1042.5801 2076.1602 C 988.17006 2076.1602 964.81992 2073.4702 911.91992 2065.9902 L 892.99023 2063.3008 L 892.99023 1807.0508 L 920.35938 1813.9805 C 932.50937 1816.9705 942.06937 1818.3594 951.35938 1818.3594 C 978.23937 1818.3594 989.35938 1818.3601 989.35938 1712.8301 L 989.35938 1158.4297 L 911.84961 1158.4297 L 911.84961 910.55078 z M 1503.2598 910.55078 L 2026.2109 910.59961 L 2026.2109 1158.4805 L 1953.7109 1158.4805 L 1953.7109 1706.4805 C 1953.7109 1844.4305 1941.0792 1927.0507 1872.1992 1995.9707 C 1805.1292 2062.9907 1734.0698 2076.1602 1634.0098 2076.1602 C 1579.6398 2076.1602 1556.2802 2073.4702 1503.4102 2065.9902 L 1484.4902 2063.3008 L 1484.4902 1807.0508 L 1511.9297 1813.9805 C 1523.7597 1816.9205 1533.5698 1818.3594 1542.7598 1818.3594 C 1569.6898 1818.3594 1580.8398 1818.3601 1580.8398 1712.8301 L 1580.8398 1158.4297 L 1503.2598 1158.4297 L 1503.2598 910.55078 z M 2531.0801 1070.1895 L 2556.5293 1152.1309 L 2483.3691 1174.7793 C 2448.6191 1185.5193 2421.6809 1166.5105 2408.8809 1125.0605 A 146.12 146.12 0 0 1 2404.6992 1109.3594 L 2437.0801 1099.3398 C 2444.5901 1123.6398 2454.8502 1128.1893 2480.7402 1119.7793 L 2471.1406 1088.7793 L 2531.0801 1070.1895 z M 368.16992 1072.7891 L 423.5293 1088.4004 L 417.4707 1109.8496 L 537.36914 1143.7402 L 543.46094 1122.3008 L 598.75 1137.9297 L 561.41992 1270.0195 L 506.05078 1254.4004 L 512.03906 1232.9707 L 392.23047 1199.1797 L 386.19922 1220.5605 L 330.84961 1204.8906 L 368.16992 1072.7891 z M 2516.7422 1211.7734 C 2553.0225 1212.0108 2580.0513 1237.4324 2585.4707 1277.6699 C 2588.2307 1297.9799 2584.2499 1317.3694 2574.6699 1332.8594 L 2589.3105 1330.9297 L 2596.5098 1384.4902 L 2528.9004 1393.3906 L 2521.9004 1339.9297 L 2524.8203 1338.4395 C 2540.8203 1329.1995 2547.3791 1317.6309 2545.2891 1301.8809 C 2543.8691 1291.0709 2537.3691 1285.1003 2528.2891 1286.3203 A 16 16 0 0 0 2518.3691 1291.9004 C 2509.0091 1304.2904 2501.8003 1357.4998 2477.8203 1388.8398 C 2469.9803 1399.0898 2452.2406 1413.2605 2429.1406 1416.3105 C 2388.2206 1421.7305 2352.6202 1392.3091 2346.7402 1347.8691 A 99.73 99.73 0 0 1 2358.0801 1288.2598 L 2342.3496 1290.4492 L 2335.1797 1236.8906 L 2411.3496 1226.7402 L 2418.4902 1280.25 C 2397.7402 1290.52 2389.7395 1302.9405 2392.1895 1320.8105 C 2393.6795 1332.3005 2400.6508 1338.8999 2410.0508 1337.6699 C 2414.5908 1337.0499 2417.9504 1335.1893 2421.9004 1330.0293 C 2435.2404 1312.6293 2436.3209 1269.6705 2458.4609 1240.8105 C 2471.4609 1223.8105 2486.3392 1215.0095 2505.1992 1212.5195 C 2509.1367 1211.9936 2512.989 1211.7489 2516.7422 1211.7734 z M 317.58984 1276.5098 L 374.82031 1281.7695 L 373 1302.1699 L 533.21094 1316.9395 C 573.64094 1320.6595 592.95094 1326.7003 608.21094 1345.0703 C 623.21094 1363.1703 625.81094 1380.7305 623.21094 1409.5605 C 621.82094 1424.3705 620.57914 1430.5602 617.11914 1445.1602 L 558.43945 1439.7402 A 41.39 41.39 0 0 0 560.75 1429.7402 C 562.12 1415.2902 554.55969 1412.1098 526.42969 1409.5098 L 364.42969 1394.5605 L 362.42969 1416.3691 L 305.16016 1411.0801 L 317.58984 1276.5098 z M 2573.916 1417.2578 A 30.88 30.88 0 0 1 2604.0898 1445.7891 A 31 31 0 0 1 2575.6406 1479.1504 A 31 31 0 0 1 2542.3398 1450.6797 A 30.84 30.84 0 0 1 2570.8301 1417.3496 A 30.88 30.88 0 0 1 2573.916 1417.2578 z M 2573.3633 1423.3105 A 24.67 24.67 0 0 0 2571.3203 1423.3906 L 2571.3594 1423.3906 A 25 25 0 0 0 2548.3594 1450.1797 A 24.93 24.93 0 0 0 2575.1895 1472.9902 A 24.58 24.58 0 0 0 2597.9199 1446.2891 A 24.67 24.67 0 0 0 2573.3633 1423.3105 z M 2588.4102 1433.0293 L 2589.6309 1449.0996 C 2590.2109 1456.6896 2585.9193 1459.9295 2581.2793 1460.2695 C 2576.1893 1460.6795 2572.4593 1457.5796 2571.2793 1452.0996 L 2571.1504 1452.0996 C 2570.2404 1455.9096 2568.09 1457.0096 2557.75 1464.0996 L 2557.1797 1455.8496 C 2562.5397 1452.6596 2565.9701 1450.6096 2568.3301 1447.8496 C 2569.8801 1446.0696 2569.8791 1445.1795 2569.6191 1442.4395 L 2569.6191 1441.1992 L 2556.1191 1442.1992 L 2555.5098 1435.5703 L 2588.4102 1433.0293 z M 2583.7402 1440.0703 L 2574.7402 1440.8203 L 2575.25 1446.6699 C 2575.56 1450.4299 2576.87 1453.5996 2580.25 1453.3496 C 2583.08 1453.1396 2584.57 1450.7903 2584.25 1446.0703 L 2583.7402 1440.0703 z M 2468.5098 1568.9492 L 2498.4902 1645.7598 L 2581.1797 1640.9492 L 2517.1797 1693.2598 L 2547.2305 1770.3906 L 2477.5605 1725.5996 L 2413.7793 1777.6992 L 2434.6504 1698.1406 L 2365.3691 1653.4609 L 2447.6094 1648.6504 L 2468.5098 1568.9492 z M 436.07031 1585.5195 L 458.21094 1664.7402 L 540.56055 1668.3203 L 472.00977 1714 L 494.19922 1793.3301 L 429.5293 1742.1602 L 360.61914 1788.0898 L 389.43945 1710.6191 L 324.56055 1659.1992 L 407.30078 1662.6895 L 436.07031 1585.5195 z M 2291.5293 1896.1406 L 2341.8594 1927.1406 L 2324.7305 1955.0293 C 2308.2105 1947.8793 2293.3495 1951.2004 2285.5195 1963.9004 C 2279.6395 1973.4304 2281.0494 1983.7303 2288.8594 1988.5703 C 2315.7494 2005.1303 2356.7995 1924.9003 2415.4395 1961.0703 C 2455.0195 1985.4903 2445.9398 2022.0709 2435.0898 2039.6309 C 2426.0898 2054.2909 2413.7402 2062.2102 2398.4902 2062.9102 L 2398.1699 2063.4102 L 2412.0996 2071.9902 L 2394.7305 2100.0801 L 2338.2793 2065.2695 L 2355.6191 2037.1797 C 2373.1591 2048.6797 2392.4498 2044.7308 2401.3398 2030.3008 C 2407.5098 2020.3008 2404.8108 2007.1805 2394.8008 2000.9805 C 2364.5108 1982.3105 2323.2998 2058.3908 2271.2598 2026.3008 C 2239.0098 2006.4008 2240.9904 1974.2209 2253.6504 1953.7109 C 2261.6504 1940.7809 2273.2309 1933.4199 2287.7109 1932.9199 L 2288.0293 1932.4199 L 2274.3496 1923.9805 L 2291.5293 1896.1406 z M 598.10352 1916.5234 C 616.81932 1916.7226 632.15234 1928.2669 640.81055 1941.8203 C 648.96055 1954.6403 650.49914 1968.2993 644.61914 1981.5293 L 644.93945 1982.0293 L 658.50977 1973.4102 L 676.05078 2001.0293 L 626.15039 2032.7305 L 608.60938 2005.1094 C 622.24937 1993.3794 625.73977 1978.5802 617.75977 1965.9902 C 611.75977 1956.5502 601.87914 1953.3005 594.11914 1958.2305 C 567.49914 1975.1605 621.70961 2047.1093 563.59961 2084.0293 C 524.35961 2108.9693 495.42928 2084.8499 484.35938 2067.4199 C 475.11937 2052.8799 473.36016 2038.3501 479.41016 2024.3301 L 479.10938 2023.8301 L 465.28906 2032.6094 L 447.5293 2004.7402 L 503.49023 1969.2109 L 521.16992 1997.0508 C 503.16992 2007.8108 498.32039 2026.8902 507.40039 2041.1602 C 513.71039 2051.1002 526.69086 2054.4094 536.63086 2048.1094 C 566.63086 2029.0194 516.21055 1958.7509 567.81055 1925.9609 C 577.79492 1919.6141 587.39886 1916.7937 596.28125 1916.5391 C 596.89191 1916.5216 597.49978 1916.517 598.10352 1916.5234 z M 2206.4395 2030.9199 L 2251.5703 2072.9395 L 2226.3594 2100.0195 L 2205.3691 2080.4805 L 2164.1406 2124.7695 L 2196.8906 2155.25 L 2230.1094 2119.5508 L 2254.25 2142.0195 L 2221.0293 2177.7109 L 2258.4004 2212.4805 L 2299.6094 2168.1797 L 2278.4199 2148.4609 L 2303.6309 2121.3906 L 2348.9707 2163.5801 L 2232.3301 2288.8809 L 2208.1895 2266.4199 L 2223.8203 2249.6191 L 2129.5605 2161.9199 L 2113.9492 2178.7109 L 2089.8008 2156.25 L 2206.4395 2030.9199 z M 713.18945 2049.9492 L 800.34961 2142.6191 L 776.30078 2165.2402 L 758.40039 2146.2402 L 692.40039 2264.3105 L 708.15039 2281.0605 L 684.05078 2303.6504 L 619.09961 2234.6504 L 643.15039 2212 L 659.88086 2229.7402 L 677.88086 2200.2207 L 643.25 2163.4199 L 611.73047 2178.5 L 629.63086 2197.5 L 605.58008 2220.1504 L 546.15039 2156.9707 L 570.19922 2134.3203 L 586.91992 2152.1094 L 707.00977 2091.5703 L 689.10938 2072.5703 L 713.18945 2049.9492 z M 724.93945 2122.4492 L 670.05078 2150.0195 L 693.25977 2174.7402 L 725.33008 2122.8594 L 724.93945 2122.4492 z M 828.23047 2173.1309 L 895.7207 2218.8301 L 886.61914 2359.6406 L 887.09961 2359.9805 L 936.83984 2286.5703 L 915.91016 2272.4102 L 934.42969 2245.0898 L 1006.8906 2294.1699 L 988.36914 2321.4902 L 965.56055 2306.0391 L 874.76953 2440.0098 L 838.66992 2415.5508 L 850.10938 2250.3301 L 849.63086 2250.0098 L 787.82031 2341.2305 L 808.00977 2354.9199 L 789.5 2382.2402 L 718.94922 2334.4297 L 737.46094 2307.0996 L 759.07031 2321.7598 L 831.33984 2215.0898 L 809.74023 2200.4492 L 828.23047 2173.1309 z M 2065.9297 2178.4609 L 2084.4004 2205.8301 L 2065.3594 2218.6699 L 2137.4805 2325.5098 L 2156.5195 2312.6406 L 2174.9902 2340.0098 L 2097.4297 2392.3594 L 2078.9492 2365.0098 L 2095.3594 2353.9199 L 2065.6602 2309.9199 L 2021.6309 2339.6191 L 2051.3594 2383.6406 L 2067.7695 2372.5508 L 2086.2402 2399.9102 L 2008.6797 2452.2891 L 1990.1992 2424.9199 L 2009.2402 2412.0801 L 1937.1309 2305.2402 L 1918.0898 2318.0898 L 1899.6191 2290.7402 L 1977.1797 2238.3691 L 1995.6504 2265.7402 L 1979.2207 2276.8105 L 2003.1602 2312.25 L 2047.1895 2282.5508 L 2023.2402 2247.1094 L 2006.8398 2258.1797 L 1988.3691 2230.8301 L 2065.9297 2178.4609 z M 1866.8809 2306.7402 L 1890.5293 2371.1406 L 1859.5293 2382.5098 C 1853.2193 2375.3398 1843.7992 2367.1995 1837.1992 2365.0195 C 1820.6092 2359.7995 1813.0792 2360.1205 1801.1992 2364.4805 C 1768.3192 2376.5505 1755.8594 2409.2507 1769.6094 2446.7207 C 1782.6794 2482.2807 1812.7009 2499.0902 1843.1309 2487.9102 C 1868.4809 2478.6102 1880.9105 2454.1698 1876.5605 2421.5098 L 1918.9902 2425.5098 C 1923.6202 2479.7698 1887.9902 2509.3594 1851.9102 2522.6094 C 1773.7602 2551.3194 1732.8409 2504.8607 1718.2109 2464.9707 C 1697.7309 2409.1207 1722.7301 2356.2493 1779.8301 2335.2793 C 1802.1801 2327.0693 1821.6691 2326.0201 1841.1191 2332.3301 L 1835.8809 2318.0605 L 1866.8809 2306.7402 z M 1032.5293 2306.8203 L 1128.5293 2340.9297 C 1161.7993 2352.7497 1182.5809 2367.1395 1194.6309 2392.4395 C 1206.4809 2417.3595 1205.8592 2443.9491 1196.9492 2469.1191 C 1180.0192 2516.7291 1134.9491 2550.1203 1076.5391 2529.3203 L 967.23047 2490.5195 L 978.32031 2459.4102 L 1006.1895 2469.3008 L 1049.3496 2347.8301 L 1021.4805 2337.9297 L 1032.5293 2306.8203 z M 1097.2305 2364.8594 L 1054.0703 2486.3301 L 1072.1992 2492.7402 C 1108.7392 2505.7402 1134.1294 2488.2202 1147.1094 2451.7402 C 1161.1094 2412.2302 1149.4505 2383.4102 1113.7305 2370.7402 L 1097.2305 2364.8594 z M 1661.5098 2375.0508 L 1666.8906 2407.6094 L 1637.7109 2412.4395 L 1658.7207 2539.6309 L 1687.9004 2534.8203 L 1693.2793 2567.4102 L 1584.7891 2585.3301 L 1579.3906 2552.75 L 1608.5703 2547.9102 L 1587.5605 2420.7207 L 1558.3691 2425.5293 L 1553 2392.9707 L 1661.5098 2375.0508 z M 1237.6406 2383.8203 L 1324.9199 2390.1992 L 1322.5098 2423.1309 L 1302.7695 2421.6797 L 1327.1406 2517.2305 L 1327.7109 2517.2793 L 1364.0195 2426.1504 L 1346.2695 2424.8496 L 1348.6797 2391.9492 L 1418.4805 2397.0508 L 1416.0703 2429.9609 L 1398.0605 2428.6406 L 1422.7207 2524.2207 L 1423.2891 2524.2695 L 1460.7305 2433.2305 L 1440.6895 2431.75 L 1443.0996 2398.8496 L 1521.5 2404.5898 L 1519.0898 2437.4902 L 1497.9199 2435.9492 L 1431.6406 2594.7695 L 1396.4395 2592.2109 L 1372.0293 2501.2305 L 1371.4609 2501.2109 L 1335.7891 2587.7598 L 1300.0195 2585.1504 L 1255.8398 2418.25 L 1235.2402 2416.7305 L 1237.6406 2383.8203 z M 1622.6602 2712.6309 L 1624.7695 2728.9297 L 1624.1602 2751.8203 L 1617.8496 2752.6309 L 1611.4395 2730.6309 L 1609.3301 2714.3301 L 1622.6602 2712.6309 z M 1279.8301 2713.0195 L 1334.0391 2719.0996 L 1331.3496 2743.0801 L 1320.9805 2741.9199 L 1322.5391 2728.0391 L 1313.5703 2727.0293 L 1309.1504 2766.4805 L 1318.1191 2767.4805 L 1316.9805 2777.5898 L 1283.5098 2773.8398 L 1284.6406 2763.7305 L 1293.5996 2764.7402 L 1298.0293 2725.2891 L 1289.0605 2724.2891 L 1287.5098 2738.1699 L 1277.1406 2737.0098 L 1279.8301 2713.0195 z M 1594.7305 2716.4199 L 1595.6191 2726.5391 L 1588.1309 2727.1992 L 1574.6094 2752 L 1576.0293 2768.1094 L 1584.4805 2767.3691 L 1585.3809 2777.4902 L 1553.3203 2780.3105 L 1552.4297 2770.1895 L 1560.8809 2769.4492 L 1559.4609 2753.3301 L 1540.9395 2731.3594 L 1533.4492 2732.0195 L 1532.5605 2721.8906 L 1561.9707 2719.3008 L 1562.8691 2729.4297 L 1557.4004 2729.9102 L 1567.7598 2743.7305 L 1575.1895 2728.3398 L 1570 2728.8008 L 1569.0996 2718.6699 L 1594.7305 2716.4199 z M 1351.0293 2720.3691 L 1390.0996 2722.7891 L 1389.4805 2732.9297 L 1381.4805 2732.4297 L 1391.5508 2772.8008 L 1398.6094 2773.2402 L 1397.9492 2783.4395 L 1368.8496 2781.6406 L 1369.4805 2771.5 L 1376.9805 2771.9609 L 1374.7891 2761.5605 L 1359.2695 2760.5605 L 1355.3691 2770.5605 L 1363.3691 2771.0508 L 1362.7402 2781.1992 L 1336.0996 2779.5508 L 1336.7305 2769.4102 L 1344.2207 2769.8809 L 1358.4102 2731.0098 L 1350.4102 2730.5098 L 1351.0293 2720.3691 z M 1520.8691 2722.5195 L 1521.6602 2746.6309 L 1511.2402 2746.9707 L 1510.7793 2733.0195 L 1501.7695 2733.3105 L 1503.0801 2772.9707 L 1512.0898 2772.6797 L 1512.4199 2782.8398 L 1478.7598 2783.9395 L 1478.4297 2773.7793 L 1487.4395 2773.4805 L 1486.1406 2733.8301 L 1477.1309 2734.1191 L 1477.5898 2748.0801 L 1467.1602 2748.4199 L 1466.3809 2724.3105 L 1520.8691 2722.5195 z M 1428.5508 2723.25 A 12.5 12.5 0 0 1 1439.4297 2728.9902 L 1439.6094 2728.9902 L 1439.6895 2724.0391 L 1449.7695 2724.1992 L 1449.4805 2742.4102 L 1439.4102 2742.2402 C 1438.7002 2736.7502 1435.4806 2733.3402 1430.8906 2733.2402 C 1427.4406 2733.1802 1424.8906 2735.18 1424.8906 2738 C 1424.7306 2747.73 1452.4396 2745.9999 1452.0996 2767.1699 C 1451.8696 2781.4899 1440.7704 2784.84 1434.4004 2784.75 C 1429.1004 2784.66 1425.0607 2782.65 1422.4707 2778.75 L 1422.2891 2778.75 L 1422.2109 2783.75 L 1412.0391 2783.5898 L 1412.3691 2763.2402 L 1422.5391 2763.4004 C 1422.2591 2769.8504 1426.3391 2774.3404 1431.5391 2774.4004 A 6.53 6.53 0 0 0 1438.2695 2768.0508 C 1438.4495 2757.0508 1411.8091 2758.1698 1412.1191 2739.3398 C 1412.3091 2727.6798 1421.1208 2723.13 1428.5508 2723.25 z M 1368.9492 2734.2109 L 1362.4492 2751.9492 L 1372.8594 2752.5996 L 1369.1309 2734.2109 L 1368.9492 2734.2109 z M 1629.0293 2757.6992 L 1630.8906 2772.0801 L 1616.5195 2773.9395 L 1614.6602 2759.5605 L 1629.0293 2757.6992 z "
     id="path926"
     style="fill:#ffffff;fill-opacity:1" />
  <path
     class="cls-2"
     d="M-4165.5-1135.4h72.5v-159.75h-434.83v159.75h77.5v598.48c0,93.09-5.52,149.58-82,149.58-4.65,0-9.47-.57-14.29-1v163.56c38.11,5.16,61,7.18,105.53,7.18,104.44,0,156.66-17,207-67.32,52.56-52.56,68.59-112.92,68.59-258.31Z"
     transform="translate(5483.73 2249.74)"
     id="path932"
     style="fill:#ffffff;fill-opacity:1" />
  <path
     class="cls-2"
     d="M-3574.08-1135.4h72.53v-159.75h-434.88v159.75h77.61v598.48c0,93.09-5.53,149.58-82.15,149.58-4.59,0-9.4-.57-14.2-1v163.56c38.09,5.16,60.92,7.18,105.45,7.18,104.48,0,156.73-17,207-67.32,52.56-52.56,68.59-112.92,68.59-258.31Z"
     transform="translate(5483.73 2249.74)"
     id="path936"
     style="fill:#ffffff;fill-opacity:1" />
  <g
     id="g4762"
     transform="translate(-139.83172,-444)">
    <path
       transform="translate(5483.73,2249.74)"
       id="path998"
       d="m -4597.61,1332.71 v -29.57 a 21.14,21.14 0 0 0 5.11,0.7 q 5.56,0 7.13,-3.94 1.57,-3.94 1.47,-18.63 v -76 h -11.1 v -29 h 68.2 v 29 h -10.34 V 1276 q 0,19.7 -1,27.78 a 35.82,35.82 0 0 1 -6,15.52 32.33,32.33 0 0 1 -13.21,11.19 q -8.09,3.73 -22.41,3.73 a 117.93,117.93 0 0 1 -17.85,-1.51 z"
       class="cls-1"
       inkscape:connector-curvature="0"
       style="fill:#ffffff" />
    <path
       transform="translate(5483.73,2249.74)"
       id="path1000"
       d="m -4446.23,1296.94 h -68.86 v -28.89 h 11.09 v -63 h -11.11 v -28.9 h 68.86 v 28.9 h -11 v 63 h 11 z"
       class="cls-1"
       inkscape:connector-curvature="0"
       style="fill:#ffffff" />
    <path
       transform="translate(5483.73,2249.74)"
       id="path1002"
       d="m -4385.45,1296.94 h -46.84 v -28.84 h 9.31 v -62.86 h -9.56 v -29 h 72.91 l 17.81,46.63 18.25,-46.63 h 72.49 v 29 h -9.48 v 62.86 h 9.74 v 28.84 h -63.1 v -28.86 h 9.65 v -63.15 l -36.5,92 h -18.08 L -4395,1205.8 v 62.28 h 9.55 z"
       class="cls-1"
       inkscape:connector-curvature="0"
       style="fill:#ffffff" />
    <path
       transform="translate(5483.73,2249.74)"
       id="path1004"
       d="m -4189.1,1296.94 h -46.9 v -28.84 h 9.3 v -62.86 h -9.56 v -29 h 72.92 l 17.81,46.63 18.24,-46.63 h 72.49 v 29 h -9.48 v 62.86 h 9.74 v 28.84 h -63.09 v -28.86 h 9.65 v -63.15 l -36.5,92 h -18.08 l -36.16,-91.14 v 62.28 h 9.58 z"
       class="cls-1"
       inkscape:connector-curvature="0"
       style="fill:#ffffff" />
    <path
       transform="translate(5483.73,2249.74)"
       id="path1006"
       d="m -3949,1296.94 h -66 v -28.89 h 9.74 v -19.18 l -30.49,-43.77 h -8.25 v -28.9 h 63.18 v 28.92 h -7.21 l 12.86,24.66 15.57,-24.66 h -7.4 v -28.92 h 46.47 v 28.9 h -7.54 l -30.42,43.77 v 19.18 h 9.56 z"
       class="cls-1"
       inkscape:connector-curvature="0"
       style="fill:#ffffff" />
    <path
       transform="translate(5483.73,2249.74)"
       id="path1008"
       d="m -3868.85,1332.71 v -29.57 a 21.43,21.43 0 0 0 5.15,0.7 q 5.53,0 7.12,-3.94 c 1,-2.59 1.5,-8.81 1.5,-18.63 v -76 h -11.14 v -29 h 68.22 v 29 h -10.34 V 1276 q 0,19.7 -1.06,27.78 a 35.44,35.44 0 0 1 -6,15.52 32.15,32.15 0 0 1 -13.2,11.19 q -8.06,3.73 -22.43,3.73 a 118.17,118.17 0 0 1 -17.82,-1.51 z"
       class="cls-1"
       inkscape:connector-curvature="0"
       style="fill:#ffffff" />
    <path
       transform="translate(5483.73,2249.74)"
       id="path1010"
       d="m -3791,1236.24 a 62.46,62.46 0 0 1 7.37,-29.27 q 7.28,-14.05 22.68,-23.71 a 56.06,56.06 0 0 1 11.25,-5.37 73.74,73.74 0 0 1 12.57,-3.07 89.21,89.21 0 0 1 14.25,-1.09 q 32.5,0 50.32,19 a 67.58,67.58 0 0 1 13.39,20.32 60.39,60.39 0 0 1 4.49,23.19 q 0,25.26 -18.41,43.93 -18.41,18.67 -49.79,18.67 -30.35,0 -49.2,-17.52 -18.85,-17.52 -18.92,-45.08 z m 52.46,0 q 0,20.15 3.91,27.18 a 12.43,12.43 0 0 0 11.75,7.14 12.74,12.74 0 0 0 11.81,-6.86 q 3.9,-7 3.92,-27.46 0,-19.92 -3.83,-27.12 a 12.54,12.54 0 0 0 -11.9,-7.14 12.72,12.72 0 0 0 -11.75,6.87 q -3.83,6.87 -3.86,27.39 z"
       class="cls-1"
       inkscape:connector-curvature="0"
       style="fill:#ffffff" />
    <path
       transform="translate(5483.73,2249.74)"
       id="path1012"
       d="M -3581.29,1296.94 H -3645 v -28.89 h 9.13 v -63 h -9.3 v -28.9 h 63.83 v 28.87 h -7.66 v 18.38 h 27.8 v -18.38 h -7.82 v -28.82 h 63.72 v 28.9 h -9.11 v 63 h 9.11 v 28.89 h -63.72 V 1268 h 7.82 v -19.82 H -3589 V 1268 h 7.74 z"
       class="cls-1"
       inkscape:connector-curvature="0"
       style="fill:#ffffff" />
    <path
       transform="translate(5483.73,2249.74)"
       id="path1014"
       d="m -3442,1296.94 h -49.63 v -28.84 h 10.63 v -62.86 h -10.61 v -29 h 57.29 l 44,63 v -34 h -9.82 v -29 h 48.77 v 29 h -10.54 v 93.27 h -39.81 l -50.93,-73 V 1268 h 10.65 z"
       class="cls-1"
       inkscape:connector-curvature="0"
       style="fill:#ffffff" />
    <path
       transform="translate(5483.73,2249.74)"
       id="path1016"
       d="m -3338.88,1242.91 v -17 c 4.63,0 8.14,-0.7 10.59,-2.08 2.45,-1.38 3.93,-3.1 4.52,-5 0.59,-1.9 1,-5.59 1,-11 h -16.15 v -31.63 h 43.37 v 27 q 0,14.49 -1,19.89 c -0.68,3.65 -2.71,7.19 -6.06,10.6 a 26.23,26.23 0 0 1 -12.28,7.22 q -7.32,1.99 -23.99,2 z"
       class="cls-1"
       inkscape:connector-curvature="0"
       style="fill:#ffffff" />
    <path
       transform="translate(5483.73,2249.74)"
       id="path1018"
       d="m -3257.47,1296.94 h -27.17 v -38.74 h 27.17 q 4.87,15.74 18.32,15.75 9.72,0 9.72,-7.8 a 8.3,8.3 0 0 0 -3.38,-6.78 q -3.66,-3 -15.37,-8.18 -14.78,-6.68 -21.73,-11.55 a 37.5,37.5 0 0 1 -11.09,-12.24 32.79,32.79 0 0 1 -4.6,-17.11 q 0,-16.86 11,-26.31 c 7.24,-6.32 16.13,-9.47 26.74,-9.47 10.61,0 19.55,3 26.91,9.11 v -7.42 h 27.36 v 34.29 h -27 c -3.31,-9.48 -9.14,-14.21 -17.55,-14.21 -5.91,0 -8.86,2.51 -8.86,7.55 a 6.27,6.27 0 0 0 2.53,5.48 c 1.62,1.27 6.84,4.08 15.72,8.41 q 17.8,8.87 23.78,13 a 32.26,32.26 0 0 1 6.22,5.6 41.57,41.57 0 0 1 5.25,7.43 37.18,37.18 0 0 1 4.77,18.41 33.82,33.82 0 0 1 -11.28,25.7 q -11.3,10.69 -28.48,10.69 a 48,48 0 0 1 -28.92,-9.42 z"
       class="cls-1"
       inkscape:connector-curvature="0"
       style="fill:#ffffff" />
  </g>
  <g
     inkscape:groupmode="layer"
     id="layer2"
     inkscape:label="Main">
    <text
       xml:space="preserve"
       style="font-style:normal;font-variant:normal;font-weight:normal;font-stretch:normal;font-size:40.32235336px;line-height:3.80998611px;font-family:Consolas;-inkscape-font-specification:Consolas;letter-spacing:0px;word-spacing:0px;fill:#000000;fill-opacity:1;stroke:none;stroke-width:1.00805879"
       x="904.91693"
       y="3331.429"
       id="text4817"
       transform="scale(1.0080588,0.99200562)"><tspan
         sodipodi:role="line"
         id="tspan4815"
         x="904.91693"
         y="3331.429"
         style="font-style:normal;font-variant:normal;font-weight:normal;font-stretch:normal;font-size:174.73019409px;font-family:'Rockwell Extra Bold';-inkscape-font-specification:'Rockwell Extra Bold, ';fill:#ffffff;fill-opacity:1;stroke-width:1.00805879">WEXFORD</tspan><tspan
         sodipodi:role="line"
         x="904.91693"
         y="3335.239"
         style="font-size:174.73019409px;stroke-width:1.00805879"
         id="tspan4819" /></text>
    <text
       xml:space="preserve"
       style="font-style:normal;font-variant:normal;font-weight:normal;font-stretch:normal;font-size:40px;line-height:3.77952766px;font-family:Consolas;-inkscape-font-specification:Consolas;letter-spacing:0px;word-spacing:0px;fill:#000000;fill-opacity:1;stroke:none"
       x="884.71436"
       y="3463.4919"
       id="text4829"><tspan
         sodipodi:role="line"
         id="tspan4827"
         x="884.71436"
         y="3463.4919"
         style="font-style:normal;font-variant:normal;font-weight:normal;font-stretch:normal;font-size:133.33332825px;font-family:'Rockwell Extra Bold';-inkscape-font-specification:'Rockwell Extra Bold, ';fill:#ffffff;fill-opacity:1">(724) 935-9100</tspan></text>
  </g>
</svg>
