<?xml version="1.0" encoding="UTF-8" standalone="no"?>
<svg
   xmlns:dc="http://purl.org/dc/elements/1.1/"
   xmlns:cc="http://creativecommons.org/ns#"
   xmlns:rdf="http://www.w3.org/1999/02/22-rdf-syntax-ns#"
   xmlns:svg="http://www.w3.org/2000/svg"
   xmlns="http://www.w3.org/2000/svg"
   xmlns:sodipodi="http://sodipodi.sourceforge.net/DTD/sodipodi-0.dtd"
   xmlns:inkscape="http://www.inkscape.org/namespaces/inkscape"
   id="Layer_1"
   data-name="Layer 1"
   viewBox="0 0 2901.46 3583.93"
   version="1.1"
   sodipodi:docname="Jimmy Johns - Color.svg"
   inkscape:version="0.92.2 (5c3e80d, 2017-08-06)">
  <metadata
     id="metadata1023">
    <rdf:RDF>
      <cc:Work
         rdf:about="">
        <dc:format>image/svg+xml</dc:format>
        <dc:type
           rdf:resource="http://purl.org/dc/dcmitype/StillImage" />
        <dc:title>jimmy johns circle logo</dc:title>
      </cc:Work>
    </rdf:RDF>
  </metadata>
  <sodipodi:namedview
     pagecolor="#ffffff"
     bordercolor="#666666"
     borderopacity="1"
     objecttolerance="10"
     gridtolerance="10"
     guidetolerance="10"
     inkscape:pageopacity="0"
     inkscape:pageshadow="2"
     inkscape:window-width="2560"
     inkscape:window-height="1361"
     id="namedview1021"
     showgrid="false"
     inkscape:zoom="0.23458884"
     inkscape:cx="201.23461"
     inkscape:cy="1320.5071"
     inkscape:window-x="-9"
     inkscape:window-y="-9"
     inkscape:window-maximized="1"
     inkscape:current-layer="layer2"
     inkscape:pagecheckerboard="true" />
  <defs
     id="defs922">
    <style
       id="style920">.cls-1{fill:#fff;}.cls-2{fill:#e31837;}</style>
  </defs>
  <title
     id="title924">jimmy johns circle logo</title>
  <path
     d="M-2582.27-799c0,801.15-649.47,1450.75-1450.7,1450.75S-5483.73,2.13-5483.73-799-4834.24-2249.74-4033-2249.74-2582.27-1600.2-2582.27-799"
     transform="translate(5483.73 2249.74)"
     id="path926" />
  <path
     class="cls-1"
     d="M-4033-2129.64c-734.91,0-1330.63,595.77-1330.63,1330.63,0,662.79,484.64,1212.39,1118.93,1313.79q3.85-27.18,7.73-54.31C-4844.58,362.88-5308.72-163.92-5308.72-799c0-704.55,571.15-1275.75,1275.75-1275.75S-2757.26-1503.56-2757.26-799c0,635.09-464.18,1161.88-1071.79,1259.49q3.85,27.18,7.73,54.31C-3187,413.43-2702.43-136.17-2702.43-799c0-734.86-595.63-1330.63-1330.54-1330.63"
     transform="translate(5483.73 2249.74)"
     id="path928" />
  <path
     class="cls-1"
     d="M-4571.88-1339.19v247.88h77.51v554.4c0,105.53-11.12,105.53-38,105.53-9.29,0-18.85-1.39-31-4.38l-27.37-6.93v256.25l18.93,2.69c52.9,7.48,76.25,10.17,130.66,10.17,100,0,171-13.17,238.16-80.19,68.88-68.92,81.49-151.54,81.49-289.49v-548h72.5v-247.88Z"
     transform="translate(5483.73 2249.74)"
     id="path930" />
  <path
     class="cls-2"
     d="M-4165.5-1135.4h72.5v-159.75h-434.83v159.75h77.5v598.48c0,93.09-5.52,149.58-82,149.58-4.65,0-9.47-.57-14.29-1v163.56c38.11,5.16,61,7.18,105.53,7.18,104.44,0,156.66-17,207-67.32,52.56-52.56,68.59-112.92,68.59-258.31Z"
     transform="translate(5483.73 2249.74)"
     id="path932" />
  <path
     class="cls-1"
     d="M-3980.47-1339.19v247.88h77.58v554.4c0,105.53-11.15,105.53-38.08,105.53-9.19,0-19-1.44-30.83-4.38l-27.44-6.93v256.25l18.92,2.69c52.87,7.48,76.23,10.17,130.6,10.17,100.06,0,171.12-13.17,238.19-80.19,68.88-68.92,81.51-151.54,81.51-289.49v-548h72.5v-247.88Z"
     transform="translate(5483.73 2249.74)"
     id="path934" />
  <path
     class="cls-2"
     d="M-3574.08-1135.4h72.53v-159.75h-434.88v159.75h77.61v598.48c0,93.09-5.53,149.58-82.15,149.58-4.59,0-9.4-.57-14.2-1v163.56c38.09,5.16,60.92,7.18,105.45,7.18,104.48,0,156.73-17,207-67.32,52.56-52.56,68.59-112.92,68.59-258.31Z"
     transform="translate(5483.73 2249.74)"
     id="path936" />
  <path
     class="cls-1"
     d="M-4925.29-810a41.39,41.39,0,0,0,2.31-10c1.37-14.45-6.19-17.63-34.32-20.23l-162-14.95-2,21.81-57.27-5.29,12.43-134.57,57.23,5.26-1.82,20.4,160.21,14.77c40.43,3.72,59.74,9.76,75,28.13,15,18.1,17.6,35.66,15,64.49-1.39,14.81-2.63,21-6.09,35.6Z"
     transform="translate(5483.73 2249.74)"
     id="path938" />
  <polygon
     class="cls-1"
     points="506.05 1254.4 512.04 1232.97 392.23 1199.18 386.2 1220.56 330.85 1204.89 368.17 1072.79 423.53 1088.4 417.47 1109.85 537.37 1143.74 543.46 1122.3 598.75 1137.93 561.42 1270.02 506.05 1254.4"
     id="polygon940" />
  <polygon
     class="cls-1"
     points="546.98 1073.98 557.27 1058.38 453.05 990.06 442.85 1005.68 394.67 974.2 473.87 853.49 570.48 874.65 513.09 793.56 591.66 673.67 639.81 705.27 629.54 720.87 733.74 789.2 743.93 773.56 792.09 805.11 723.97 909.04 675.85 877.44 686.07 861.8 574.82 788.81 574.49 789.39 694.74 953.52 675.06 983.66 476.9 938.21 476.57 938.78 587.87 1011.71 598.09 996.08 646.22 1027.6 595.14 1105.54 546.98 1073.98"
     id="polygon942" />
  <polygon
     class="cls-1"
     points="776.42 741.2 792.12 731.05 724.24 626.58 708.58 636.81 677.15 588.52 798.25 509.86 878.25 568.18 858.31 470.85 978.51 392.8 1009.84 440.96 994.16 451.21 1062.06 555.64 1077.71 545.48 1109.02 593.7 1004.9 661.37 973.51 613.16 989.2 602.99 916.69 491.37 916.09 491.76 960.14 690.4 930.02 709.98 767.01 588.73 766.37 589.1 838.84 700.66 854.56 690.43 885.88 738.67 807.82 789.47 776.42 741.2"
     id="polygon944" />
  <polygon
     class="cls-1"
     points="1170.54 527.66 1189.1 523.38 1180.53 486.25 1102.31 415.55 1086.51 419.18 1073.57 363.16 1195.66 334.93 1208.57 391.04 1194.81 394.18 1230.15 436.01 1249.12 381.71 1235.01 384.95 1222.1 328.88 1311.88 308.19 1324.81 364.26 1310.02 367.64 1271.01 465.39 1279.56 502.52 1298.17 498.26 1311.05 554.3 1183.47 583.69 1170.54 527.66"
     id="polygon946" />
  <path
     class="cls-1"
     d="M-3977.53-1689.72a42.66,42.66,0,0,0,9.92,2.81c14.3,2.07,17.87-5.33,21.86-33.21l22.93-161.1-21.66-3.12,8.15-56.9,133.83,19.09-8.09,56.95-20.3-2.9-22.75,159.31c-5.71,40.2-12.72,59.17-31.88,73.52-18.79,14.14-36.46,15.84-65.18,11.76-14.57-2.06-20.78-3.72-35.19-7.89Z"
     transform="translate(5483.73 2249.74)"
     id="path948" />
  <path
     class="cls-1"
     d="M-3662.12-1755.38c17.55-41.3,31.81-60.53,55.19-50.62s19.45,33.58,2,74.81-31.81,60.56-55.19,50.58-19.46-33.49-2-74.77m-95.79-40.6c-22.13,51.94-10.23,130.55,75.95,167.08s150.88-9.6,172.87-61.67,10.19-130.6-75.94-167.09-150.91,9.64-172.88,61.69"
     transform="translate(5483.73 2249.74)"
     id="path950" />
  <polygon
     class="cls-1"
     points="1990.76 642.27 2004.48 654.57 2087.74 561.93 2074.09 549.69 2112.55 506.86 2206.52 591.33 2168.09 634.17 2156.77 624 2132.22 651.3 2173.45 688.32 2197.96 661.06 2186.68 650.89 2225.16 608.15 2319.05 692.6 2280.62 735.41 2266.91 723.13 2183.65 815.75 2197.27 828.03 2158.87 870.8 2064.93 786.29 2103.33 743.47 2114.61 753.63 2140.84 724.54 2099.59 687.47 2073.42 716.59 2084.73 726.78 2046.26 769.53 1952.32 685.03 1990.76 642.27"
     id="polygon952" />
  <polygon
     class="cls-1"
     points="2223.34 860.46 2233.57 878.91 2342.41 818.1 2332.04 799.61 2382.3 771.55 2437.68 870.73 2370.96 1007.99 2371.27 1008.57 2430.35 975.5 2420.56 957.91 2470.82 929.92 2517.99 1014.29 2467.8 1042.34 2457.57 1024.19 2295.27 1114.93 2256.65 1045.93 2334.83 887.04 2334.52 886.42 2260.82 927.55 2271.34 946.35 2221.13 974.42 2173.16 888.51 2223.34 860.46"
     id="polygon954" />
  <path
     class="cls-1"
     d="M-3046.65-1150.4c7.51,24.3,17.77,28.85,43.66,20.44l-9.6-31,59.94-18.59,25.45,81.94-73.16,22.65c-34.75,10.74-61.69-8.27-74.49-49.72a146.12,146.12,0,0,1-4.18-15.7Z"
     transform="translate(5483.73 2249.74)"
     id="path956" />
  <path
     class="cls-1"
     d="M-3072.38-1023l7.14,53.51c-20.75,10.27-28.75,22.69-26.3,40.56,1.49,11.49,8.46,18.09,17.86,16.86,4.54-.62,7.9-2.48,11.85-7.64,13.34-17.4,14.42-60.36,36.56-89.22,13-17,27.88-25.8,46.74-28.29,42-5.61,74.29,20.75,80.27,65.15,2.76,20.31-1.22,39.7-10.8,55.19l14.64-1.93,7.2,53.56-67.61,8.9-7-53.46,2.92-1.49c16-9.24,22.56-20.81,20.47-36.56-1.42-10.81-7.92-16.78-17-15.56a16,16,0,0,0-9.92,5.58c-9.36,12.39-16.57,65.6-40.55,96.94-7.84,10.25-25.58,24.42-48.68,27.47-40.92,5.42-76.52-24-82.4-68.44a99.73,99.73,0,0,1,11.34-59.61l-15.73,2.19-7.17-53.56Z"
     transform="translate(5483.73 2249.74)"
     id="path958" />
  <path
     class="cls-1"
     d="M-2908.09-770.59a31,31,0,0,1-33.3-28.47,30.84,30.84,0,0,1,28.49-33.33,30.88,30.88,0,0,1,33.26,28.44,31,31,0,0,1-28.45,33.36m-4.28-55.76a25,25,0,0,0-23,26.79,24.93,24.93,0,0,0,26.83,22.81,24.58,24.58,0,0,0,22.73-26.7,24.67,24.67,0,0,0-26.6-22.9m-14.14,32.46c5.36-3.19,8.79-5.24,11.15-8,1.55-1.78,1.55-2.67,1.29-5.41v-1.24l-13.5,1-.61-6.63,32.9-2.54,1.22,16.07c.58,7.59-3.71,10.83-8.35,11.17-5.09.41-8.82-2.69-10-8.17h-.13c-.91,3.81-3.06,4.91-13.4,12Zm18.07-9.18c.31,3.76,1.62,6.93,5,6.68,2.83-.21,4.32-2.56,4-7.28l-.51-6-9,.75Z"
     transform="translate(5483.73 2249.74)"
     id="path960" />
  <polygon
     class="cls-1"
     points="494.2 1793.33 429.53 1742.16 360.62 1788.09 389.44 1710.62 324.56 1659.2 407.3 1662.69 436.07 1585.52 458.21 1664.74 540.56 1668.32 472.01 1714 494.2 1793.33"
     id="polygon962" />
  <path
     class="cls-1"
     d="M-4980.24-280.53l17.68,27.84c-18,10.76-22.85,29.84-13.77,44.11,6.31,9.94,19.29,13.25,29.23,6.95,30-19.09-20.42-89.36,31.18-122.15,31.95-20.31,60-4.49,73,15.86,8.15,12.82,9.69,26.48,3.81,39.71l.32.5,13.57-8.62,17.54,27.62-49.9,31.7-17.54-27.62c13.64-11.73,17.13-26.53,9.15-39.12-6-9.44-15.88-12.69-23.64-7.76-26.62,16.93,27.59,88.88-30.52,125.8-39.24,24.94-68.17.82-79.24-16.61-9.24-14.54-11-29.07-4.95-43.09l-.3-.5-13.82,8.78L-5036.2-245Z"
     transform="translate(5483.73 2249.74)"
     id="path964" />
  <path
     class="cls-1"
     d="M-4799.68,53.91l-64.95-69,24.05-22.65L-4823.85-20l18-29.52-34.63-36.8L-4872-71.24l17.9,19-24.05,22.65-59.43-63.18,24.05-22.65,16.72,17.79,120.09-60.54-17.9-19,24.08-22.62,87.16,92.67-24.05,22.62-17.9-19-66,118.07,15.75,16.75Zm41.28-180.79-.39-.41-54.89,27.57L-4790.47-75Z"
     transform="translate(5483.73 2249.74)"
     id="path966" />
  <polygon
     class="cls-1"
     points="737.46 2307.1 759.07 2321.76 831.34 2215.09 809.74 2200.45 828.23 2173.13 895.72 2218.83 886.62 2359.64 887.1 2359.98 936.84 2286.57 915.91 2272.41 934.43 2245.09 1006.89 2294.17 988.37 2321.49 965.56 2306.04 874.77 2440.01 838.67 2415.55 850.11 2250.33 849.63 2250.01 787.82 2341.23 808.01 2354.92 789.5 2382.24 718.95 2334.43 737.46 2307.1"
     id="polygon968" />
  <path
     class="cls-1"
     d="M-4505.41,209.67l27.87,9.89,43.16-121.47-27.87-9.9,11.05-31.11,96,34.11c33.27,11.82,54.05,26.21,66.1,51.51,11.85,24.92,11.23,51.51,2.32,76.68-16.93,47.61-62,81-120.41,60.2l-109.31-38.8Zm93.88,33.33c36.54,13,61.93-4.52,74.91-41,14-39.51,2.34-68.33-33.38-81l-16.5-5.88-43.16,121.47Z"
     transform="translate(5483.73 2249.74)"
     id="path970" />
  <polygon
     class="cls-1"
     points="1255.84 2418.25 1235.24 2416.73 1237.64 2383.82 1324.92 2390.2 1322.51 2423.13 1302.77 2421.68 1327.14 2517.23 1327.71 2517.28 1364.02 2426.15 1346.27 2424.85 1348.68 2391.95 1418.48 2397.05 1416.07 2429.96 1398.06 2428.64 1422.72 2524.22 1423.29 2524.27 1460.73 2433.23 1440.69 2431.75 1443.1 2398.85 1521.5 2404.59 1519.09 2437.49 1497.92 2435.95 1431.64 2594.77 1396.44 2592.21 1372.03 2501.23 1371.46 2501.21 1335.79 2587.76 1300.02 2585.15 1255.84 2418.25"
     id="polygon972" />
  <polygon
     class="cls-1"
     points="1579.39 2552.75 1608.57 2547.91 1587.56 2420.72 1558.37 2425.53 1553 2392.97 1661.51 2375.05 1666.89 2407.61 1637.71 2412.44 1658.72 2539.63 1687.9 2534.82 1693.28 2567.41 1584.79 2585.33 1579.39 2552.75"
     id="polygon974" />
  <path
     class="cls-1"
     d="M-3616.85,57l23.65,64.4-31,11.37c-6.31-7.17-15.73-15.31-22.33-17.49-16.59-5.22-24.12-4.9-36-.54-32.88,12.07-45.34,44.77-31.59,82.24,13.07,35.56,43.09,52.37,73.52,41.19,25.35-9.3,37.78-33.74,33.43-66.4l42.43,4c4.63,54.26-31,83.85-67.08,97.1-78.15,28.71-119.07-17.75-133.7-57.64C-3786,159.38-3761,106.51-3703.9,85.54c22.35-8.21,41.84-9.26,61.29-2.95l-5.24-14.27Z"
     transform="translate(5483.73 2249.74)"
     id="path976" />
  <polygon
     class="cls-1"
     points="1990.2 2424.92 2009.24 2412.08 1937.13 2305.24 1918.09 2318.09 1899.62 2290.74 1977.18 2238.37 1995.65 2265.74 1979.22 2276.81 2003.16 2312.25 2047.19 2282.55 2023.24 2247.11 2006.84 2258.18 1988.37 2230.83 2065.93 2178.46 2084.4 2205.83 2065.36 2218.67 2137.48 2325.51 2156.52 2312.64 2174.99 2340.01 2097.43 2392.36 2078.95 2365.01 2095.36 2353.92 2065.66 2309.92 2021.63 2339.62 2051.36 2383.64 2067.77 2372.55 2086.24 2399.91 2008.68 2452.29 1990.2 2424.92"
     id="polygon978" />
  <polygon
     class="cls-1"
     points="2208.19 2266.42 2223.82 2249.62 2129.56 2161.92 2113.95 2178.71 2089.8 2156.25 2206.44 2030.92 2251.57 2072.94 2226.36 2100.02 2205.37 2080.48 2164.14 2124.77 2196.89 2155.25 2230.11 2119.55 2254.25 2142.02 2221.03 2177.71 2258.4 2212.48 2299.61 2168.18 2278.42 2148.46 2303.63 2121.39 2348.97 2163.58 2232.33 2288.88 2208.19 2266.42"
     id="polygon980" />
  <path
     class="cls-1"
     d="M-3145.45-184.47l17.34-28.09c17.54,11.5,36.83,7.55,45.72-6.88,6.17-10,3.47-23.12-6.54-29.32-30.29-18.67-71.5,57.41-123.54,25.32-32.25-19.9-30.27-52.08-17.61-72.59,8-12.93,19.58-20.29,34.06-20.79l.32-.5-13.68-8.44,17.18-27.84,50.33,31L-3159-294.71c-16.52-7.15-31.38-3.83-39.21,8.87-5.88,9.53-4.47,19.83,3.34,24.67,26.89,16.56,67.94-63.67,126.58-27.5,39.58,24.42,30.5,61,19.65,78.56-9,14.66-21.35,22.58-36.6,23.28l-.32.5,13.93,8.58L-3089-149.66Z"
     transform="translate(5483.73 2249.74)"
     id="path982" />
  <polygon
     class="cls-1"
     points="2468.51 1568.95 2498.49 1645.76 2581.18 1640.95 2517.18 1693.26 2547.23 1770.39 2477.56 1725.6 2413.78 1777.7 2434.65 1698.14 2365.37 1653.46 2447.61 1648.65 2468.51 1568.95"
     id="polygon984" />
  <polygon
     class="cls-1"
     points="1331.35 2743.08 1320.98 2741.92 1322.54 2728.04 1313.57 2727.03 1309.15 2766.48 1318.12 2767.48 1316.98 2777.59 1283.51 2773.84 1284.64 2763.73 1293.6 2764.74 1298.03 2725.29 1289.06 2724.29 1287.51 2738.17 1277.14 2737.01 1279.83 2713.02 1334.04 2719.1 1331.35 2743.08"
     id="polygon986" />
  <path
     class="cls-1"
     d="M-4085.78,533.7l-29.1-1.8.63-10.14,7.5.46-2.19-10.4-15.52-1-3.9,10,8,.49-.63,10.15-26.64-1.65.63-10.14,7.49.47,14.19-38.87-8-.5.62-10.14,39.07,2.42-.62,10.14-8-.5,10.07,40.37,7.06.44Zm-28.82-49.23h-.18l-6.5,17.74,10.41.65Z"
     transform="translate(5483.73 2249.74)"
     id="path988" />
  <path
     class="cls-1"
     d="M-4071.36,513.5l10.17.16c-.28,6.45,3.8,10.94,9,11a6.53,6.53,0,0,0,6.73-6.35c.18-11-26.46-9.88-26.15-28.71.19-11.66,9-16.21,16.43-16.09a12.5,12.5,0,0,1,10.88,5.74h.18l.08-4.95,10.08.16-.29,18.21-10.07-.17c-.71-5.49-3.93-8.9-8.52-9-3.45-.06-6,1.94-6,4.76-.16,9.73,27.55,8,27.21,29.17-.23,14.32-11.33,17.67-17.7,17.58-5.3-.09-9.34-2.1-11.93-6h-.18l-.08,5-10.17-.16Z"
     transform="translate(5483.73 2249.74)"
     id="path990" />
  <polygon
     class="cls-1"
     points="1521.66 2746.63 1511.24 2746.97 1510.78 2733.02 1501.77 2733.31 1503.08 2772.97 1512.09 2772.68 1512.42 2782.84 1478.76 2783.94 1478.43 2773.78 1487.44 2773.48 1486.14 2733.83 1477.13 2734.12 1477.59 2748.08 1467.16 2748.42 1466.38 2724.31 1520.87 2722.52 1521.66 2746.63"
     id="polygon992" />
  <polygon
     class="cls-1"
     points="1552.43 2770.19 1560.88 2769.45 1559.46 2753.33 1540.94 2731.36 1533.45 2732.02 1532.56 2721.89 1561.97 2719.3 1562.87 2729.43 1557.4 2729.91 1567.76 2743.73 1575.19 2728.34 1570 2728.8 1569.1 2718.67 1594.73 2716.42 1595.62 2726.54 1588.13 2727.2 1574.61 2752 1576.03 2768.11 1584.48 2767.37 1585.38 2777.49 1553.32 2780.31 1552.43 2770.19"
     id="polygon994" />
  <path
     class="cls-1"
     d="M-3861.07,462.89l2.11,16.3-.61,22.89-6.31.81-6.41-22-2.11-16.3Zm-8,46.93,14.37-1.86,1.86,14.38-14.37,1.86Z"
     transform="translate(5483.73 2249.74)"
     id="path996" />
  <g
     id="g4762"
     transform="translate(-139.83172,-444)">
    <path
       transform="translate(5483.73,2249.74)"
       id="path998"
       d="m -4597.61,1332.71 v -29.57 a 21.14,21.14 0 0 0 5.11,0.7 q 5.56,0 7.13,-3.94 1.57,-3.94 1.47,-18.63 v -76 h -11.1 v -29 h 68.2 v 29 h -10.34 V 1276 q 0,19.7 -1,27.78 a 35.82,35.82 0 0 1 -6,15.52 32.33,32.33 0 0 1 -13.21,11.19 q -8.09,3.73 -22.41,3.73 a 117.93,117.93 0 0 1 -17.85,-1.51 z"
       class="cls-1"
       inkscape:connector-curvature="0"
       style="fill:#ffffff" />
    <path
       transform="translate(5483.73,2249.74)"
       id="path1000"
       d="m -4446.23,1296.94 h -68.86 v -28.89 h 11.09 v -63 h -11.11 v -28.9 h 68.86 v 28.9 h -11 v 63 h 11 z"
       class="cls-1"
       inkscape:connector-curvature="0"
       style="fill:#ffffff" />
    <path
       transform="translate(5483.73,2249.74)"
       id="path1002"
       d="m -4385.45,1296.94 h -46.84 v -28.84 h 9.31 v -62.86 h -9.56 v -29 h 72.91 l 17.81,46.63 18.25,-46.63 h 72.49 v 29 h -9.48 v 62.86 h 9.74 v 28.84 h -63.1 v -28.86 h 9.65 v -63.15 l -36.5,92 h -18.08 L -4395,1205.8 v 62.28 h 9.55 z"
       class="cls-1"
       inkscape:connector-curvature="0"
       style="fill:#ffffff" />
    <path
       transform="translate(5483.73,2249.74)"
       id="path1004"
       d="m -4189.1,1296.94 h -46.9 v -28.84 h 9.3 v -62.86 h -9.56 v -29 h 72.92 l 17.81,46.63 18.24,-46.63 h 72.49 v 29 h -9.48 v 62.86 h 9.74 v 28.84 h -63.09 v -28.86 h 9.65 v -63.15 l -36.5,92 h -18.08 l -36.16,-91.14 v 62.28 h 9.58 z"
       class="cls-1"
       inkscape:connector-curvature="0"
       style="fill:#ffffff" />
    <path
       transform="translate(5483.73,2249.74)"
       id="path1006"
       d="m -3949,1296.94 h -66 v -28.89 h 9.74 v -19.18 l -30.49,-43.77 h -8.25 v -28.9 h 63.18 v 28.92 h -7.21 l 12.86,24.66 15.57,-24.66 h -7.4 v -28.92 h 46.47 v 28.9 h -7.54 l -30.42,43.77 v 19.18 h 9.56 z"
       class="cls-1"
       inkscape:connector-curvature="0"
       style="fill:#ffffff" />
    <path
       transform="translate(5483.73,2249.74)"
       id="path1008"
       d="m -3868.85,1332.71 v -29.57 a 21.43,21.43 0 0 0 5.15,0.7 q 5.53,0 7.12,-3.94 c 1,-2.59 1.5,-8.81 1.5,-18.63 v -76 h -11.14 v -29 h 68.22 v 29 h -10.34 V 1276 q 0,19.7 -1.06,27.78 a 35.44,35.44 0 0 1 -6,15.52 32.15,32.15 0 0 1 -13.2,11.19 q -8.06,3.73 -22.43,3.73 a 118.17,118.17 0 0 1 -17.82,-1.51 z"
       class="cls-1"
       inkscape:connector-curvature="0"
       style="fill:#ffffff" />
    <path
       transform="translate(5483.73,2249.74)"
       id="path1010"
       d="m -3791,1236.24 a 62.46,62.46 0 0 1 7.37,-29.27 q 7.28,-14.05 22.68,-23.71 a 56.06,56.06 0 0 1 11.25,-5.37 73.74,73.74 0 0 1 12.57,-3.07 89.21,89.21 0 0 1 14.25,-1.09 q 32.5,0 50.32,19 a 67.58,67.58 0 0 1 13.39,20.32 60.39,60.39 0 0 1 4.49,23.19 q 0,25.26 -18.41,43.93 -18.41,18.67 -49.79,18.67 -30.35,0 -49.2,-17.52 -18.85,-17.52 -18.92,-45.08 z m 52.46,0 q 0,20.15 3.91,27.18 a 12.43,12.43 0 0 0 11.75,7.14 12.74,12.74 0 0 0 11.81,-6.86 q 3.9,-7 3.92,-27.46 0,-19.92 -3.83,-27.12 a 12.54,12.54 0 0 0 -11.9,-7.14 12.72,12.72 0 0 0 -11.75,6.87 q -3.83,6.87 -3.86,27.39 z"
       class="cls-1"
       inkscape:connector-curvature="0"
       style="fill:#ffffff" />
    <path
       transform="translate(5483.73,2249.74)"
       id="path1012"
       d="M -3581.29,1296.94 H -3645 v -28.89 h 9.13 v -63 h -9.3 v -28.9 h 63.83 v 28.87 h -7.66 v 18.38 h 27.8 v -18.38 h -7.82 v -28.82 h 63.72 v 28.9 h -9.11 v 63 h 9.11 v 28.89 h -63.72 V 1268 h 7.82 v -19.82 H -3589 V 1268 h 7.74 z"
       class="cls-1"
       inkscape:connector-curvature="0"
       style="fill:#ffffff" />
    <path
       transform="translate(5483.73,2249.74)"
       id="path1014"
       d="m -3442,1296.94 h -49.63 v -28.84 h 10.63 v -62.86 h -10.61 v -29 h 57.29 l 44,63 v -34 h -9.82 v -29 h 48.77 v 29 h -10.54 v 93.27 h -39.81 l -50.93,-73 V 1268 h 10.65 z"
       class="cls-1"
       inkscape:connector-curvature="0"
       style="fill:#ffffff" />
    <path
       transform="translate(5483.73,2249.74)"
       id="path1016"
       d="m -3338.88,1242.91 v -17 c 4.63,0 8.14,-0.7 10.59,-2.08 2.45,-1.38 3.93,-3.1 4.52,-5 0.59,-1.9 1,-5.59 1,-11 h -16.15 v -31.63 h 43.37 v 27 q 0,14.49 -1,19.89 c -0.68,3.65 -2.71,7.19 -6.06,10.6 a 26.23,26.23 0 0 1 -12.28,7.22 q -7.32,1.99 -23.99,2 z"
       class="cls-1"
       inkscape:connector-curvature="0"
       style="fill:#ffffff" />
    <path
       transform="translate(5483.73,2249.74)"
       id="path1018"
       d="m -3257.47,1296.94 h -27.17 v -38.74 h 27.17 q 4.87,15.74 18.32,15.75 9.72,0 9.72,-7.8 a 8.3,8.3 0 0 0 -3.38,-6.78 q -3.66,-3 -15.37,-8.18 -14.78,-6.68 -21.73,-11.55 a 37.5,37.5 0 0 1 -11.09,-12.24 32.79,32.79 0 0 1 -4.6,-17.11 q 0,-16.86 11,-26.31 c 7.24,-6.32 16.13,-9.47 26.74,-9.47 10.61,0 19.55,3 26.91,9.11 v -7.42 h 27.36 v 34.29 h -27 c -3.31,-9.48 -9.14,-14.21 -17.55,-14.21 -5.91,0 -8.86,2.51 -8.86,7.55 a 6.27,6.27 0 0 0 2.53,5.48 c 1.62,1.27 6.84,4.08 15.72,8.41 q 17.8,8.87 23.78,13 a 32.26,32.26 0 0 1 6.22,5.6 41.57,41.57 0 0 1 5.25,7.43 37.18,37.18 0 0 1 4.77,18.41 33.82,33.82 0 0 1 -11.28,25.7 q -11.3,10.69 -28.48,10.69 a 48,48 0 0 1 -28.92,-9.42 z"
       class="cls-1"
       inkscape:connector-curvature="0"
       style="fill:#ffffff" />
  </g>
  <g
     inkscape:groupmode="layer"
     id="layer2"
     inkscape:label="Main">
    <text
       xml:space="preserve"
       style="font-style:normal;font-variant:normal;font-weight:normal;font-stretch:normal;font-size:40.32235336px;line-height:3.80998611px;font-family:Consolas;-inkscape-font-specification:Consolas;letter-spacing:0px;word-spacing:0px;fill:#000000;fill-opacity:1;stroke:none;stroke-width:1.00805879"
       x="904.91693"
       y="3331.429"
       id="text4817"
       transform="scale(1.0080588,0.99200562)"><tspan
         sodipodi:role="line"
         id="tspan4815"
         x="904.91693"
         y="3331.429"
         style="font-style:normal;font-variant:normal;font-weight:normal;font-stretch:normal;font-size:174.73019409px;font-family:'Rockwell Extra Bold';-inkscape-font-specification:'Rockwell Extra Bold, ';fill:#ffffff;fill-opacity:1;stroke-width:1.00805879">WEXFORD</tspan><tspan
         sodipodi:role="line"
         x="904.91693"
         y="3335.239"
         style="font-size:174.73019409px;stroke-width:1.00805879"
         id="tspan4819" /></text>
    <text
       xml:space="preserve"
       style="font-style:normal;font-variant:normal;font-weight:normal;font-stretch:normal;font-size:40px;line-height:3.77952766px;font-family:Consolas;-inkscape-font-specification:Consolas;letter-spacing:0px;word-spacing:0px;fill:#000000;fill-opacity:1;stroke:none"
       x="884.71436"
       y="3463.4919"
       id="text4829"><tspan
         sodipodi:role="line"
         id="tspan4827"
         x="884.71436"
         y="3463.4919"
         style="font-style:normal;font-variant:normal;font-weight:normal;font-stretch:normal;font-size:133.33332825px;font-family:'Rockwell Extra Bold';-inkscape-font-specification:'Rockwell Extra Bold, ';fill:#ffffff;fill-opacity:1">(724) 935-9100</tspan></text>
  </g>
</svg>
