<?xml version="1.0" encoding="UTF-8" standalone="no"?>
<svg
   xmlns:dc="http://purl.org/dc/elements/1.1/"
   xmlns:cc="http://creativecommons.org/ns#"
   xmlns:rdf="http://www.w3.org/1999/02/22-rdf-syntax-ns#"
   xmlns:svg="http://www.w3.org/2000/svg"
   xmlns="http://www.w3.org/2000/svg"
   xmlns:sodipodi="http://sodipodi.sourceforge.net/DTD/sodipodi-0.dtd"
   xmlns:inkscape="http://www.inkscape.org/namespaces/inkscape"
   id="Layer_1"
   data-name="Layer 1"
   viewBox="0 0 2901.46 3571.3564"
   version="1.1"
   sodipodi:docname="Jimmy Johns - White.svg"
   inkscape:version="0.92.2 (5c3e80d, 2017-08-06)"
   width="362.6825"
   height="446.41956">
  <metadata
     id="metadata1023">
    <rdf:RDF>
      <cc:Work
         rdf:about="">
        <dc:format>image/svg+xml</dc:format>
        <dc:type
           rdf:resource="http://purl.org/dc/dcmitype/StillImage" />
        <dc:title>jimmy johns circle logo</dc:title>
      </cc:Work>
    </rdf:RDF>
  </metadata>
  <sodipodi:namedview
     pagecolor="#ffffff"
     bordercolor="#666666"
     borderopacity="1"
     objecttolerance="10"
     gridtolerance="10"
     guidetolerance="10"
     inkscape:pageopacity="0"
     inkscape:pageshadow="2"
     inkscape:window-width="2048"
     inkscape:window-height="1073"
     id="namedview1021"
     showgrid="false"
     inkscape:zoom="2"
     inkscape:cx="134.12265"
     inkscape:cy="174.78473"
     inkscape:window-x="-9"
     inkscape:window-y="-9"
     inkscape:window-maximized="1"
     inkscape:current-layer="g2144"
     inkscape:pagecheckerboard="true"
     fit-margin-top="0"
     fit-margin-left="0"
     fit-margin-right="0"
     fit-margin-bottom="0" />
  <defs
     id="defs922">
    <style
       id="style920">.cls-1{fill:#fff;}.cls-2{fill:#e31837;}</style>
  </defs>
  <title
     id="title924">jimmy johns circle logo</title>
  <g
     inkscape:groupmode="layer"
     id="layer2"
     inkscape:label="Main"
     transform="translate(-5e-4)" />
  <g
     id="g2144"
     transform="translate(-1445.27,-1321.6782)">
    <path
       style="stroke-width:0.125;fill:#ffffff;fill-opacity:1"
       d="M 181.3418 0 C 81.186701 0 0 81.200451 0 181.3418 C 0 281.48305 81.192049 362.68555 181.3457 362.68555 C 281.49945 362.68555 362.68164 281.48555 362.68164 181.3418 C 362.68164 81.191701 281.4968 0 181.3418 0 z M 181.3418 15.011719 L 181.3457 15.013672 C 273.20945 15.013672 347.66211 89.484201 347.66211 181.3418 C 347.66211 264.19555 287.09078 332.89711 207.80078 345.56836 C 207.47745 343.30753 207.15677 341.0443 206.83594 338.7793 C 282.78719 326.57805 340.80859 260.72805 340.80859 181.3418 C 340.80859 93.271701 269.4207 21.873047 181.3457 21.873047 C 93.270799 21.873047 21.876953 93.272951 21.876953 181.3418 C 21.876953 260.7268 79.894549 326.57664 155.8457 338.77539 C 155.52237 341.03622 155.19974 343.29945 154.87891 345.56445 C 75.592528 332.88945 15.011719 264.19055 15.011719 181.3418 C 15.011719 89.484201 89.477951 15.011719 181.3418 15.011719 z M 163.98438 38.523438 L 165.60156 45.533203 L 163.75195 45.955078 L 158.87695 58.173828 L 159.94531 62.814453 L 162.27148 62.283203 L 163.88086 69.287109 L 147.93359 72.960938 L 146.31836 65.957031 L 148.63672 65.421875 L 147.56641 60.78125 L 137.78906 51.943359 L 135.81445 52.398438 L 134.19531 45.394531 L 149.45703 41.867188 L 151.07031 48.880859 L 149.35156 49.273438 L 153.76953 54.501953 L 156.14062 47.712891 L 154.37695 48.119141 L 152.76172 41.109375 L 163.98438 38.523438 z M 193.42578 38.5625 L 210.1543 40.949219 L 209.14258 48.068359 L 206.60547 47.705078 L 203.76172 67.619141 C 203.04797 72.644141 202.17039 75.014844 199.77539 76.808594 C 197.42664 78.576094 195.21891 78.789297 191.62891 78.279297 C 189.80766 78.021797 189.03172 77.814219 187.23047 77.292969 L 188.27539 70.001953 A 5.3325 5.3325 0 0 0 189.51562 70.353516 C 191.30312 70.612266 191.7493 69.688125 192.24805 66.203125 L 195.11328 46.064453 L 192.40625 45.675781 L 193.42578 38.5625 z M 229.80469 47.375 C 232.12074 47.37418 234.64633 47.869453 237.33789 49.009766 C 248.10414 53.571016 249.57883 63.387734 246.83008 69.896484 C 244.08133 76.405234 235.9932 82.171719 225.2207 77.605469 C 214.4482 73.039219 212.96031 63.213203 215.72656 56.720703 C 217.78625 51.841016 222.85652 47.377461 229.80469 47.375 z M 122.31445 49.099609 L 126.23047 55.119141 L 124.26953 56.400391 L 132.75781 69.455078 L 134.71289 68.185547 L 138.62695 74.212891 L 125.61328 82.671875 L 121.68945 76.644531 L 123.65039 75.373047 L 114.58594 61.421875 L 114.51172 61.470703 L 120.01758 86.300781 L 116.25195 88.748047 L 95.876953 73.591797 L 95.796875 73.636719 L 104.85547 87.582031 L 106.82031 86.304688 L 110.73438 92.333984 L 100.97656 98.683594 L 97.052734 92.650391 L 99.015625 91.380859 L 90.529297 78.322266 L 88.572266 79.601562 L 84.644531 73.564453 L 99.78125 63.732422 L 109.78125 71.023438 L 107.28906 58.855469 L 122.31445 49.099609 z M 233.06641 55.148438 C 230.99491 55.226511 229.48359 57.600391 227.70117 61.794922 C 225.51867 66.954922 225.02867 69.893125 227.95117 71.140625 C 230.87367 72.388125 232.66836 69.972109 234.84961 64.818359 C 237.03086 59.664609 237.52211 56.705547 234.59961 55.466797 C 234.05164 55.234531 233.54444 55.130415 233.06641 55.148438 z M 264.06836 63.357422 L 275.81445 73.916016 L 271.01172 79.271484 L 269.5957 78 L 266.52734 81.412109 L 271.68164 86.039062 L 274.74414 82.632812 L 273.33594 81.361328 L 278.14453 76.019531 L 289.88086 86.574219 L 285.07812 91.925781 L 283.36328 90.390625 L 272.95703 101.96875 L 274.6582 103.50391 L 269.85938 108.84961 L 258.11719 98.287109 L 262.91602 92.933594 L 264.32617 94.203125 L 267.60547 90.568359 L 262.44922 85.933594 L 259.17773 89.574219 L 260.5918 90.847656 L 255.7832 96.191406 L 244.03906 85.628906 L 248.8457 80.283203 L 250.56055 81.820312 L 260.9668 70.242188 L 259.26172 68.710938 L 264.06836 63.357422 z M 73.957031 84.208984 L 79.976562 88.158203 L 78.693359 90.109375 L 91.716797 98.650391 L 92.992188 96.695312 L 99.011719 100.63867 L 90.496094 113.63086 L 84.480469 109.67969 L 85.757812 107.72461 L 71.851562 98.601562 L 71.810547 98.673828 L 86.841797 119.18945 L 84.382812 122.95703 L 59.613281 117.27539 L 59.570312 117.34766 L 73.484375 126.46289 L 74.761719 124.50977 L 80.777344 128.44922 L 74.392578 138.19336 L 68.373047 134.24805 L 69.658203 132.29688 L 56.630859 123.75781 L 55.355469 125.71094 L 49.333984 121.77539 L 59.234375 106.68555 L 71.310547 109.33203 L 64.136719 99.195312 L 73.957031 84.208984 z M 297.78711 96.443359 L 304.71094 108.8418 L 296.36914 125.99805 L 296.4082 126.07031 L 303.79297 121.9375 L 302.57031 119.73828 L 308.85156 116.24023 L 314.74805 126.78711 L 308.47461 130.29297 L 307.19531 128.02344 L 286.9082 139.36719 L 282.08203 130.74219 L 291.85352 110.88086 L 291.81445 110.80273 L 282.60156 115.94336 L 283.91797 118.29297 L 277.64062 121.80273 L 271.64453 111.06445 L 277.91797 107.55664 L 279.19531 109.86328 L 292.80078 102.26172 L 291.50586 99.951172 L 297.78711 96.443359 z M 113.98047 113.81836 L 179.3418 113.82422 L 179.3418 144.81055 L 170.2793 144.81055 L 170.2793 213.31055 C 170.2793 230.5543 168.7018 240.88109 160.0918 249.49609 C 151.6968 257.87359 142.82227 259.51953 130.32227 259.51953 C 123.52102 259.51953 120.60273 259.18305 113.99023 258.24805 L 111.62305 257.91211 L 111.62305 225.88086 L 115.04492 226.74805 C 116.56367 227.1218 117.75867 227.29492 118.91992 227.29492 C 122.27992 227.29492 123.66992 227.29477 123.66992 214.10352 L 123.66992 144.80469 L 113.98047 144.80469 L 113.98047 113.81836 z M 187.9082 113.81836 L 253.27539 113.82422 L 253.27539 144.81055 L 244.21289 144.81055 L 244.21289 213.31055 C 244.21289 230.5543 242.63539 240.88109 234.02539 249.49609 C 225.64164 257.87359 216.75945 259.51953 204.25195 259.51953 C 197.4557 259.51953 194.53453 259.18305 187.92578 258.24805 L 185.56055 257.91211 L 185.56055 225.88086 L 188.99219 226.74805 C 190.47094 227.11555 191.69695 227.29492 192.8457 227.29492 C 196.21195 227.29492 197.60547 227.29477 197.60547 214.10352 L 197.60547 144.80469 L 187.9082 144.80469 L 187.9082 113.81836 z M 316.38477 133.77344 L 319.56641 144.01562 L 310.42188 146.84766 C 306.07813 148.19016 302.70917 145.81406 301.10938 140.63281 A 18.265 18.265 0 0 1 300.58789 138.66992 L 304.63477 137.41797 C 305.57352 140.45547 306.85555 141.02391 310.0918 139.97266 L 308.89258 136.09766 L 316.38477 133.77344 z M 46.021484 134.09961 L 52.941406 136.05078 L 52.183594 138.73047 L 67.171875 142.9668 L 67.931641 140.28711 L 74.84375 142.24219 L 70.177734 158.75195 L 63.255859 156.80078 L 64.005859 154.12109 L 49.029297 149.89844 L 48.275391 152.57031 L 41.355469 150.61133 L 46.021484 134.09961 z M 314.11914 151.48047 C 318.89118 151.28498 322.48281 154.50586 323.18359 159.70898 C 323.52859 162.24773 323.03148 164.67117 321.83398 166.60742 L 323.66406 166.36719 L 324.56445 173.06055 L 316.11328 174.17383 L 315.23828 167.49219 L 315.60156 167.30469 C 317.60156 166.14969 318.42336 164.70293 318.16211 162.73438 C 317.98461 161.38313 317.17211 160.63656 316.03711 160.78906 A 2 2 0 0 0 314.79688 161.48828 C 313.62688 163.03703 312.72406 169.68797 309.72656 173.60547 C 308.74656 174.88672 306.53008 176.65781 303.64258 177.03906 C 298.52758 177.71656 294.0768 174.03918 293.3418 168.48438 A 12.46625 12.46625 0 0 1 294.75977 161.0332 L 292.79297 161.30664 L 291.89844 154.61133 L 301.41797 153.3418 L 302.31055 160.03125 C 299.7168 161.315 298.71719 162.86781 299.02344 165.10156 C 299.20969 166.53781 300.08086 167.36273 301.25586 167.20898 C 301.82336 167.13148 302.24453 166.89891 302.73828 166.25391 C 304.40578 164.07891 304.53914 158.70906 307.30664 155.10156 C 308.93164 152.97656 310.79289 151.8757 313.15039 151.56445 C 313.47852 151.52063 313.801 151.4935 314.11914 151.48047 z M 39.699219 159.56445 L 46.851562 160.2207 L 46.625 162.77148 L 66.650391 164.61719 C 71.704141 165.08219 74.117891 165.83656 76.025391 168.13281 C 77.900391 170.39531 78.225391 172.59156 77.900391 176.19531 C 77.726641 178.04656 77.573125 178.81953 77.140625 180.64453 L 69.804688 179.9668 A 5.17375 5.17375 0 0 0 70.09375 178.7168 C 70.265 176.91055 69.320908 176.51445 65.804688 176.18945 L 45.554688 174.32031 L 45.304688 177.04688 L 38.144531 176.38477 L 39.699219 159.56445 z M 321.73828 177.15625 A 3.86 3.86 0 0 1 321.74023 177.15625 A 3.86 3.86 0 0 1 325.51172 180.72461 A 3.875 3.875 0 0 1 321.95508 184.89453 A 3.875 3.875 0 0 1 317.79297 181.33594 A 3.855 3.855 0 0 1 321.35352 177.16797 A 3.86 3.86 0 0 1 321.73828 177.15625 z M 321.66992 177.91406 A 3.08375 3.08375 0 0 0 321.41406 177.92383 A 3.125 3.125 0 0 0 318.54492 181.27344 A 3.11625 3.11625 0 0 0 321.89844 184.12305 A 3.0725 3.0725 0 0 0 324.74023 180.78711 A 3.08375 3.08375 0 0 0 321.66992 177.91406 z M 323.55078 179.12891 L 323.70312 181.13672 C 323.77562 182.08547 323.24016 182.4907 322.66016 182.5332 C 322.02391 182.5845 321.55766 182.19672 321.41016 181.51172 L 321.39453 181.51172 C 321.28078 181.98797 321.01125 182.12547 319.71875 183.01172 L 319.64844 181.98047 C 320.31844 181.58172 320.74602 181.32547 321.04102 180.98047 C 321.23477 180.75797 321.23562 180.64719 321.20312 180.30469 L 321.20312 180.15039 L 319.51562 180.27539 L 319.43945 179.44531 L 323.55078 179.12891 z M 322.9668 180.00781 L 321.8418 180.10156 L 321.90625 180.83398 C 321.94495 181.30398 322.10875 181.69922 322.53125 181.66797 C 322.885 181.64177 323.07125 181.34781 323.03125 180.75781 L 322.9668 180.00781 z M 308.56445 196.11914 L 312.31055 205.7207 L 322.64844 205.11914 L 314.64844 211.6582 L 318.4043 221.29883 L 309.69531 215.69922 L 301.72266 222.21289 L 304.33203 212.26758 L 295.67188 206.68164 L 305.95117 206.08203 L 308.56445 196.11914 z M 54.507812 198.18945 L 57.275391 208.0918 L 67.570312 208.53906 L 59.001953 214.25 L 61.775391 224.16602 L 53.691406 217.76953 L 45.078125 223.51172 L 48.679688 213.82812 L 40.570312 207.40039 L 50.912109 207.83594 L 54.507812 198.18945 z M 286.44141 237.01758 L 292.73242 240.89258 L 290.5918 244.37891 C 288.5268 243.48516 286.6682 243.90078 285.68945 245.48828 C 284.95445 246.67953 285.13117 247.96531 286.10742 248.57031 C 289.46867 250.64031 294.59969 240.61156 301.92969 245.13281 C 306.87719 248.18531 305.74297 252.75829 304.38672 254.95312 C 303.26172 256.78562 301.7168 257.77578 299.81055 257.86328 L 299.77148 257.92578 L 301.51172 258.99805 L 299.3418 262.50977 L 292.28516 258.1582 L 294.45312 254.64844 C 296.64562 256.08594 299.05672 255.59086 300.16797 253.78711 C 300.93922 252.53711 300.60086 250.89805 299.34961 250.12305 C 295.56336 247.7893 290.4132 257.29836 283.9082 253.28711 C 279.87695 250.79961 280.12453 246.77664 281.70703 244.21289 C 282.70703 242.59664 284.15289 241.67773 285.96289 241.61523 L 286.00391 241.55273 L 284.29297 240.49805 L 286.44141 237.01758 z M 74.535156 239.56836 C 76.977812 239.49835 78.984382 240.97773 80.101562 242.72656 C 81.120312 244.32906 81.313125 246.03766 80.578125 247.69141 L 80.617188 247.75391 L 82.314453 246.67578 L 84.505859 250.12891 L 78.269531 254.0918 L 76.076172 250.63867 C 77.781172 249.17242 78.218203 247.3218 77.220703 245.74805 C 76.470703 244.56805 75.235625 244.16305 74.265625 244.7793 C 70.938125 246.89555 77.712969 255.88891 70.449219 260.50391 C 65.544219 263.62141 61.928672 260.60648 60.544922 258.42773 C 59.389922 256.61023 59.169531 254.79352 59.925781 253.04102 L 59.888672 252.97852 L 58.162109 254.07617 L 55.941406 250.5918 L 62.935547 246.15039 L 65.146484 249.63086 C 62.896484 250.97586 62.290781 253.36078 63.425781 255.14453 C 64.214531 256.38703 65.835625 256.80117 67.078125 256.01367 C 70.828125 253.62742 64.52657 244.84289 70.976562 240.74414 C 72.224609 239.95078 73.424858 239.60018 74.535156 239.56836 z M 275.80469 253.86523 L 281.44531 259.11719 L 278.29492 262.50195 L 275.67188 260.06055 L 270.51758 265.5957 L 274.61133 269.40625 L 278.76367 264.94336 L 281.78125 267.75195 L 277.62891 272.21289 L 282.30078 276.56055 L 287.45117 271.02344 L 284.80273 268.55664 L 287.95312 265.17383 L 293.62109 270.44727 L 279.04102 286.10938 L 276.02344 283.30273 L 277.97656 281.20312 L 266.19531 270.24023 L 264.24414 272.33789 L 261.22461 269.53125 L 275.80469 253.86523 z M 89.148438 256.24414 L 100.04297 267.82812 L 97.037109 270.6543 L 94.800781 268.2793 L 86.550781 283.03906 L 88.519531 285.13281 L 85.505859 287.95703 L 77.386719 279.33203 L 80.394531 276.5 L 82.484375 278.7168 L 84.734375 275.02734 L 80.40625 270.42773 L 76.466797 272.3125 L 78.703125 274.6875 L 75.697266 277.51953 L 68.269531 269.62109 L 71.275391 266.78906 L 73.365234 269.01367 L 88.376953 261.44531 L 86.138672 259.07031 L 89.148438 256.24414 z M 90.617188 265.30664 L 83.755859 268.75195 L 86.658203 271.8418 L 90.666016 265.35742 L 90.617188 265.30664 z M 103.5293 271.64062 L 111.96484 277.35352 L 110.82812 294.95508 L 110.88672 294.99805 L 117.10547 285.82031 L 114.48828 284.05078 L 116.80469 280.63672 L 125.86133 286.77148 L 123.54688 290.18555 L 120.69531 288.25586 L 109.3457 305.00195 L 104.83398 301.94336 L 106.26367 281.29102 L 106.20312 281.25195 L 98.476562 292.6543 L 101.00195 294.36523 L 98.6875 297.7793 L 89.869141 291.80469 L 92.181641 288.38672 L 94.882812 290.2207 L 103.91797 276.88672 L 101.2168 275.05664 L 103.5293 271.64062 z M 258.24219 272.30664 L 260.55078 275.72852 L 258.16992 277.33398 L 267.18555 290.68945 L 269.56445 289.08008 L 271.87305 292.50195 L 262.17969 299.04492 L 259.86914 295.62695 L 261.91992 294.24023 L 258.20703 288.74023 L 252.70312 292.45312 L 256.41992 297.95508 L 258.4707 296.56836 L 260.7793 299.98828 L 251.08594 306.53711 L 248.77539 303.11523 L 251.1543 301.50977 L 242.14062 288.1543 L 239.76172 289.76172 L 237.45312 286.3418 L 247.14844 279.79688 L 249.45703 283.2168 L 247.40234 284.60156 L 250.39453 289.03125 L 255.89844 285.31836 L 252.9043 280.88867 L 250.85547 282.27344 L 248.54688 278.85352 L 258.24219 272.30664 z M 233.35938 288.3418 L 236.31641 296.39258 L 232.44141 297.81445 C 231.65266 296.9182 230.47539 295.89945 229.65039 295.62695 C 227.57664 294.97445 226.63539 295.01555 225.15039 295.56055 C 221.04039 297.0693 219.48242 301.15609 221.20117 305.83984 C 222.83492 310.28484 226.58701 312.38578 230.39062 310.98828 C 233.55937 309.82578 235.11406 306.77195 234.57031 302.68945 L 239.87305 303.18945 C 240.4518 309.97195 235.99828 313.66992 231.48828 315.32617 C 221.71953 318.91492 216.60414 313.10734 214.77539 308.12109 C 212.21539 301.13984 215.34102 294.53141 222.47852 291.91016 C 225.27227 290.88391 227.70951 290.75227 230.14062 291.54102 L 229.48438 289.75781 L 233.35938 288.3418 z M 129.06641 288.35156 L 141.06641 292.61719 C 145.22516 294.09469 147.82198 295.89219 149.32812 299.05469 C 150.80937 302.16969 150.73289 305.49448 149.61914 308.64062 C 147.50289 314.59187 141.86961 318.76406 134.56836 316.16406 L 120.9043 311.31445 L 122.28906 307.42578 L 125.77344 308.66211 L 131.16797 293.47852 L 127.68555 292.24219 L 129.06641 288.35156 z M 137.1543 295.60742 L 131.75781 310.79102 L 134.02539 311.5918 C 138.59289 313.2168 141.76617 311.0268 143.38867 306.4668 C 145.13867 301.52805 143.6818 297.92555 139.2168 296.3418 L 137.1543 295.60742 z M 207.68945 296.88086 L 208.36133 300.95117 L 204.71289 301.55469 L 207.33984 317.45312 L 210.98828 316.85156 L 211.66016 320.92578 L 198.09961 323.16602 L 197.42383 319.09375 L 201.07031 318.48828 L 198.44531 302.58984 L 194.79688 303.19141 L 194.125 299.12109 L 207.68945 296.88086 z M 154.70508 297.97656 L 165.61523 298.77539 L 165.31445 302.89062 L 162.8457 302.71094 L 165.89258 314.6543 L 165.96289 314.66016 L 170.50195 303.26953 L 168.2832 303.10547 L 168.58594 298.99414 L 177.31055 299.63086 L 177.00781 303.74414 L 174.75781 303.58008 L 177.83984 315.52734 L 177.91211 315.5332 L 182.5918 304.1543 L 180.08594 303.96875 L 180.38672 299.85547 L 190.1875 300.57422 L 189.88672 304.68555 L 187.24023 304.49414 L 178.95508 324.3457 L 174.55469 324.02539 L 171.50391 312.6543 L 171.43164 312.65039 L 166.97461 323.4707 L 162.50195 323.14453 L 156.98047 302.28125 L 154.4043 302.0918 L 154.70508 297.97656 z M 202.83203 339.07812 L 203.0957 341.11719 L 203.01953 343.97656 L 202.23047 344.07812 L 201.42969 341.32812 L 201.16602 339.29102 L 202.83203 339.07812 z M 159.97852 339.12695 L 166.75586 339.88672 L 166.41797 342.88477 L 165.12305 342.74023 L 165.31836 341.00586 L 164.19531 340.87891 L 163.64453 345.81055 L 164.76562 345.93555 L 164.62305 347.19922 L 160.43945 346.73047 L 160.58008 345.4668 L 161.69922 345.5918 L 162.25391 340.66211 L 161.13281 340.53711 L 160.93945 342.27148 L 159.64258 342.12695 L 159.97852 339.12695 z M 199.3418 339.55273 L 199.45312 340.81836 L 198.51562 340.90039 L 196.82617 344 L 197.00391 346.01367 L 198.06055 345.92188 L 198.17188 347.18555 L 194.16406 347.53906 L 194.05469 346.27344 L 195.10938 346.18164 L 194.93164 344.16602 L 192.61719 341.41992 L 191.68164 341.50195 L 191.57031 340.23633 L 195.24609 339.91211 L 195.35938 341.17969 L 194.67578 341.23828 L 195.9707 342.9668 L 196.89844 341.04297 L 196.25 341.09961 L 196.13672 339.83398 L 199.3418 339.55273 z M 168.87891 340.04688 L 173.76172 340.34961 L 173.68555 341.61719 L 172.68555 341.55469 L 173.94336 346.59961 L 174.82617 346.6543 L 174.74414 347.92969 L 171.10547 347.70508 L 171.18555 346.4375 L 172.12305 346.49414 L 171.84961 345.19531 L 169.9082 345.07031 L 169.42188 346.32031 L 170.42188 346.38086 L 170.3418 347.65039 L 167.01172 347.44336 L 167.0918 346.17578 L 168.02734 346.23438 L 169.80078 341.37695 L 168.80078 341.31445 L 168.87891 340.04688 z M 190.10938 340.31445 L 190.20703 343.32812 L 188.9043 343.37109 L 188.84766 341.62695 L 187.7207 341.66406 L 187.88477 346.62109 L 189.01172 346.58594 L 189.05273 347.85547 L 184.8457 347.99219 L 184.80469 346.72266 L 185.92969 346.68555 L 185.76758 341.72852 L 184.64062 341.76562 L 184.69922 343.50977 L 183.39453 343.55273 L 183.29688 340.53906 L 190.10938 340.31445 z M 178.56836 340.40625 A 1.5625 1.5625 0 0 1 179.92969 341.12305 L 179.95117 341.12305 L 179.96094 340.50586 L 181.2207 340.52539 L 181.18555 342.80078 L 179.92578 342.7793 C 179.83698 342.09305 179.43508 341.6668 178.86133 341.6543 C 178.43008 341.6473 178.11133 341.8975 178.11133 342.25 C 178.09133 343.46625 181.55422 343.25023 181.51172 345.89648 C 181.48292 347.68648 180.09703 348.105 179.30078 348.09375 C 178.63828 348.0825 178.13234 347.83125 177.80859 347.34375 L 177.78711 347.34375 L 177.77539 347.96875 L 176.50586 347.94922 L 176.54688 345.4043 L 177.81836 345.42578 C 177.78336 346.23203 178.29336 346.79328 178.94336 346.80078 A 0.81625 0.81625 0 0 0 179.7832 346.00586 C 179.8057 344.63086 176.4769 344.77172 176.51562 342.41797 C 176.53942 340.96047 177.63961 340.39125 178.56836 340.40625 z M 171.11914 341.77539 L 170.30664 343.99414 L 171.60742 344.07422 L 171.14062 341.77539 L 171.11914 341.77539 z M 203.62891 344.71289 L 203.86133 346.50977 L 202.06445 346.74219 L 201.83203 344.94531 L 203.62891 344.71289 z "
       transform="matrix(8,0,0,8,1445.27,1321.6782)"
       id="path926" />
    <path
       style="fill:#ffffff;stroke-width:1;fill-opacity:1"
       inkscape:connector-curvature="0"
       id="path932"
       d="m 2763.5,2436.0182 h 72.5 v -159.75 h -434.83 v 159.75 h 77.5 v 598.48 c 0,93.09 -5.52,149.58 -82,149.58 -4.65,0 -9.47,-0.5704 -14.29,-1 v 163.56 c 38.11,5.16 61,7.18 105.53,7.18 104.44,0 156.66,-17 207,-67.32 52.56,-52.56 68.59,-112.92 68.59,-258.31 z"
       class="cls-2" />
    <path
       style="fill:#ffffff;stroke-width:1;fill-opacity:1"
       inkscape:connector-curvature="0"
       id="path936"
       d="m 3354.92,2436.0182 h 72.53 v -159.75 h -434.88 v 159.75 h 77.61 v 598.48 c 0,93.09 -5.53,149.58 -82.15,149.58 -4.59,0 -9.4,-0.5704 -14.2,-1 v 163.56 c 38.09,5.16 60.92,7.18 105.45,7.18 104.48,0 156.73,-17 207,-67.32 52.56,-52.56 68.59,-112.92 68.59,-258.31 z"
       class="cls-2" />
    <path
       id="path998"
       d="m 2191.5583,4460.1282 v -29.57 a 21.14,21.14 0 0 0 5.11,0.7 q 5.56,0 7.13,-3.94 1.57,-3.94 1.47,-18.63 v -76 h -11.1 v -29 h 68.2 v 29 h -10.34 v 70.73 q 0,19.7 -1,27.78 a 35.82,35.82 0 0 1 -6,15.52 32.33,32.33 0 0 1 -13.21,11.19 q -8.09,3.73 -22.41,3.73 a 117.93,117.93 0 0 1 -17.85,-1.51 z"
       class="cls-1"
       inkscape:connector-curvature="0"
       style="fill:#ffffff" />
    <path
       id="path1000"
       d="m 2342.9383,4424.3582 h -68.86 v -28.89 h 11.09 v -63 h -11.11 v -28.9 h 68.86 v 28.9 h -11 v 63 h 11 z"
       class="cls-1"
       inkscape:connector-curvature="0"
       style="fill:#ffffff" />
    <path
       id="path1002"
       d="m 2403.7183,4424.3582 h -46.84 v -28.84 h 9.31 v -62.86 h -9.56 v -29 h 72.91 l 17.81,46.63 18.25,-46.63 h 72.49 v 29 h -9.48 v 62.86 h 9.74 v 28.84 h -63.1 v -28.86 h 9.65 v -63.15 l -36.5,92 h -18.08 l -36.15,-91.13 v 62.28 h 9.55 z"
       class="cls-1"
       inkscape:connector-curvature="0"
       style="fill:#ffffff" />
    <path
       id="path1004"
       d="m 2600.0683,4424.3582 h -46.9 v -28.84 h 9.3 v -62.86 h -9.56 v -29 h 72.92 l 17.81,46.63 18.24,-46.63 h 72.49 v 29 h -9.48 v 62.86 h 9.74 v 28.84 h -63.09 v -28.86 h 9.65 v -63.15 l -36.5,92 h -18.08 l -36.16,-91.14 v 62.28 h 9.58 z"
       class="cls-1"
       inkscape:connector-curvature="0"
       style="fill:#ffffff" />
    <path
       id="path1006"
       d="m 2840.1683,4424.3582 h -66 v -28.89 h 9.74 v -19.18 l -30.49,-43.77 h -8.25 v -28.9 h 63.18 v 28.92 h -7.21 l 12.86,24.66 15.57,-24.66 h -7.4 v -28.92 h 46.47 v 28.9 h -7.54 l -30.42,43.77 v 19.18 h 9.56 z"
       class="cls-1"
       inkscape:connector-curvature="0"
       style="fill:#ffffff" />
    <path
       id="path1008"
       d="m 2920.3183,4460.1282 v -29.57 a 21.43,21.43 0 0 0 5.15,0.7 q 5.53,0 7.12,-3.94 c 1,-2.59 1.5,-8.81 1.5,-18.63 v -76 h -11.14 v -29 h 68.22 v 29 h -10.34 v 70.73 q 0,19.7 -1.06,27.78 a 35.44,35.44 0 0 1 -6,15.52 32.15,32.15 0 0 1 -13.2,11.19 q -8.06,3.73 -22.43,3.73 a 118.17,118.17 0 0 1 -17.82,-1.51 z"
       class="cls-1"
       inkscape:connector-curvature="0"
       style="fill:#ffffff" />
    <path
       id="path1010"
       d="m 2998.1683,4363.6582 a 62.46,62.46 0 0 1 7.37,-29.27 q 7.28,-14.05 22.68,-23.71 a 56.06,56.06 0 0 1 11.25,-5.37 73.74,73.74 0 0 1 12.57,-3.07 89.21,89.21 0 0 1 14.25,-1.09 q 32.5,0 50.32,19 a 67.58,67.58 0 0 1 13.39,20.32 60.39,60.39 0 0 1 4.49,23.19 q 0,25.26 -18.41,43.93 -18.41,18.67 -49.79,18.67 -30.35,0 -49.2,-17.52 -18.85,-17.52 -18.92,-45.08 z m 52.46,0 q 0,20.15 3.91,27.18 a 12.43,12.43 0 0 0 11.75,7.14 12.74,12.74 0 0 0 11.81,-6.86 q 3.9,-7 3.92,-27.46 0,-19.92 -3.83,-27.12 a 12.54,12.54 0 0 0 -11.9,-7.14 12.72,12.72 0 0 0 -11.75,6.87 q -3.83,6.87 -3.86,27.39 z"
       class="cls-1"
       inkscape:connector-curvature="0"
       style="fill:#ffffff" />
    <path
       id="path1012"
       d="m 3207.8783,4424.3582 h -63.71 v -28.89 h 9.13 v -63 h -9.3 v -28.9 h 63.83 v 28.87 h -7.66 v 18.38 h 27.8 v -18.38 h -7.82 v -28.82 h 63.72 v 28.9 h -9.11 v 63 h 9.11 v 28.89 h -63.72 v -28.99 h 7.82 v -19.82 h -27.8 v 19.82 h 7.74 z"
       class="cls-1"
       inkscape:connector-curvature="0"
       style="fill:#ffffff" />
    <path
       id="path1014"
       d="m 3347.1683,4424.3582 h -49.63 v -28.84 h 10.63 v -62.86 h -10.61 v -29 h 57.29 l 44,63 v -34 h -9.82 v -29 h 48.77 v 29 h -10.54 v 93.27 h -39.81 l -50.93,-73 v 42.49 h 10.65 z"
       class="cls-1"
       inkscape:connector-curvature="0"
       style="fill:#ffffff" />
    <path
       id="path1016"
       d="m 3450.2883,4370.3282 v -17 c 4.63,0 8.14,-0.7 10.59,-2.08 2.45,-1.38 3.93,-3.1 4.52,-5 0.59,-1.9 1,-5.59 1,-11 h -16.15 v -31.63 h 43.37 v 27 q 0,14.49 -1,19.89 c -0.68,3.65 -2.71,7.19 -6.06,10.6 a 26.23,26.23 0 0 1 -12.28,7.22 q -7.32,1.99 -23.99,2 z"
       class="cls-1"
       inkscape:connector-curvature="0"
       style="fill:#ffffff" />
    <path
       id="path1018"
       d="m 3531.6983,4424.3582 h -27.17 v -38.74 h 27.17 q 4.87,15.74 18.32,15.75 9.72,0 9.72,-7.8 a 8.3,8.3 0 0 0 -3.38,-6.78 q -3.66,-3 -15.37,-8.18 -14.78,-6.68 -21.73,-11.55 a 37.5,37.5 0 0 1 -11.09,-12.24 32.79,32.79 0 0 1 -4.6,-17.11 q 0,-16.86 11,-26.31 c 7.24,-6.32 16.13,-9.47 26.74,-9.47 10.61,0 19.55,3 26.91,9.11 v -7.42 h 27.36 v 34.29 h -27 c -3.31,-9.48 -9.14,-14.21 -17.55,-14.21 -5.91,0 -8.86,2.51 -8.86,7.55 a 6.27,6.27 0 0 0 2.53,5.48 c 1.62,1.27 6.84,4.08 15.72,8.41 q 17.8,8.87 23.78,13 a 32.26,32.26 0 0 1 6.22,5.6 41.57,41.57 0 0 1 5.25,7.43 37.18,37.18 0 0 1 4.77,18.41 33.82,33.82 0 0 1 -11.28,25.7 q -11.3,10.69 -28.48,10.69 a 48,48 0 0 1 -28.92,-9.42 z"
       class="cls-1"
       inkscape:connector-curvature="0"
       style="fill:#ffffff" />
    <path
       d="m 2438.5822,4667.2854 h -37.6702 l -33.714,-90.5599 h -8.2564 v -28.1837 h 62.0096 v 28.1837 h -8.9445 l 14.1048,50.6966 17.889,-50.6966 h -8.8585 v -28.1837 h 52.1191 v 28.1837 h -8.8586 l 18.1471,50.6966 14.2769,-50.6966 h -8.6006 v -28.1837 h 48.2489 v 28.1837 h -8.2565 l -34.058,90.5599 h -37.1542 l -16.1689,-45.3646 z"
       style="font-style:normal;font-variant:normal;font-weight:normal;font-stretch:normal;font-size:174.73019409px;line-height:3.80998611px;font-family:'Rockwell Extra Bold';-inkscape-font-specification:'Rockwell Extra Bold, ';letter-spacing:0px;word-spacing:0px;fill:#ffffff;fill-opacity:1;stroke:none;stroke-width:1.00805879"
       id="path962"
       inkscape:connector-curvature="0" />
    <path
       d="m 2673.9781,4666.2698 h -114.1287 v -28.1837 h 9.2884 v -61.3606 h -9.4605 v -28.1837 h 114.3008 v 37.6628 h -31.3919 v -9.4791 h -27.1776 v 18.1119 h 23.6514 v 23.9519 h -23.6514 v 19.2968 h 27.1776 v -9.4791 h 31.3919 z"
       style="font-style:normal;font-variant:normal;font-weight:normal;font-stretch:normal;font-size:174.73019409px;line-height:3.80998611px;font-family:'Rockwell Extra Bold';-inkscape-font-specification:'Rockwell Extra Bold, ';letter-spacing:0px;word-spacing:0px;fill:#ffffff;fill-opacity:1;stroke:none;stroke-width:1.00805879"
       id="path965"
       inkscape:connector-curvature="0" />
    <path
       d="m 2757.8329,4666.2698 h -69.3201 v -28.1837 h 13.4168 l 39.2183,-30.1302 -39.2183,-31.2304 h -12.7288 v -28.1837 h 79.6407 v 24.7983 h -11.9546 l 20.1251,17.2656 17.8031,-17.2656 h -10.3206 v -24.7983 h 66.3959 v 28.1837 h -17.8891 l -32.2519,26.5755 42.7445,34.7851 h 11.9547 v 28.1837 h -80.5007 v -24.7983 h 12.5567 l -22.1033,-19.6353 -20.2971,19.6353 h 12.7287 z"
       style="font-style:normal;font-variant:normal;font-weight:normal;font-stretch:normal;font-size:174.73019409px;line-height:3.80998611px;font-family:'Rockwell Extra Bold';-inkscape-font-specification:'Rockwell Extra Bold, ';letter-spacing:0px;word-spacing:0px;fill:#ffffff;fill-opacity:1;stroke:none;stroke-width:1.00805879"
       id="path967"
       inkscape:connector-curvature="0" />
    <path
       d="m 2937.4114,4666.2698 h -72.6742 v -28.1837 h 12.5567 v -61.3606 h -12.9868 v -28.1837 h 117.827 v 38.7631 h -31.8219 v -10.5794 h -26.7476 v 18.1119 h 20.6413 v 23.9519 h -20.6413 v 19.2968 h 13.8468 z"
       style="font-style:normal;font-variant:normal;font-weight:normal;font-stretch:normal;font-size:174.73019409px;line-height:3.80998611px;font-family:'Rockwell Extra Bold';-inkscape-font-specification:'Rockwell Extra Bold, ';letter-spacing:0px;word-spacing:0px;fill:#ffffff;fill-opacity:1;stroke:none;stroke-width:1.00805879"
       id="path969"
       inkscape:connector-curvature="0" />
    <path
       d="m 3045.6918,4607.1096 q 0,19.6354 3.8702,26.4909 3.6982,6.94 11.6106,6.94 7.8265,0 11.6967,-6.6861 3.8703,-6.7708 3.8703,-26.7448 0,-19.3816 -3.7843,-26.4062 -3.6981,-6.9401 -11.7827,-6.9401 -7.7403,0 -11.6106,6.6861 -3.8702,6.6862 -3.8702,26.6602 z m -51.9471,0 q 0,-14.7266 7.3104,-28.5222 7.2245,-13.7109 22.4474,-23.1054 5.4183,-3.3008 11.0946,-5.2474 5.7623,-1.9466 12.4708,-2.9622 6.7083,-1.1003 14.1047,-1.1003 32.166,0 49.797,18.5352 8.7725,9.1406 13.2447,19.8047 4.4724,10.664 4.4724,22.5976 0,24.6289 -18.2332,42.8255 -18.2331,18.1966 -49.2809,18.1966 -30.0157,0 -48.6788,-17.0963 -18.7491,-17.0117 -18.7491,-43.9258 z"
       style="font-style:normal;font-variant:normal;font-weight:normal;font-stretch:normal;font-size:174.73019409px;line-height:3.80998611px;font-family:'Rockwell Extra Bold';-inkscape-font-specification:'Rockwell Extra Bold, ';letter-spacing:0px;word-spacing:0px;fill:#ffffff;fill-opacity:1;stroke:none;stroke-width:1.00805879"
       id="path971"
       inkscape:connector-curvature="0" />
    <path
       d="m 3201.1029,4574.3557 v 22.4284 h 5.1602 q 10.1487,0 13.7608,-0.5925 3.8703,-0.5924 6.5364,-3.3854 2.6662,-2.6237 2.6662,-7.194 0,-4.5703 -2.6662,-7.2786 -2.6661,-2.793 -6.7944,-3.3855 -3.9562,-0.5924 -14.4488,-0.5924 z m 9.0305,91.9141 h -65.0198 v -28.1837 h 9.7186 v -61.3606 h -9.7186 v -28.1837 h 65.0198 q 8.7725,0 16.2549,0.3386 7.4824,0.254 12.8148,0.8464 5.3323,0.5078 9.8046,1.4388 12.5566,2.6236 20.3831,11.4257 7.9125,8.9714 7.9125,21.1589 0,9.1406 -4.8162,16.5885 -4.8163,7.3634 -12.6428,10.8334 l 16.5129,26.914 h 8.6006 v 28.1837 h -43.0886 l -26.0595,-48.073 h -14.7068 v 19.8893 h 9.0305 z"
       style="font-style:normal;font-variant:normal;font-weight:normal;font-stretch:normal;font-size:174.73019409px;line-height:3.80998611px;font-family:'Rockwell Extra Bold';-inkscape-font-specification:'Rockwell Extra Bold, ';letter-spacing:0px;word-spacing:0px;fill:#ffffff;fill-opacity:1;stroke:none;stroke-width:1.00805879"
       id="path973"
       inkscape:connector-curvature="0" />
    <path
       d="m 3352.3857,4576.7255 v 61.3606 h 4.3863 q 16.3409,0 21.2432,-8.5481 4.8163,-8.5482 4.8163,-21.4975 0,-7.7864 -2.0641,-15.4036 -2.1502,-7.6171 -7.5685,-11.7643 -5.3323,-4.1471 -19.0932,-4.1471 z m 0,89.5443 h -55.6453 v -28.1837 h 9.3746 v -61.3606 h -9.3746 v -28.1837 h 57.2794 q 19.6091,0 31.9938,2.3698 12.4708,2.3698 23.4794,9.7331 10.9227,7.448 17.201,20.1433 3.0962,6.0938 4.7304,13.0338 1.634,6.9401 1.634,14.5573 0,15.3191 -6.6224,27.9297 -6.5364,12.5261 -16.5989,19.2122 -9.8046,6.6862 -21.5013,8.7175 -11.6107,2.0313 -35.9501,2.0313 z"
       style="font-style:normal;font-variant:normal;font-weight:normal;font-stretch:normal;font-size:174.73019409px;line-height:3.80998611px;font-family:'Rockwell Extra Bold';-inkscape-font-specification:'Rockwell Extra Bold, ';letter-spacing:0px;word-spacing:0px;fill:#ffffff;fill-opacity:1;stroke:none;stroke-width:1.00805879"
       id="path975"
       inkscape:connector-curvature="0" />
    <path
       d="m 2385.8437,4876.0425 v 16.9922 q -9.7656,-2.1484 -18.2942,-6.8359 -8.5287,-4.6875 -16.0808,-12.1745 -14.9088,-14.7135 -14.9088,-41.1458 0,-15.7552 5.1432,-26.8229 5.2083,-11.2631 16.7318,-20.2474 11.5234,-8.9844 27.4088,-13.0209 v 17.0573 q -6.5104,1.6927 -11.263,10.5469 -4.8828,8.8542 -4.8828,30.8594 0,21.2239 3.7109,30.9245 3.711,9.6354 12.4349,13.8671 z"
       style="font-style:normal;font-variant:normal;font-weight:normal;font-stretch:normal;font-size:133.33332825px;line-height:3.77952766px;font-family:'Rockwell Extra Bold';-inkscape-font-specification:'Rockwell Extra Bold, ';letter-spacing:0px;word-spacing:0px;fill:#ffffff;fill-opacity:1;stroke:none"
       id="path935"
       inkscape:connector-curvature="0" />
    <path
       d="m 2460.7135,4865.1701 h -52.2786 v -20.7031 h 11.7187 q 9.375,-27.9297 29.4922,-51.5625 h -32.2265 v 12.5651 h -17.9688 v -30.8593 h 72.4609 v 17.3177 q -19.7916,32.6171 -22.9817,52.539 h 11.7838 z"
       style="font-style:normal;font-variant:normal;font-weight:normal;font-stretch:normal;font-size:133.33332825px;line-height:3.77952766px;font-family:'Rockwell Extra Bold';-inkscape-font-specification:'Rockwell Extra Bold, ';letter-spacing:0px;word-spacing:0px;fill:#ffffff;fill-opacity:1;stroke:none"
       id="path937"
       inkscape:connector-curvature="0" />
    <path
       d="m 2545.4791,4836.8498 h 18.75 l -0.7812,28.3203 h -72.0703 q -0.1302,-2.7343 -0.1302,-2.7994 0,-12.6302 5.4687,-22.6563 2.7995,-5.1432 7.7474,-10.2213 4.9479,-5.0782 12.0443,-10.2214 11.9792,-8.8542 15.4297,-12.7604 3.4505,-4.0365 3.4505,-8.138 0,-3.9714 -2.3438,-6.5104 -2.3437,-2.5391 -7.0312,-2.5391 -10.026,0 -10.026,12.6953 l -23.3073,-0.7161 q 0.7161,-15.5599 10.3515,-22.0704 9.7005,-6.4453 24.4792,-6.4453 16.1458,0 26.1719,7.4219 10.026,7.487 10.026,19.5313 0,7.7474 -5.0781,14.3229 -5.2084,6.5755 -19.8568,14.0625 -11.8489,5.9896 -15.8854,9.0495 -4.1016,3.1901 -6.25,7.2265 h 28.5156 z"
       style="font-style:normal;font-variant:normal;font-weight:normal;font-stretch:normal;font-size:133.33332825px;line-height:3.77952766px;font-family:'Rockwell Extra Bold';-inkscape-font-specification:'Rockwell Extra Bold, ';letter-spacing:0px;word-spacing:0px;fill:#ffffff;fill-opacity:1;stroke:none"
       id="path939"
       inkscape:connector-curvature="0" />
    <path
       d="m 2597.4974,4819.2717 h 24.4791 v -24.7396 z m 60.8724,45.8984 h -47.3308 v -18.3593 h 10.9375 v -11.4584 h -38.151 l -5.0781,-18.8802 42.3177,-43.6849 h 27.9948 v 46.4844 h 9.3099 v 16.0807 h -9.3099 v 11.4584 h 9.3099 z"
       style="font-style:normal;font-variant:normal;font-weight:normal;font-stretch:normal;font-size:133.33332825px;line-height:3.77952766px;font-family:'Rockwell Extra Bold';-inkscape-font-specification:'Rockwell Extra Bold, ';letter-spacing:0px;word-spacing:0px;fill:#ffffff;fill-opacity:1;stroke:none"
       id="path941"
       inkscape:connector-curvature="0" />
    <path
       d="m 2671.4557,4789.8446 v -17.0573 q 19.4661,4.1667 34.4401,18.9453 14.8438,14.7136 14.8438,41.2761 0,15.7552 -5.2735,27.0182 -5.2734,11.263 -16.9922,20.2474 -11.7838,9.0495 -27.0182,12.7604 v -16.9922 q 6.3802,-1.7578 11.263,-10.677 4.8828,-8.9193 4.8828,-30.7943 0,-21.2891 -3.7109,-30.9245 -3.6458,-9.5703 -12.4349,-13.8021 z"
       style="font-style:normal;font-variant:normal;font-weight:normal;font-stretch:normal;font-size:133.33332825px;line-height:3.77952766px;font-family:'Rockwell Extra Bold';-inkscape-font-specification:'Rockwell Extra Bold, ';letter-spacing:0px;word-spacing:0px;fill:#ffffff;fill-opacity:1;stroke:none"
       id="path943"
       inkscape:connector-curvature="0" />
    <path
       d="m 2816.3776,4811.4592 q 0,-20.5078 -12.0443,-20.5078 -9.375,0 -9.375,11.849 0,6.0546 2.7995,9.2447 2.7344,3.3204 7.2265,3.3204 5.6641,0 11.3933,-3.9063 z m -47.6563,32.0964 22.6563,-2.0183 q 3.125,7.3568 10.9375,7.3568 12.9557,0 13.6067,-21.0937 -7.9427,5.5989 -18.75,5.5989 -12.1744,0 -20.638,-8.0729 -8.5937,-8.138 -8.5937,-20.7031 0,-14.8438 10.6771,-23.3724 10.6119,-8.4636 24.8697,-8.4636 17.7735,0 29.4922,12.1094 11.6537,12.2396 11.6537,35.4818 0,20.4427 -10.6771,33.0729 -10.612,12.5651 -31.5104,12.5651 -13.2813,0 -22.2005,-5.599 -8.9844,-5.5989 -11.5235,-16.8619 z"
       style="font-style:normal;font-variant:normal;font-weight:normal;font-stretch:normal;font-size:133.33332825px;line-height:3.77952766px;font-family:'Rockwell Extra Bold';-inkscape-font-specification:'Rockwell Extra Bold, ';letter-spacing:0px;word-spacing:0px;fill:#ffffff;fill-opacity:1;stroke:none"
       id="path945"
       inkscape:connector-curvature="0" />
    <path
       d="m 2858.3698,4834.441 23.4375,-1.7578 q 0.5859,14.4531 13.4765,14.4531 5.599,0 8.3333,-3.0599 2.6693,-3.0599 2.6693,-7.4219 0,-11.0677 -14.7786,-11.5885 v -14.7136 q 4.5573,0 8.5937,-2.6692 3.9714,-2.6042 3.9714,-7.7474 0,-4.1667 -2.6042,-6.7058 -2.6693,-2.4739 -7.0312,-2.4739 -9.3099,0 -10.0261,10.2864 l -24.4791,-1.302 q 0.7812,-13.5417 10.5468,-20.2474 9.7005,-6.7058 26.4974,-6.7058 17.9037,0 26.8229,7.2917 8.9193,7.3568 8.9193,18.099 0,6.4453 -3.776,11.4583 -3.7761,5.0781 -10.2214,7.0312 8.138,1.7579 12.6953,7.487 4.5573,5.7292 4.5573,13.8672 0,13.0208 -10.8073,20.5078 -10.8073,7.487 -28.4505,7.487 -17.7734,0 -27.8646,-7.7474 -9.9609,-7.6823 -10.4817,-23.8281 z"
       style="font-style:normal;font-variant:normal;font-weight:normal;font-stretch:normal;font-size:133.33332825px;line-height:3.77952766px;font-family:'Rockwell Extra Bold';-inkscape-font-specification:'Rockwell Extra Bold, ';letter-spacing:0px;word-spacing:0px;fill:#ffffff;fill-opacity:1;stroke:none"
       id="path947"
       inkscape:connector-curvature="0" />
    <path
       d="m 2949.3854,4840.8212 23.5677,-1.4974 q 3.125,7.4219 12.0443,7.4219 5.2734,0 8.9192,-2.8646 3.5157,-2.8646 3.5157,-8.9844 0,-5.9896 -3.5157,-8.7891 -3.5807,-2.7343 -8.3333,-2.7343 -7.2917,0 -12.2396,5.3385 l -19.7265,-6.9661 2.7343,-47.1354 h 66.7318 v 23.6979 h -15.2995 l -2.1484,-5.5339 h -32.3568 l -0.7812,17.9688 q 8.7239,-5.4688 20.7682,-5.4688 14.7135,0 24.349,7.8776 9.6354,7.8776 9.6354,21.6146 0,13.4115 -10.1563,22.3307 -10.2213,8.9193 -28.4505,8.9193 -16.0156,0 -26.4974,-6.7708 -10.4167,-6.7058 -12.7604,-18.4245 z"
       style="font-style:normal;font-variant:normal;font-weight:normal;font-stretch:normal;font-size:133.33332825px;line-height:3.77952766px;font-family:'Rockwell Extra Bold';-inkscape-font-specification:'Rockwell Extra Bold, ';letter-spacing:0px;word-spacing:0px;fill:#ffffff;fill-opacity:1;stroke:none"
       id="path949"
       inkscape:connector-curvature="0" />
    <path
       d="m 3088.8385,4847.6571 h -46.4844 v -28.0599 h 46.4844 z"
       style="font-style:normal;font-variant:normal;font-weight:normal;font-stretch:normal;font-size:133.33332825px;line-height:3.77952766px;font-family:'Rockwell Extra Bold';-inkscape-font-specification:'Rockwell Extra Bold, ';letter-spacing:0px;word-spacing:0px;fill:#ffffff;fill-opacity:1;stroke:none"
       id="path951"
       inkscape:connector-curvature="0" />
    <path
       d="m 3151.2734,4811.4592 q 0,-20.5078 -12.0443,-20.5078 -9.375,0 -9.375,11.849 0,6.0546 2.7995,9.2447 2.7344,3.3204 7.2266,3.3204 5.664,0 11.3932,-3.9063 z m -47.6562,32.0964 22.6562,-2.0183 q 3.125,7.3568 10.9375,7.3568 12.9557,0 13.6068,-21.0937 -7.9427,5.5989 -18.75,5.5989 -12.1745,0 -20.638,-8.0729 -8.5938,-8.138 -8.5938,-20.7031 0,-14.8438 10.6771,-23.3724 10.612,-8.4636 24.8698,-8.4636 17.7734,0 29.4922,12.1094 11.6536,12.2396 11.6536,35.4818 0,20.4427 -10.6771,33.0729 -10.6119,12.5651 -31.5104,12.5651 -13.2812,0 -22.2005,-5.599 -8.9844,-5.5989 -11.5234,-16.8619 z"
       style="font-style:normal;font-variant:normal;font-weight:normal;font-stretch:normal;font-size:133.33332825px;line-height:3.77952766px;font-family:'Rockwell Extra Bold';-inkscape-font-specification:'Rockwell Extra Bold, ';letter-spacing:0px;word-spacing:0px;fill:#ffffff;fill-opacity:1;stroke:none"
       id="path953"
       inkscape:connector-curvature="0" />
    <path
       d="m 3261.69,4865.1701 h -54.1666 v -20.8333 h 12.8906 v -40.9505 q -3.5156,0.9114 -9.6354,0.9114 -1.9531,0 -3.2552,-0.1953 v -20.052 q 0.7812,0.065 1.6276,0.065 8.5286,0 15.8203,-3.3204 7.4219,-3.3854 10.612,-8.0078 h 13.6067 v 71.5495 h 12.5 z"
       style="font-style:normal;font-variant:normal;font-weight:normal;font-stretch:normal;font-size:133.33332825px;line-height:3.77952766px;font-family:'Rockwell Extra Bold';-inkscape-font-specification:'Rockwell Extra Bold, ';letter-spacing:0px;word-spacing:0px;fill:#ffffff;fill-opacity:1;stroke:none"
       id="path955"
       inkscape:connector-curvature="0" />
    <path
       d="m 3315.3359,4819.4019 q 0,16.9922 2.5391,22.2005 2.539,5.2735 7.0312,5.2735 4.5573,0 6.9662,-5.5339 2.4088,-5.4036 2.4088,-21.9401 0,-17.1875 -2.5391,-22.3307 -2.6041,-5.0781 -6.9661,-5.0781 -4.2969,0 -6.8359,5.0781 -2.6042,5.1432 -2.6042,22.3307 z m -29.4922,0 q 0,-22.2005 11.5234,-34.375 11.5235,-12.2396 27.4089,-12.2396 16.5365,0 27.7995,12.6302 11.1979,12.6303 11.1979,33.9844 0,22.461 -11.5885,34.5052 -11.5886,12.1094 -27.4089,12.1094 -16.4714,0 -27.7344,-12.6302 -11.1979,-12.5651 -11.1979,-33.9844 z"
       style="font-style:normal;font-variant:normal;font-weight:normal;font-stretch:normal;font-size:133.33332825px;line-height:3.77952766px;font-family:'Rockwell Extra Bold';-inkscape-font-specification:'Rockwell Extra Bold, ';letter-spacing:0px;word-spacing:0px;fill:#ffffff;fill-opacity:1;stroke:none"
       id="path957"
       inkscape:connector-curvature="0" />
    <path
       d="m 3407.0026,4819.4019 q 0,16.9922 2.539,22.2005 2.5391,5.2735 7.0313,5.2735 4.5573,0 6.9661,-5.5339 2.4089,-5.4036 2.4089,-21.9401 0,-17.1875 -2.5391,-22.3307 -2.6041,-5.0781 -6.9661,-5.0781 -4.2969,0 -6.836,5.0781 -2.6041,5.1432 -2.6041,22.3307 z m -29.4922,0 q 0,-22.2005 11.5234,-34.375 11.5235,-12.2396 27.4089,-12.2396 16.5364,0 27.7995,12.6302 11.1979,12.6303 11.1979,33.9844 0,22.461 -11.5886,34.5052 -11.5885,12.1094 -27.4088,12.1094 -16.4714,0 -27.7344,-12.6302 -11.1979,-12.5651 -11.1979,-33.9844 z"
       style="font-style:normal;font-variant:normal;font-weight:normal;font-stretch:normal;font-size:133.33332825px;line-height:3.77952766px;font-family:'Rockwell Extra Bold';-inkscape-font-specification:'Rockwell Extra Bold, ';letter-spacing:0px;word-spacing:0px;fill:#ffffff;fill-opacity:1;stroke:none"
       id="path959"
       inkscape:connector-curvature="0" />
  </g>
</svg>
