<?xml version="1.0" encoding="UTF-8" standalone="no"?>
<svg
   xmlns:dc="http://purl.org/dc/elements/1.1/"
   xmlns:cc="http://creativecommons.org/ns#"
   xmlns:rdf="http://www.w3.org/1999/02/22-rdf-syntax-ns#"
   xmlns:svg="http://www.w3.org/2000/svg"
   xmlns="http://www.w3.org/2000/svg"
   xmlns:sodipodi="http://sodipodi.sourceforge.net/DTD/sodipodi-0.dtd"
   xmlns:inkscape="http://www.inkscape.org/namespaces/inkscape"
   id="Layer_1"
   data-name="Layer 1"
   viewBox="0 0 2901.4531 3571.3566"
   version="1.1"
   sodipodi:docname="Jimmy Johns - White.svg"
   inkscape:version="0.92.2 (5c3e80d, 2017-08-06)"
   width="193.43021"
   height="238.09044">
  <metadata
     id="metadata1023">
    <rdf:RDF>
      <cc:Work
         rdf:about="">
        <dc:format>image/svg+xml</dc:format>
        <dc:type
           rdf:resource="http://purl.org/dc/dcmitype/StillImage" />
        <dc:title>jimmy johns circle logo</dc:title>
      </cc:Work>
    </rdf:RDF>
  </metadata>
  <sodipodi:namedview
     pagecolor="#ffffff"
     bordercolor="#666666"
     borderopacity="1"
     objecttolerance="10"
     gridtolerance="10"
     guidetolerance="10"
     inkscape:pageopacity="0"
     inkscape:pageshadow="2"
     inkscape:window-width="2560"
     inkscape:window-height="1361"
     id="namedview1021"
     showgrid="false"
     inkscape:zoom="2"
     inkscape:cx="134.12265"
     inkscape:cy="-33.544391"
     inkscape:window-x="-9"
     inkscape:window-y="-9"
     inkscape:window-maximized="1"
     inkscape:current-layer="g2144"
     inkscape:pagecheckerboard="true"
     fit-margin-top="0"
     fit-margin-left="0"
     fit-margin-right="0"
     fit-margin-bottom="0" />
  <defs
     id="defs922">
    <style
       id="style920">.cls-1{fill:#fff;}.cls-2{fill:#e31837;}</style>
  </defs>
  <title
     id="title924">jimmy johns circle logo</title>
  <g
     inkscape:groupmode="layer"
     id="layer2"
     inkscape:label="Main"
     transform="translate(-5e-4)" />
  <g
     id="g2144"
     transform="translate(-1445.27,-1321.6782)">
    <path
       style="fill:#ffffff;fill-opacity:1;stroke-width:0.125"
       d="M 181.3418,0 C 81.186701,0 0,81.200451 0,181.3418 c 0,100.14125 81.192049,181.34375 181.3457,181.34375 100.15375,0 181.33594,-81.2 181.33594,-181.34375 C 362.68164,81.191701 281.4968,0 181.3418,0 Z m 0,15.011719 0.004,0.002 c 91.86375,0 166.31641,74.470529 166.31641,166.328131 0,82.85375 -60.57133,151.55531 -139.86133,164.22656 -0.32333,-2.26083 -0.64401,-4.52406 -0.96484,-6.78906 75.95125,-12.20125 133.97265,-78.05125 133.97265,-157.4375 0,-88.070102 -71.38789,-159.468756 -159.46289,-159.468756 -88.074901,0 -159.468747,71.399904 -159.468747,159.468756 0,79.385 58.017596,145.23484 133.968747,157.43359 -0.32333,2.26083 -0.64596,4.52406 -0.96679,6.78906 C 75.592528,332.88945 15.011719,264.19055 15.011719,181.3418 15.011719,89.484201 89.477951,15.011719 181.3418,15.011719 Z m -17.35742,23.511719 1.61718,7.009765 -1.84961,0.421875 -4.875,12.21875 1.06836,4.640625 2.32617,-0.53125 1.60938,7.003906 -15.94727,3.673829 -1.61523,-7.003907 2.31836,-0.535156 -1.07031,-4.640625 -9.77735,-8.837891 -1.97461,0.455079 -1.61914,-7.003907 15.26172,-3.527343 1.61328,7.013671 -1.71875,0.392579 4.41797,5.228515 2.37109,-6.789062 -1.76367,0.40625 -1.61523,-7.009766 z m 29.4414,0.03906 16.72852,2.386719 -1.01172,7.11914 -2.53711,-0.363281 -2.84375,19.914063 c -0.71375,5.025 -1.59133,7.395703 -3.98633,9.189453 -2.34875,1.7675 -4.55648,1.980703 -8.14648,1.470703 -1.82125,-0.2575 -2.59719,-0.465078 -4.39844,-0.986328 l 1.04492,-7.291016 a 5.3325,5.3325 0 0 0 1.24023,0.351563 c 1.7875,0.25875 2.23368,-0.665391 2.73243,-4.150391 l 2.86523,-20.138672 -2.70703,-0.388672 z m 36.37891,8.8125 c 2.31605,-8.2e-4 4.84164,0.494453 7.5332,1.634766 10.76625,4.56125 12.24094,14.377968 9.49219,20.886718 -2.74875,6.50875 -10.83688,12.275235 -21.60938,7.708985 -10.7725,-4.56625 -12.26039,-14.392266 -9.49414,-20.884766 2.05969,-4.879687 7.12996,-9.343242 14.07813,-9.345703 z m -107.49024,1.724609 3.91602,6.019532 -1.96094,1.28125 8.48828,13.054687 1.95508,-1.269531 3.91406,6.027344 -13.01367,8.458984 -3.92383,-6.027344 1.96094,-1.271484 -9.06445,-13.951172 -0.0742,0.04883 5.50586,24.830078 -3.76563,2.447266 -20.374997,-15.15625 -0.08008,0.04492 9.058597,13.945312 1.96484,-1.277343 3.91407,6.029296 -9.75782,6.34961 -3.923828,-6.033203 1.962891,-1.269532 -8.486328,-13.058593 -1.957031,1.279296 -3.927735,-6.037109 15.136719,-9.832031 10.000002,7.291016 -2.49219,-12.167969 z m 110.75196,6.048829 c -2.0715,0.07807 -3.58282,2.451953 -5.36524,6.646484 -2.1825,5.16 -2.6725,8.098203 0.25,9.345703 2.9225,1.2475 4.71719,-1.168516 6.89844,-6.322266 2.18125,-5.15375 2.6725,-8.112812 -0.25,-9.351562 -0.54797,-0.232266 -1.05517,-0.336382 -1.5332,-0.318359 z m 31.00195,8.208984 11.74609,10.558594 -4.80273,5.355468 L 269.5957,78 l -3.06836,3.412109 5.1543,4.626953 3.0625,-3.40625 -1.4082,-1.271484 4.80859,-5.341797 11.73633,10.554688 -4.80274,5.351562 -1.71484,-1.535156 -10.40625,11.578125 1.70117,1.53516 -4.79882,5.3457 -11.74219,-10.562501 4.79883,-5.353515 1.41015,1.269531 3.2793,-3.634766 -5.15625,-4.634765 -3.27149,3.640625 1.41407,1.273437 -4.8086,5.34375 -11.74414,-10.5625 4.80664,-5.345703 1.71485,1.537109 10.40625,-11.578124 -1.70508,-1.53125 z m -190.111329,20.851562 6.019531,3.949219 -1.283203,1.951172 13.023438,8.541016 1.275391,-1.955079 6.019531,3.94336 -8.515625,12.99219 -6.015625,-3.95117 1.277343,-1.95508 -13.90625,-9.12305 -0.04102,0.07227 15.03125,20.51562 -2.458985,3.76758 -24.769531,-5.68164 -0.04297,0.0723 13.914063,9.11523 1.277344,-1.95312 6.015625,3.93945 -6.384766,9.74414 -6.019531,-3.94531 1.285156,-1.95117 -13.027344,-8.53907 -1.27539,1.95313 -6.021485,-3.93555 9.900391,-15.08984 12.076172,2.64648 -7.173828,-10.136716 z m 223.830079,12.234375 6.92383,12.398443 -8.3418,17.15625 0.0391,0.0723 7.38477,-4.13281 -1.22266,-2.19922 6.28125,-3.49805 5.89649,10.54688 -6.27344,3.50586 -1.2793,-2.26953 -20.28711,11.34375 -4.82617,-8.625 9.77149,-19.86133 -0.0391,-0.0781 -9.21289,5.14063 1.31641,2.34961 -6.27735,3.50976 -5.99609,-10.73828 6.27344,-3.50781 1.27734,2.30664 13.60547,-7.60156 -1.29492,-2.31055 z m -183.80664,17.375003 65.36133,0.006 v 30.98633 h -9.0625 v 68.5 c 0,17.24375 -1.5775,27.57054 -10.1875,36.18554 -8.395,8.3775 -17.26953,10.02344 -29.76953,10.02344 -6.80125,0 -9.71954,-0.33648 -16.33204,-1.27148 l -2.36718,-0.33594 V 225.881 l 3.42187,0.86719 c 1.51875,0.37375 2.71375,0.54687 3.875,0.54687 3.36,0 4.75,-1.5e-4 4.75,-13.1914 v -69.29883 h -9.68945 z m 73.92773,0 65.36719,0.006 v 30.98633 h -9.0625 v 68.5 c 0,17.24375 -1.5775,27.57054 -10.1875,36.18554 -8.38375,8.3775 -17.26594,10.02344 -29.77344,10.02344 -6.79625,0 -9.71742,-0.33648 -16.32617,-1.27148 l -2.36523,-0.33594 V 225.881 l 3.43164,0.86719 c 1.47875,0.3675 2.70476,0.54687 3.85351,0.54687 3.36625,0 4.75977,-1.5e-4 4.75977,-13.1914 v -69.29883 h -9.69727 z m 128.47657,19.95508 3.18164,10.24218 -9.14453,2.83204 c -4.34375,1.3425 -7.71271,-1.0336 -9.3125,-6.21485 a 18.265,18.265 0 0 1 -0.52149,-1.96289 l 4.04688,-1.25195 c 0.93875,3.0375 2.22078,3.60594 5.45703,2.55469 l -1.19922,-3.875 z m -270.363286,0.32617 6.919922,1.95117 -0.757812,2.67969 14.988281,4.23633 0.759766,-2.67969 6.912109,1.95508 -4.666016,16.50976 -6.921875,-1.95117 0.75,-2.67969 -14.976562,-4.22265 -0.753906,2.67187 -6.919922,-1.95898 z m 268.097656,17.38086 c 4.77204,-0.19549 8.36367,3.02539 9.06445,8.22851 0.345,2.53875 -0.15211,4.96219 -1.34961,6.89844 l 1.83008,-0.24023 0.90039,6.69336 -8.45117,1.11328 -0.875,-6.68164 0.36328,-0.1875 c 2,-1.155 2.8218,-2.60176 2.56055,-4.57031 -0.1775,-1.35125 -0.99,-2.09782 -2.125,-1.94532 a 2,2 0 0 0 -1.24023,0.69922 c -1.17,1.54875 -2.07282,8.19969 -5.07032,12.11719 -0.98,1.28125 -3.19648,3.05234 -6.08398,3.43359 -5.115,0.6775 -9.56578,-2.99988 -10.30078,-8.55468 a 12.46625,12.46625 0 0 1 1.41797,-7.45118 l -1.9668,0.27344 -0.89453,-6.69531 9.51953,-1.26953 0.89258,6.68945 c -2.59375,1.28375 -3.59336,2.83656 -3.28711,5.07031 0.18625,1.43625 1.05742,2.26117 2.23242,2.10742 0.5675,-0.0775 0.98867,-0.31007 1.48242,-0.95507 1.6675,-2.175 1.80086,-7.54485 4.56836,-11.15235 1.625,-2.125 3.48625,-3.22586 5.84375,-3.53711 0.32813,-0.0438 0.65061,-0.0709 0.96875,-0.084 z m -274.419921,8.08398 7.152343,0.65625 -0.226562,2.55078 20.025391,1.84571 c 5.05375,0.465 7.4675,1.21937 9.375,3.51562 1.875,2.2625 2.2,4.45875 1.875,8.0625 -0.17375,1.85125 -0.327266,2.62422 -0.759766,4.44922 l -7.335937,-0.67773 a 5.17375,5.17375 0 0 0 0.289062,-1.25 c 0.17125,-1.80625 -0.772842,-2.20235 -4.289062,-2.52735 l -20.25,-1.86914 -0.25,2.72657 -7.160157,-0.66211 z m 282.039061,17.5918 a 3.86,3.86 0 0 1 0.002,0 3.86,3.86 0 0 1 3.77149,3.56836 3.875,3.875 0 0 1 -3.55664,4.16992 3.875,3.875 0 0 1 -4.16211,-3.55859 3.855,3.855 0 0 1 3.56055,-4.16797 3.86,3.86 0 0 1 0.38476,-0.0117 z m -0.0684,0.75781 a 3.08375,3.08375 0 0 0 -0.25586,0.01 3.125,3.125 0 0 0 -2.86914,3.34961 3.11625,3.11625 0 0 0 3.35352,2.84961 3.0725,3.0725 0 0 0 2.84179,-3.33594 3.08375,3.08375 0 0 0 -3.07031,-2.87305 z m 1.88086,1.21485 0.15234,2.00781 c 0.0725,0.94875 -0.46296,1.35398 -1.04296,1.39648 -0.63625,0.0513 -1.1025,-0.33648 -1.25,-1.02148 h -0.0156 c -0.11375,0.47625 -0.38328,0.61375 -1.67578,1.5 l -0.0703,-1.03125 c 0.67,-0.39875 1.09758,-0.655 1.39258,-1 0.19375,-0.2225 0.1946,-0.33328 0.1621,-0.67578 v -0.1543 l -1.6875,0.125 -0.0762,-0.83008 z m -0.58398,0.8789 -1.125,0.0937 0.0645,0.73242 c 0.0387,0.47 0.2025,0.86524 0.625,0.83399 0.35375,-0.0262 0.54,-0.32016 0.5,-0.91016 z m -14.40235,16.11133 3.7461,9.60156 10.33789,-0.60156 -8,6.53906 3.75586,9.64063 -8.70899,-5.59961 -7.97265,6.51367 2.60937,-9.94531 -8.66015,-5.58594 10.27929,-0.59961 z m -254.056638,2.07031 2.767579,9.90235 10.294921,0.44726 -8.568359,5.71094 2.773438,9.91602 -8.083985,-6.39649 -8.613281,5.74219 3.601563,-9.6836 -8.109376,-6.42773 10.341797,0.43555 z m 231.933598,38.82813 6.29101,3.875 -2.14062,3.48633 c -2.065,-0.89375 -3.9236,-0.47813 -4.90235,1.10937 -0.735,1.19125 -0.55828,2.47703 0.41797,3.08203 3.36125,2.07 8.49227,-7.95875 15.82227,-3.4375 4.9475,3.0525 3.81328,7.62548 2.45703,9.82031 -1.125,1.8325 -2.66992,2.82266 -4.57617,2.91016 l -0.0391,0.0625 1.74024,1.07227 -2.16992,3.51172 -7.05664,-4.35157 2.16796,-3.50976 c 2.1925,1.4375 4.6036,0.94242 5.71485,-0.86133 0.77125,-1.25 0.43289,-2.88906 -0.81836,-3.66406 -3.78625,-2.33375 -8.93641,7.17531 -15.44141,3.16406 -4.03125,-2.4875 -3.78367,-6.51047 -2.20117,-9.07422 1,-1.61625 2.44586,-2.53516 4.25586,-2.59766 l 0.041,-0.0625 -1.71094,-1.05468 z m -211.906254,2.55078 c 2.442656,-0.07 4.449226,1.40937 5.566406,3.1582 1.01875,1.6025 1.211563,3.3111 0.476563,4.96485 l 0.03906,0.0625 1.697265,-1.07813 2.191406,3.45313 -6.236328,3.96289 -2.193359,-3.45313 c 1.705,-1.46625 2.142031,-3.31687 1.144531,-4.89062 -0.75,-1.18 -1.985078,-1.585 -2.955078,-0.96875 -3.3275,2.11625 3.447344,11.10961 -3.816406,15.72461 -4.905,3.1175 -8.520547,0.10257 -9.904297,-2.07618 -1.155,-1.8175 -1.375391,-3.63421 -0.619141,-5.38671 l -0.03711,-0.0625 -1.726563,1.09765 -2.220703,-3.48437 6.994141,-4.44141 2.210937,3.48047 c -2.25,1.345 -2.855703,3.72992 -1.720703,5.51367 0.78875,1.2425 2.409844,1.65664 3.652344,0.86914 3.75,-2.38625 -2.551555,-11.17078 3.898437,-15.26953 1.248047,-0.79336 2.448296,-1.14396 3.558594,-1.17578 z m 201.269534,14.29687 5.64062,5.25196 -3.15039,3.38476 -2.62304,-2.4414 -5.1543,5.53515 4.09375,3.81055 4.15234,-4.46289 3.01758,2.80859 -4.15234,4.46094 4.67187,4.34766 5.15039,-5.53711 -2.64844,-2.4668 3.15039,-3.38281 5.66797,5.27344 -14.58007,15.66211 -3.01758,-2.80665 1.95312,-2.09961 -11.78125,-10.96289 -1.95117,2.09766 -3.01953,-2.80664 z m -186.656252,2.37891 10.894532,11.58398 -3.005861,2.82618 -2.236328,-2.375 -8.25,14.75976 1.96875,2.09375 -3.013672,2.82422 -8.11914,-8.625 3.007812,-2.83203 2.089844,2.2168 2.25,-3.68946 -4.328125,-4.59961 -3.939453,1.88477 2.236328,2.375 -3.005859,2.83203 -7.427735,-7.89844 3.00586,-2.83203 2.089843,2.22461 15.011719,-7.56836 -2.238281,-2.375 z m 1.46875,9.0625 -6.861329,3.44531 2.902344,3.08985 4.007813,-6.48438 z m 12.912112,6.33398 8.43554,5.7129 -1.13672,17.60156 0.0586,0.043 6.21875,-9.17774 -2.61719,-1.76953 2.31641,-3.41406 9.05664,6.13476 -2.31445,3.41407 -2.85157,-1.92969 -11.34961,16.74609 -4.51172,-3.05859 1.42969,-20.65234 -0.0606,-0.0391 -7.726558,11.40235 2.525388,1.71093 -2.31445,3.41407 -8.818359,-5.97461 2.3125,-3.41797 2.701171,1.83398 9.035158,-13.33398 -2.70117,-1.83008 z m 154.71289,0.66602 2.30859,3.42188 -2.38086,1.60546 9.01563,13.35547 2.3789,-1.60937 2.3086,3.42187 -9.69336,6.54297 -2.31055,-3.41797 2.05078,-1.38672 -3.71289,-5.5 -5.50391,3.71289 3.7168,5.50196 2.05078,-1.38672 2.3086,3.41992 -9.69336,6.54883 -2.31055,-3.42188 2.37891,-1.60546 -9.01368,-13.35547 -2.3789,1.60742 -2.3086,-3.41992 9.69532,-6.54492 2.30859,3.41992 -2.05469,1.38476 2.99219,4.42969 5.50391,-3.71289 -2.99414,-4.42969 -2.04883,1.38477 -2.30859,-3.41992 z m -24.88281,16.03516 2.95703,8.05078 -3.875,1.42187 c -0.78875,-0.89625 -1.96602,-1.915 -2.79102,-2.1875 -2.07375,-0.6525 -3.015,-0.6114 -4.5,-0.0664 -4.11,1.50875 -5.66797,5.59554 -3.94922,10.27929 1.63375,4.445 5.38584,6.54594 9.18945,5.14844 3.16875,-1.1625 4.72344,-4.21633 4.17969,-8.29883 l 5.30274,0.5 c 0.57875,6.7825 -3.87477,10.48047 -8.38477,12.13672 -9.76875,3.58875 -14.88414,-2.21883 -16.71289,-7.20508 -2.56,-6.98125 0.56563,-13.58968 7.70313,-16.21093 2.79375,-1.02625 5.23099,-1.15789 7.6621,-0.36914 l -0.65624,-1.78321 z m -104.29297,0.01 12,4.26563 c 4.15875,1.4775 6.75557,3.275 8.26171,6.4375 1.48125,3.115 1.40477,6.43979 0.29102,9.58593 -2.11625,5.95125 -7.74953,10.12344 -15.05078,7.52344 l -13.66406,-4.84961 1.38476,-3.88867 3.48438,1.23633 5.39453,-15.18359 -3.48242,-1.23633 z m 8.08789,7.25586 -5.39649,15.1836 2.26758,0.80078 c 4.5675,1.625 7.74078,-0.565 9.36328,-5.125 1.75,-4.93875 0.29313,-8.54125 -4.17187,-10.125 z m 70.53515,1.27344 0.67188,4.07031 -3.64844,0.60352 2.62695,15.89843 3.64844,-0.60156 0.67188,4.07422 -13.56055,2.24024 -0.67578,-4.07227 3.64648,-0.60547 -2.625,-15.89844 -3.64843,0.60157 -0.67188,-4.07032 z m -52.98437,1.0957 10.91015,0.79883 -0.30078,4.11523 -2.46875,-0.17968 3.04688,11.94336 0.0703,0.006 4.53906,-11.39063 -2.21875,-0.16406 0.30274,-4.11133 8.72461,0.63672 -0.30274,4.11328 -2.25,-0.16406 3.08203,11.94726 0.0723,0.006 4.67969,-11.3789 -2.50586,-0.18555 0.30078,-4.11328 9.80078,0.71875 -0.30078,4.11133 -2.64649,-0.19141 -8.28515,19.85156 -4.40039,-0.32031 -3.05078,-11.37109 -0.0723,-0.004 -4.45703,10.82031 -4.47266,-0.32617 -5.52148,-20.86328 -2.57617,-0.18945 z m 48.12695,41.10156 0.26367,2.03907 -0.0762,2.85937 -0.78906,0.10156 -0.80078,-2.75 -0.26367,-2.0371 z m -42.85351,0.0488 6.77734,0.75977 -0.33789,2.99805 -1.29492,-0.14454 0.19531,-1.73437 -1.12305,-0.12695 -0.55078,4.93164 1.12109,0.125 -0.14257,1.26367 -4.1836,-0.46875 0.14063,-1.26367 1.11914,0.125 0.55469,-4.92969 -1.1211,-0.125 -0.19336,1.73437 -1.29687,-0.14453 z m 39.36328,0.42578 0.11132,1.26563 -0.9375,0.082 -1.68945,3.09961 0.17774,2.01367 1.05664,-0.0918 0.11133,1.26367 -4.00782,0.35351 -0.10937,-1.26562 1.05469,-0.0918 -0.17774,-2.01562 -2.31445,-2.7461 -0.93555,0.082 -0.11133,-1.26562 3.67578,-0.32422 0.11329,1.26758 -0.6836,0.0586 1.29492,1.72852 0.92774,-1.92383 -0.64844,0.0566 -0.11328,-1.26563 z m -30.46289,0.49415 4.88281,0.30273 -0.0762,1.26758 -1,-0.0625 1.25781,5.04492 0.88281,0.0547 -0.082,1.27539 -3.63867,-0.22461 0.0801,-1.26758 0.9375,0.0566 -0.27344,-1.29883 -1.94141,-0.125 -0.48632,1.25 1,0.0605 -0.0801,1.26953 -3.33008,-0.20703 0.0801,-1.26758 0.93554,0.0586 1.77344,-4.85743 -1,-0.0625 z m 21.23047,0.26757 0.0977,3.01367 -1.30273,0.043 -0.0566,-1.74414 -1.12696,0.0371 0.16407,4.95703 1.12695,-0.0351 0.041,1.26953 -4.20703,0.13672 -0.041,-1.26953 1.125,-0.0371 -0.16211,-4.95703 -1.12696,0.0371 0.0586,1.74415 -1.30469,0.043 -0.0977,-3.01367 z m -11.54102,0.0918 a 1.5625,1.5625 0 0 1 1.36133,0.7168 h 0.0215 l 0.01,-0.61719 1.25976,0.0195 -0.0351,2.27539 -1.25977,-0.0215 c -0.0888,-0.68625 -0.4907,-1.1125 -1.06445,-1.125 -0.43125,-0.007 -0.75,0.2432 -0.75,0.5957 -0.02,1.21625 3.44289,1.00023 3.40039,3.64648 -0.0288,1.79 -1.41469,2.20852 -2.21094,2.19727 -0.6625,-0.0113 -1.16844,-0.2625 -1.49219,-0.75 h -0.0215 l -0.0117,0.625 -1.26953,-0.0195 0.041,-2.54492 1.27148,0.0215 c -0.035,0.80625 0.475,1.3675 1.125,1.375 a 0.81625,0.81625 0 0 0 0.83984,-0.79492 c 0.0225,-1.375 -3.3063,-1.23414 -3.26758,-3.58789 0.0238,-1.4575 1.12399,-2.02672 2.05274,-2.01172 z m -7.44922,1.36914 -0.8125,2.21875 1.30078,0.0801 -0.4668,-2.29883 z m 32.50977,2.9375 0.23242,1.79688 -1.79688,0.23242 -0.23242,-1.79688 z"
       transform="matrix(8,0,0,8,1445.27,1321.6782)"
       id="path926"
       inkscape:connector-curvature="0" />
    <path
       style="fill:#ffffff;fill-opacity:1;stroke-width:1"
       inkscape:connector-curvature="0"
       id="path932"
       d="m 2763.5,2436.0182 h 72.5 v -159.75 h -434.83 v 159.75 h 77.5 v 598.48 c 0,93.09 -5.52,149.58 -82,149.58 -4.65,0 -9.47,-0.5704 -14.29,-1 v 163.56 c 38.11,5.16 61,7.18 105.53,7.18 104.44,0 156.66,-17 207,-67.32 52.56,-52.56 68.59,-112.92 68.59,-258.31 z"
       class="cls-2" />
    <path
       style="fill:#ffffff;fill-opacity:1;stroke-width:1"
       inkscape:connector-curvature="0"
       id="path936"
       d="m 3354.92,2436.0182 h 72.53 v -159.75 h -434.88 v 159.75 h 77.61 v 598.48 c 0,93.09 -5.53,149.58 -82.15,149.58 -4.59,0 -9.4,-0.5704 -14.2,-1 v 163.56 c 38.09,5.16 60.92,7.18 105.45,7.18 104.48,0 156.73,-17 207,-67.32 52.56,-52.56 68.59,-112.92 68.59,-258.31 z"
       class="cls-2" />
    <path
       id="path998"
       d="m 2191.5583,4460.1282 v -29.57 a 21.14,21.14 0 0 0 5.11,0.7 q 5.56,0 7.13,-3.94 1.57,-3.94 1.47,-18.63 v -76 h -11.1 v -29 h 68.2 v 29 h -10.34 v 70.73 q 0,19.7 -1,27.78 a 35.82,35.82 0 0 1 -6,15.52 32.33,32.33 0 0 1 -13.21,11.19 q -8.09,3.73 -22.41,3.73 a 117.93,117.93 0 0 1 -17.85,-1.51 z"
       class="cls-1"
       inkscape:connector-curvature="0"
       style="fill:#ffffff" />
    <path
       id="path1000"
       d="m 2342.9383,4424.3582 h -68.86 v -28.89 h 11.09 v -63 h -11.11 v -28.9 h 68.86 v 28.9 h -11 v 63 h 11 z"
       class="cls-1"
       inkscape:connector-curvature="0"
       style="fill:#ffffff" />
    <path
       id="path1002"
       d="m 2403.7183,4424.3582 h -46.84 v -28.84 h 9.31 v -62.86 h -9.56 v -29 h 72.91 l 17.81,46.63 18.25,-46.63 h 72.49 v 29 h -9.48 v 62.86 h 9.74 v 28.84 h -63.1 v -28.86 h 9.65 v -63.15 l -36.5,92 h -18.08 l -36.15,-91.13 v 62.28 h 9.55 z"
       class="cls-1"
       inkscape:connector-curvature="0"
       style="fill:#ffffff" />
    <path
       id="path1004"
       d="m 2600.0683,4424.3582 h -46.9 v -28.84 h 9.3 v -62.86 h -9.56 v -29 h 72.92 l 17.81,46.63 18.24,-46.63 h 72.49 v 29 h -9.48 v 62.86 h 9.74 v 28.84 h -63.09 v -28.86 h 9.65 v -63.15 l -36.5,92 h -18.08 l -36.16,-91.14 v 62.28 h 9.58 z"
       class="cls-1"
       inkscape:connector-curvature="0"
       style="fill:#ffffff" />
    <path
       id="path1006"
       d="m 2840.1683,4424.3582 h -66 v -28.89 h 9.74 v -19.18 l -30.49,-43.77 h -8.25 v -28.9 h 63.18 v 28.92 h -7.21 l 12.86,24.66 15.57,-24.66 h -7.4 v -28.92 h 46.47 v 28.9 h -7.54 l -30.42,43.77 v 19.18 h 9.56 z"
       class="cls-1"
       inkscape:connector-curvature="0"
       style="fill:#ffffff" />
    <path
       id="path1008"
       d="m 2920.3183,4460.1282 v -29.57 a 21.43,21.43 0 0 0 5.15,0.7 q 5.53,0 7.12,-3.94 c 1,-2.59 1.5,-8.81 1.5,-18.63 v -76 h -11.14 v -29 h 68.22 v 29 h -10.34 v 70.73 q 0,19.7 -1.06,27.78 a 35.44,35.44 0 0 1 -6,15.52 32.15,32.15 0 0 1 -13.2,11.19 q -8.06,3.73 -22.43,3.73 a 118.17,118.17 0 0 1 -17.82,-1.51 z"
       class="cls-1"
       inkscape:connector-curvature="0"
       style="fill:#ffffff" />
    <path
       id="path1010"
       d="m 2998.1683,4363.6582 a 62.46,62.46 0 0 1 7.37,-29.27 q 7.28,-14.05 22.68,-23.71 a 56.06,56.06 0 0 1 11.25,-5.37 73.74,73.74 0 0 1 12.57,-3.07 89.21,89.21 0 0 1 14.25,-1.09 q 32.5,0 50.32,19 a 67.58,67.58 0 0 1 13.39,20.32 60.39,60.39 0 0 1 4.49,23.19 q 0,25.26 -18.41,43.93 -18.41,18.67 -49.79,18.67 -30.35,0 -49.2,-17.52 -18.85,-17.52 -18.92,-45.08 z m 52.46,0 q 0,20.15 3.91,27.18 a 12.43,12.43 0 0 0 11.75,7.14 12.74,12.74 0 0 0 11.81,-6.86 q 3.9,-7 3.92,-27.46 0,-19.92 -3.83,-27.12 a 12.54,12.54 0 0 0 -11.9,-7.14 12.72,12.72 0 0 0 -11.75,6.87 q -3.83,6.87 -3.86,27.39 z"
       class="cls-1"
       inkscape:connector-curvature="0"
       style="fill:#ffffff" />
    <path
       id="path1012"
       d="m 3207.8783,4424.3582 h -63.71 v -28.89 h 9.13 v -63 h -9.3 v -28.9 h 63.83 v 28.87 h -7.66 v 18.38 h 27.8 v -18.38 h -7.82 v -28.82 h 63.72 v 28.9 h -9.11 v 63 h 9.11 v 28.89 h -63.72 v -28.99 h 7.82 v -19.82 h -27.8 v 19.82 h 7.74 z"
       class="cls-1"
       inkscape:connector-curvature="0"
       style="fill:#ffffff" />
    <path
       id="path1014"
       d="m 3347.1683,4424.3582 h -49.63 v -28.84 h 10.63 v -62.86 h -10.61 v -29 h 57.29 l 44,63 v -34 h -9.82 v -29 h 48.77 v 29 h -10.54 v 93.27 h -39.81 l -50.93,-73 v 42.49 h 10.65 z"
       class="cls-1"
       inkscape:connector-curvature="0"
       style="fill:#ffffff" />
    <path
       id="path1016"
       d="m 3450.2883,4370.3282 v -17 c 4.63,0 8.14,-0.7 10.59,-2.08 2.45,-1.38 3.93,-3.1 4.52,-5 0.59,-1.9 1,-5.59 1,-11 h -16.15 v -31.63 h 43.37 v 27 q 0,14.49 -1,19.89 c -0.68,3.65 -2.71,7.19 -6.06,10.6 a 26.23,26.23 0 0 1 -12.28,7.22 q -7.32,1.99 -23.99,2 z"
       class="cls-1"
       inkscape:connector-curvature="0"
       style="fill:#ffffff" />
    <path
       id="path1018"
       d="m 3531.6983,4424.3582 h -27.17 v -38.74 h 27.17 q 4.87,15.74 18.32,15.75 9.72,0 9.72,-7.8 a 8.3,8.3 0 0 0 -3.38,-6.78 q -3.66,-3 -15.37,-8.18 -14.78,-6.68 -21.73,-11.55 a 37.5,37.5 0 0 1 -11.09,-12.24 32.79,32.79 0 0 1 -4.6,-17.11 q 0,-16.86 11,-26.31 c 7.24,-6.32 16.13,-9.47 26.74,-9.47 10.61,0 19.55,3 26.91,9.11 v -7.42 h 27.36 v 34.29 h -27 c -3.31,-9.48 -9.14,-14.21 -17.55,-14.21 -5.91,0 -8.86,2.51 -8.86,7.55 a 6.27,6.27 0 0 0 2.53,5.48 c 1.62,1.27 6.84,4.08 15.72,8.41 q 17.8,8.87 23.78,13 a 32.26,32.26 0 0 1 6.22,5.6 41.57,41.57 0 0 1 5.25,7.43 37.18,37.18 0 0 1 4.77,18.41 33.82,33.82 0 0 1 -11.28,25.7 q -11.3,10.69 -28.48,10.69 a 48,48 0 0 1 -28.92,-9.42 z"
       class="cls-1"
       inkscape:connector-curvature="0"
       style="fill:#ffffff" />
    <path
       d="m 2438.5822,4667.2854 h -37.6702 l -33.714,-90.5599 h -8.2564 v -28.1837 h 62.0096 v 28.1837 h -8.9445 l 14.1048,50.6966 17.889,-50.6966 h -8.8585 v -28.1837 h 52.1191 v 28.1837 h -8.8586 l 18.1471,50.6966 14.2769,-50.6966 h -8.6006 v -28.1837 h 48.2489 v 28.1837 h -8.2565 l -34.058,90.5599 h -37.1542 l -16.1689,-45.3646 z"
       style="font-style:normal;font-variant:normal;font-weight:normal;font-stretch:normal;font-size:174.73019409px;line-height:3.80998611px;font-family:'Rockwell Extra Bold';-inkscape-font-specification:'Rockwell Extra Bold, ';letter-spacing:0px;word-spacing:0px;fill:#ffffff;fill-opacity:1;stroke:none;stroke-width:1.00805879"
       id="path962"
       inkscape:connector-curvature="0" />
    <path
       d="m 2673.9781,4666.2698 h -114.1287 v -28.1837 h 9.2884 v -61.3606 h -9.4605 v -28.1837 h 114.3008 v 37.6628 h -31.3919 v -9.4791 h -27.1776 v 18.1119 h 23.6514 v 23.9519 h -23.6514 v 19.2968 h 27.1776 v -9.4791 h 31.3919 z"
       style="font-style:normal;font-variant:normal;font-weight:normal;font-stretch:normal;font-size:174.73019409px;line-height:3.80998611px;font-family:'Rockwell Extra Bold';-inkscape-font-specification:'Rockwell Extra Bold, ';letter-spacing:0px;word-spacing:0px;fill:#ffffff;fill-opacity:1;stroke:none;stroke-width:1.00805879"
       id="path965"
       inkscape:connector-curvature="0" />
    <path
       d="m 2757.8329,4666.2698 h -69.3201 v -28.1837 h 13.4168 l 39.2183,-30.1302 -39.2183,-31.2304 h -12.7288 v -28.1837 h 79.6407 v 24.7983 h -11.9546 l 20.1251,17.2656 17.8031,-17.2656 h -10.3206 v -24.7983 h 66.3959 v 28.1837 h -17.8891 l -32.2519,26.5755 42.7445,34.7851 h 11.9547 v 28.1837 h -80.5007 v -24.7983 h 12.5567 l -22.1033,-19.6353 -20.2971,19.6353 h 12.7287 z"
       style="font-style:normal;font-variant:normal;font-weight:normal;font-stretch:normal;font-size:174.73019409px;line-height:3.80998611px;font-family:'Rockwell Extra Bold';-inkscape-font-specification:'Rockwell Extra Bold, ';letter-spacing:0px;word-spacing:0px;fill:#ffffff;fill-opacity:1;stroke:none;stroke-width:1.00805879"
       id="path967"
       inkscape:connector-curvature="0" />
    <path
       d="m 2937.4114,4666.2698 h -72.6742 v -28.1837 h 12.5567 v -61.3606 h -12.9868 v -28.1837 h 117.827 v 38.7631 h -31.8219 v -10.5794 h -26.7476 v 18.1119 h 20.6413 v 23.9519 h -20.6413 v 19.2968 h 13.8468 z"
       style="font-style:normal;font-variant:normal;font-weight:normal;font-stretch:normal;font-size:174.73019409px;line-height:3.80998611px;font-family:'Rockwell Extra Bold';-inkscape-font-specification:'Rockwell Extra Bold, ';letter-spacing:0px;word-spacing:0px;fill:#ffffff;fill-opacity:1;stroke:none;stroke-width:1.00805879"
       id="path969"
       inkscape:connector-curvature="0" />
    <path
       d="m 3045.6918,4607.1096 q 0,19.6354 3.8702,26.4909 3.6982,6.94 11.6106,6.94 7.8265,0 11.6967,-6.6861 3.8703,-6.7708 3.8703,-26.7448 0,-19.3816 -3.7843,-26.4062 -3.6981,-6.9401 -11.7827,-6.9401 -7.7403,0 -11.6106,6.6861 -3.8702,6.6862 -3.8702,26.6602 z m -51.9471,0 q 0,-14.7266 7.3104,-28.5222 7.2245,-13.7109 22.4474,-23.1054 5.4183,-3.3008 11.0946,-5.2474 5.7623,-1.9466 12.4708,-2.9622 6.7083,-1.1003 14.1047,-1.1003 32.166,0 49.797,18.5352 8.7725,9.1406 13.2447,19.8047 4.4724,10.664 4.4724,22.5976 0,24.6289 -18.2332,42.8255 -18.2331,18.1966 -49.2809,18.1966 -30.0157,0 -48.6788,-17.0963 -18.7491,-17.0117 -18.7491,-43.9258 z"
       style="font-style:normal;font-variant:normal;font-weight:normal;font-stretch:normal;font-size:174.73019409px;line-height:3.80998611px;font-family:'Rockwell Extra Bold';-inkscape-font-specification:'Rockwell Extra Bold, ';letter-spacing:0px;word-spacing:0px;fill:#ffffff;fill-opacity:1;stroke:none;stroke-width:1.00805879"
       id="path971"
       inkscape:connector-curvature="0" />
    <path
       d="m 3201.1029,4574.3557 v 22.4284 h 5.1602 q 10.1487,0 13.7608,-0.5925 3.8703,-0.5924 6.5364,-3.3854 2.6662,-2.6237 2.6662,-7.194 0,-4.5703 -2.6662,-7.2786 -2.6661,-2.793 -6.7944,-3.3855 -3.9562,-0.5924 -14.4488,-0.5924 z m 9.0305,91.9141 h -65.0198 v -28.1837 h 9.7186 v -61.3606 h -9.7186 v -28.1837 h 65.0198 q 8.7725,0 16.2549,0.3386 7.4824,0.254 12.8148,0.8464 5.3323,0.5078 9.8046,1.4388 12.5566,2.6236 20.3831,11.4257 7.9125,8.9714 7.9125,21.1589 0,9.1406 -4.8162,16.5885 -4.8163,7.3634 -12.6428,10.8334 l 16.5129,26.914 h 8.6006 v 28.1837 h -43.0886 l -26.0595,-48.073 h -14.7068 v 19.8893 h 9.0305 z"
       style="font-style:normal;font-variant:normal;font-weight:normal;font-stretch:normal;font-size:174.73019409px;line-height:3.80998611px;font-family:'Rockwell Extra Bold';-inkscape-font-specification:'Rockwell Extra Bold, ';letter-spacing:0px;word-spacing:0px;fill:#ffffff;fill-opacity:1;stroke:none;stroke-width:1.00805879"
       id="path973"
       inkscape:connector-curvature="0" />
    <path
       d="m 3352.3857,4576.7255 v 61.3606 h 4.3863 q 16.3409,0 21.2432,-8.5481 4.8163,-8.5482 4.8163,-21.4975 0,-7.7864 -2.0641,-15.4036 -2.1502,-7.6171 -7.5685,-11.7643 -5.3323,-4.1471 -19.0932,-4.1471 z m 0,89.5443 h -55.6453 v -28.1837 h 9.3746 v -61.3606 h -9.3746 v -28.1837 h 57.2794 q 19.6091,0 31.9938,2.3698 12.4708,2.3698 23.4794,9.7331 10.9227,7.448 17.201,20.1433 3.0962,6.0938 4.7304,13.0338 1.634,6.9401 1.634,14.5573 0,15.3191 -6.6224,27.9297 -6.5364,12.5261 -16.5989,19.2122 -9.8046,6.6862 -21.5013,8.7175 -11.6107,2.0313 -35.9501,2.0313 z"
       style="font-style:normal;font-variant:normal;font-weight:normal;font-stretch:normal;font-size:174.73019409px;line-height:3.80998611px;font-family:'Rockwell Extra Bold';-inkscape-font-specification:'Rockwell Extra Bold, ';letter-spacing:0px;word-spacing:0px;fill:#ffffff;fill-opacity:1;stroke:none;stroke-width:1.00805879"
       id="path975"
       inkscape:connector-curvature="0" />
    <path
       d="m 2385.8437,4876.0425 v 16.9922 q -9.7656,-2.1484 -18.2942,-6.8359 -8.5287,-4.6875 -16.0808,-12.1745 -14.9088,-14.7135 -14.9088,-41.1458 0,-15.7552 5.1432,-26.8229 5.2083,-11.2631 16.7318,-20.2474 11.5234,-8.9844 27.4088,-13.0209 v 17.0573 q -6.5104,1.6927 -11.263,10.5469 -4.8828,8.8542 -4.8828,30.8594 0,21.2239 3.7109,30.9245 3.711,9.6354 12.4349,13.8671 z"
       style="font-style:normal;font-variant:normal;font-weight:normal;font-stretch:normal;font-size:133.33332825px;line-height:3.77952766px;font-family:'Rockwell Extra Bold';-inkscape-font-specification:'Rockwell Extra Bold, ';letter-spacing:0px;word-spacing:0px;fill:#ffffff;fill-opacity:1;stroke:none"
       id="path935"
       inkscape:connector-curvature="0" />
    <path
       d="m 2460.7135,4865.1701 h -52.2786 v -20.7031 h 11.7187 q 9.375,-27.9297 29.4922,-51.5625 h -32.2265 v 12.5651 h -17.9688 v -30.8593 h 72.4609 v 17.3177 q -19.7916,32.6171 -22.9817,52.539 h 11.7838 z"
       style="font-style:normal;font-variant:normal;font-weight:normal;font-stretch:normal;font-size:133.33332825px;line-height:3.77952766px;font-family:'Rockwell Extra Bold';-inkscape-font-specification:'Rockwell Extra Bold, ';letter-spacing:0px;word-spacing:0px;fill:#ffffff;fill-opacity:1;stroke:none"
       id="path937"
       inkscape:connector-curvature="0" />
    <path
       d="m 2545.4791,4836.8498 h 18.75 l -0.7812,28.3203 h -72.0703 q -0.1302,-2.7343 -0.1302,-2.7994 0,-12.6302 5.4687,-22.6563 2.7995,-5.1432 7.7474,-10.2213 4.9479,-5.0782 12.0443,-10.2214 11.9792,-8.8542 15.4297,-12.7604 3.4505,-4.0365 3.4505,-8.138 0,-3.9714 -2.3438,-6.5104 -2.3437,-2.5391 -7.0312,-2.5391 -10.026,0 -10.026,12.6953 l -23.3073,-0.7161 q 0.7161,-15.5599 10.3515,-22.0704 9.7005,-6.4453 24.4792,-6.4453 16.1458,0 26.1719,7.4219 10.026,7.487 10.026,19.5313 0,7.7474 -5.0781,14.3229 -5.2084,6.5755 -19.8568,14.0625 -11.8489,5.9896 -15.8854,9.0495 -4.1016,3.1901 -6.25,7.2265 h 28.5156 z"
       style="font-style:normal;font-variant:normal;font-weight:normal;font-stretch:normal;font-size:133.33332825px;line-height:3.77952766px;font-family:'Rockwell Extra Bold';-inkscape-font-specification:'Rockwell Extra Bold, ';letter-spacing:0px;word-spacing:0px;fill:#ffffff;fill-opacity:1;stroke:none"
       id="path939"
       inkscape:connector-curvature="0" />
    <path
       d="m 2597.4974,4819.2717 h 24.4791 v -24.7396 z m 60.8724,45.8984 h -47.3308 v -18.3593 h 10.9375 v -11.4584 h -38.151 l -5.0781,-18.8802 42.3177,-43.6849 h 27.9948 v 46.4844 h 9.3099 v 16.0807 h -9.3099 v 11.4584 h 9.3099 z"
       style="font-style:normal;font-variant:normal;font-weight:normal;font-stretch:normal;font-size:133.33332825px;line-height:3.77952766px;font-family:'Rockwell Extra Bold';-inkscape-font-specification:'Rockwell Extra Bold, ';letter-spacing:0px;word-spacing:0px;fill:#ffffff;fill-opacity:1;stroke:none"
       id="path941"
       inkscape:connector-curvature="0" />
    <path
       d="m 2671.4557,4789.8446 v -17.0573 q 19.4661,4.1667 34.4401,18.9453 14.8438,14.7136 14.8438,41.2761 0,15.7552 -5.2735,27.0182 -5.2734,11.263 -16.9922,20.2474 -11.7838,9.0495 -27.0182,12.7604 v -16.9922 q 6.3802,-1.7578 11.263,-10.677 4.8828,-8.9193 4.8828,-30.7943 0,-21.2891 -3.7109,-30.9245 -3.6458,-9.5703 -12.4349,-13.8021 z"
       style="font-style:normal;font-variant:normal;font-weight:normal;font-stretch:normal;font-size:133.33332825px;line-height:3.77952766px;font-family:'Rockwell Extra Bold';-inkscape-font-specification:'Rockwell Extra Bold, ';letter-spacing:0px;word-spacing:0px;fill:#ffffff;fill-opacity:1;stroke:none"
       id="path943"
       inkscape:connector-curvature="0" />
    <path
       d="m 2816.3776,4811.4592 q 0,-20.5078 -12.0443,-20.5078 -9.375,0 -9.375,11.849 0,6.0546 2.7995,9.2447 2.7344,3.3204 7.2265,3.3204 5.6641,0 11.3933,-3.9063 z m -47.6563,32.0964 22.6563,-2.0183 q 3.125,7.3568 10.9375,7.3568 12.9557,0 13.6067,-21.0937 -7.9427,5.5989 -18.75,5.5989 -12.1744,0 -20.638,-8.0729 -8.5937,-8.138 -8.5937,-20.7031 0,-14.8438 10.6771,-23.3724 10.6119,-8.4636 24.8697,-8.4636 17.7735,0 29.4922,12.1094 11.6537,12.2396 11.6537,35.4818 0,20.4427 -10.6771,33.0729 -10.612,12.5651 -31.5104,12.5651 -13.2813,0 -22.2005,-5.599 -8.9844,-5.5989 -11.5235,-16.8619 z"
       style="font-style:normal;font-variant:normal;font-weight:normal;font-stretch:normal;font-size:133.33332825px;line-height:3.77952766px;font-family:'Rockwell Extra Bold';-inkscape-font-specification:'Rockwell Extra Bold, ';letter-spacing:0px;word-spacing:0px;fill:#ffffff;fill-opacity:1;stroke:none"
       id="path945"
       inkscape:connector-curvature="0" />
    <path
       d="m 2858.3698,4834.441 23.4375,-1.7578 q 0.5859,14.4531 13.4765,14.4531 5.599,0 8.3333,-3.0599 2.6693,-3.0599 2.6693,-7.4219 0,-11.0677 -14.7786,-11.5885 v -14.7136 q 4.5573,0 8.5937,-2.6692 3.9714,-2.6042 3.9714,-7.7474 0,-4.1667 -2.6042,-6.7058 -2.6693,-2.4739 -7.0312,-2.4739 -9.3099,0 -10.0261,10.2864 l -24.4791,-1.302 q 0.7812,-13.5417 10.5468,-20.2474 9.7005,-6.7058 26.4974,-6.7058 17.9037,0 26.8229,7.2917 8.9193,7.3568 8.9193,18.099 0,6.4453 -3.776,11.4583 -3.7761,5.0781 -10.2214,7.0312 8.138,1.7579 12.6953,7.487 4.5573,5.7292 4.5573,13.8672 0,13.0208 -10.8073,20.5078 -10.8073,7.487 -28.4505,7.487 -17.7734,0 -27.8646,-7.7474 -9.9609,-7.6823 -10.4817,-23.8281 z"
       style="font-style:normal;font-variant:normal;font-weight:normal;font-stretch:normal;font-size:133.33332825px;line-height:3.77952766px;font-family:'Rockwell Extra Bold';-inkscape-font-specification:'Rockwell Extra Bold, ';letter-spacing:0px;word-spacing:0px;fill:#ffffff;fill-opacity:1;stroke:none"
       id="path947"
       inkscape:connector-curvature="0" />
    <path
       d="m 2949.3854,4840.8212 23.5677,-1.4974 q 3.125,7.4219 12.0443,7.4219 5.2734,0 8.9192,-2.8646 3.5157,-2.8646 3.5157,-8.9844 0,-5.9896 -3.5157,-8.7891 -3.5807,-2.7343 -8.3333,-2.7343 -7.2917,0 -12.2396,5.3385 l -19.7265,-6.9661 2.7343,-47.1354 h 66.7318 v 23.6979 h -15.2995 l -2.1484,-5.5339 h -32.3568 l -0.7812,17.9688 q 8.7239,-5.4688 20.7682,-5.4688 14.7135,0 24.349,7.8776 9.6354,7.8776 9.6354,21.6146 0,13.4115 -10.1563,22.3307 -10.2213,8.9193 -28.4505,8.9193 -16.0156,0 -26.4974,-6.7708 -10.4167,-6.7058 -12.7604,-18.4245 z"
       style="font-style:normal;font-variant:normal;font-weight:normal;font-stretch:normal;font-size:133.33332825px;line-height:3.77952766px;font-family:'Rockwell Extra Bold';-inkscape-font-specification:'Rockwell Extra Bold, ';letter-spacing:0px;word-spacing:0px;fill:#ffffff;fill-opacity:1;stroke:none"
       id="path949"
       inkscape:connector-curvature="0" />
    <path
       d="m 3088.8385,4847.6571 h -46.4844 v -28.0599 h 46.4844 z"
       style="font-style:normal;font-variant:normal;font-weight:normal;font-stretch:normal;font-size:133.33332825px;line-height:3.77952766px;font-family:'Rockwell Extra Bold';-inkscape-font-specification:'Rockwell Extra Bold, ';letter-spacing:0px;word-spacing:0px;fill:#ffffff;fill-opacity:1;stroke:none"
       id="path951"
       inkscape:connector-curvature="0" />
    <path
       d="m 3151.2734,4811.4592 q 0,-20.5078 -12.0443,-20.5078 -9.375,0 -9.375,11.849 0,6.0546 2.7995,9.2447 2.7344,3.3204 7.2266,3.3204 5.664,0 11.3932,-3.9063 z m -47.6562,32.0964 22.6562,-2.0183 q 3.125,7.3568 10.9375,7.3568 12.9557,0 13.6068,-21.0937 -7.9427,5.5989 -18.75,5.5989 -12.1745,0 -20.638,-8.0729 -8.5938,-8.138 -8.5938,-20.7031 0,-14.8438 10.6771,-23.3724 10.612,-8.4636 24.8698,-8.4636 17.7734,0 29.4922,12.1094 11.6536,12.2396 11.6536,35.4818 0,20.4427 -10.6771,33.0729 -10.6119,12.5651 -31.5104,12.5651 -13.2812,0 -22.2005,-5.599 -8.9844,-5.5989 -11.5234,-16.8619 z"
       style="font-style:normal;font-variant:normal;font-weight:normal;font-stretch:normal;font-size:133.33332825px;line-height:3.77952766px;font-family:'Rockwell Extra Bold';-inkscape-font-specification:'Rockwell Extra Bold, ';letter-spacing:0px;word-spacing:0px;fill:#ffffff;fill-opacity:1;stroke:none"
       id="path953"
       inkscape:connector-curvature="0" />
    <path
       d="m 3261.69,4865.1701 h -54.1666 v -20.8333 h 12.8906 v -40.9505 q -3.5156,0.9114 -9.6354,0.9114 -1.9531,0 -3.2552,-0.1953 v -20.052 q 0.7812,0.065 1.6276,0.065 8.5286,0 15.8203,-3.3204 7.4219,-3.3854 10.612,-8.0078 h 13.6067 v 71.5495 h 12.5 z"
       style="font-style:normal;font-variant:normal;font-weight:normal;font-stretch:normal;font-size:133.33332825px;line-height:3.77952766px;font-family:'Rockwell Extra Bold';-inkscape-font-specification:'Rockwell Extra Bold, ';letter-spacing:0px;word-spacing:0px;fill:#ffffff;fill-opacity:1;stroke:none"
       id="path955"
       inkscape:connector-curvature="0" />
    <path
       d="m 3315.3359,4819.4019 q 0,16.9922 2.5391,22.2005 2.539,5.2735 7.0312,5.2735 4.5573,0 6.9662,-5.5339 2.4088,-5.4036 2.4088,-21.9401 0,-17.1875 -2.5391,-22.3307 -2.6041,-5.0781 -6.9661,-5.0781 -4.2969,0 -6.8359,5.0781 -2.6042,5.1432 -2.6042,22.3307 z m -29.4922,0 q 0,-22.2005 11.5234,-34.375 11.5235,-12.2396 27.4089,-12.2396 16.5365,0 27.7995,12.6302 11.1979,12.6303 11.1979,33.9844 0,22.461 -11.5885,34.5052 -11.5886,12.1094 -27.4089,12.1094 -16.4714,0 -27.7344,-12.6302 -11.1979,-12.5651 -11.1979,-33.9844 z"
       style="font-style:normal;font-variant:normal;font-weight:normal;font-stretch:normal;font-size:133.33332825px;line-height:3.77952766px;font-family:'Rockwell Extra Bold';-inkscape-font-specification:'Rockwell Extra Bold, ';letter-spacing:0px;word-spacing:0px;fill:#ffffff;fill-opacity:1;stroke:none"
       id="path957"
       inkscape:connector-curvature="0" />
    <path
       d="m 3407.0026,4819.4019 q 0,16.9922 2.539,22.2005 2.5391,5.2735 7.0313,5.2735 4.5573,0 6.9661,-5.5339 2.4089,-5.4036 2.4089,-21.9401 0,-17.1875 -2.5391,-22.3307 -2.6041,-5.0781 -6.9661,-5.0781 -4.2969,0 -6.836,5.0781 -2.6041,5.1432 -2.6041,22.3307 z m -29.4922,0 q 0,-22.2005 11.5234,-34.375 11.5235,-12.2396 27.4089,-12.2396 16.5364,0 27.7995,12.6302 11.1979,12.6303 11.1979,33.9844 0,22.461 -11.5886,34.5052 -11.5885,12.1094 -27.4088,12.1094 -16.4714,0 -27.7344,-12.6302 -11.1979,-12.5651 -11.1979,-33.9844 z"
       style="font-style:normal;font-variant:normal;font-weight:normal;font-stretch:normal;font-size:133.33332825px;line-height:3.77952766px;font-family:'Rockwell Extra Bold';-inkscape-font-specification:'Rockwell Extra Bold, ';letter-spacing:0px;word-spacing:0px;fill:#ffffff;fill-opacity:1;stroke:none"
       id="path959"
       inkscape:connector-curvature="0" />
  </g>
</svg>
