<?xml version="1.0" encoding="UTF-8" standalone="no"?>
<svg
   xmlns:dc="http://purl.org/dc/elements/1.1/"
   xmlns:cc="http://creativecommons.org/ns#"
   xmlns:rdf="http://www.w3.org/1999/02/22-rdf-syntax-ns#"
   xmlns:svg="http://www.w3.org/2000/svg"
   xmlns="http://www.w3.org/2000/svg"
   xmlns:sodipodi="http://sodipodi.sourceforge.net/DTD/sodipodi-0.dtd"
   xmlns:inkscape="http://www.inkscape.org/namespaces/inkscape"
   viewBox="0 0 198.14667 51.599998"
   height="51.599998"
   width="198.14667"
   xml:space="preserve"
   id="svg2"
   version="1.1"
   sodipodi:docname="PPG - Black.svg"
   inkscape:version="0.92.2 (5c3e80d, 2017-08-06)"><sodipodi:namedview
     pagecolor="#ffffff"
     bordercolor="#666666"
     borderopacity="1"
     objecttolerance="10"
     gridtolerance="10"
     guidetolerance="10"
     inkscape:pageopacity="0"
     inkscape:pageshadow="2"
     inkscape:window-width="2560"
     inkscape:window-height="1361"
     id="namedview837"
     showgrid="false"
     inkscape:pagecheckerboard="true"
     inkscape:zoom="7.4476743"
     inkscape:cx="113.28314"
     inkscape:cy="27.284237"
     inkscape:window-x="-9"
     inkscape:window-y="-9"
     inkscape:window-maximized="1"
     inkscape:current-layer="svg2" /><metadata
     id="metadata8"><rdf:RDF><cc:Work
         rdf:about=""><dc:format>image/svg+xml</dc:format><dc:type
           rdf:resource="http://purl.org/dc/dcmitype/StillImage" /><dc:title /></cc:Work></rdf:RDF></metadata><defs
     id="defs6" /><g
     transform="matrix(1.3333333,0,0,-1.3333333,0,51.6)"
     id="g10"
     style="fill:#000000;fill-opacity:1"><g
       transform="scale(0.1)"
       id="g12"
       style="fill:#000000;fill-opacity:1"><path
         id="path14"
         style="fill:#000000;fill-opacity:1;fill-rule:nonzero;stroke:none"
         d="m 1302.09,121.68 c -1.05,1.074 -1.67,2.754 -0.52,4.16 l 17.03,19.824 c 1.07,1.426 2.71,1.426 3.83,0.274 12.07,-9.61 29.98,-19.805 50.9,-19.805 22.24,0 35.21,11.289 35.21,26.933 0,13.497 -8.26,22.227 -34.12,25.704 l -9.9,1.425 c -36.04,5.02 -56.35,22.34 -56.35,53.414 0,33.789 24.73,56.387 63.22,56.387 23.36,0 45.67,-7.402 60.53,-18.691 1.37,-1.133 1.66,-2.246 0.53,-3.907 l -13.21,-20.39 c -1.11,-1.406 -2.46,-1.68 -3.86,-0.82 -15.1,9.882 -29.13,14.667 -44.81,14.667 -18.98,0 -29.43,-10.488 -29.43,-25.175 0,-12.813 9.1,-21.563 34.37,-25.215 l 9.89,-1.445 c 36.07,-4.805 55.85,-21.993 55.85,-54.02 0,-33.32 -23.96,-58.0078 -70.39,-58.0078 -27.53,0 -54.18,10.9958 -68.77,24.6878 z m -86.58,-21.7972 c -1.68,0 -2.81,1.1132 -2.81,2.8322 V 256.07 c 0,1.153 -0.53,1.7 -1.6,1.7 h -49.01 c -1.64,0 -2.75,1.113 -2.75,2.793 v 23.574 c 0,1.66 1.11,2.754 2.75,2.754 h 133.7 c 1.66,0 2.79,-1.094 2.79,-2.754 v -23.574 c 0,-1.68 -1.13,-2.793 -2.79,-2.793 h -48.95 c -1.07,0 -1.64,-0.547 -1.64,-1.7 V 102.715 c 0,-1.719 -1.13,-2.8322 -2.79,-2.8322 z M 1001.18,284.137 c 0,1.66 1.05,2.754 2.67,2.754 h 25.37 c 2.19,0 3.56,-0.821 4.63,-2.754 l 76.25,-128.844 h 1.08 v 128.844 c 0,1.66 1.11,2.754 2.75,2.754 h 23.95 c 1.66,0 2.77,-1.094 2.77,-2.754 V 102.715 c 0,-1.719 -1.11,-2.8322 -2.77,-2.8322 h -25.02 c -2.19,0 -3.6,0.8592 -4.69,2.8322 l -76.49,128.668 h -1.09 V 102.715 c 0,-1.719 -1.09,-2.8322 -2.75,-2.8322 h -23.99 c -1.62,0 -2.67,1.1132 -2.67,2.8322 z m -73.735,0 c 0,1.66 1.094,2.754 2.715,2.754 h 26.973 c 1.66,0 2.754,-1.094 2.754,-2.754 V 102.715 c 0,-1.719 -1.094,-2.8322 -2.754,-2.8322 H 930.16 c -1.621,0 -2.715,1.1132 -2.715,2.8322 z m -71.074,-116.324 -24.726,72.671 h -0.801 l -25.039,-72.671 z m -40.937,116.324 c 0.546,1.66 1.66,2.754 3.535,2.754 h 25.332 c 1.914,0 2.988,-1.094 3.574,-2.754 l 63.223,-181.422 c 0.586,-1.719 0,-2.8322 -1.914,-2.8322 H 882.23 c -1.875,0 -3.007,0.8592 -3.574,2.8322 l -12.363,36.23 h -70.391 l -12.363,-36.23 c -0.586,-1.973 -1.641,-2.8322 -3.613,-2.8322 h -26.684 c -1.941,0 -2.519,1.1132 -1.941,2.8322 z m -81.848,-55.274 c 0,17.032 -11.84,28.907 -31.137,28.907 h -36.785 c -1.144,0 -1.699,-0.547 -1.699,-1.7 v -54.433 c 0,-1.094 0.555,-1.68 1.699,-1.68 h 36.785 c 19.297,0 31.137,11.621 31.137,28.906 z M 634.219,99.8828 c -1.614,0 -2.688,1.1132 -2.688,2.8322 v 181.422 c 0,1.66 1.074,2.754 2.688,2.754 h 70.215 c 36.281,0 61.574,-23.262 61.574,-58.028 0,-34.863 -25.293,-58.297 -61.574,-58.297 h -38.77 c -1.144,0 -1.699,-0.546 -1.699,-1.699 v -66.152 c 0,-1.719 -1.145,-2.8322 -2.715,-2.8322 h -27.031" /><path
         id="path16"
         style="fill:#000000;fill-opacity:1;fill-rule:nonzero;stroke:none"
         d="m 1482.23,256.598 c -0.37,0 -0.58,0.215 -0.58,0.566 v 11.602 h -0.1 l -3.89,-8.34 c -0.17,-0.352 -0.39,-0.567 -0.72,-0.567 h -2.62 c -0.35,0 -0.51,0.215 -0.68,0.567 l -3.95,8.34 h -0.1 v -11.602 c 0,-0.351 -0.23,-0.566 -0.58,-0.566 h -3.26 c -0.37,0 -0.59,0.215 -0.59,0.566 v 21.27 c 0,0.351 0.22,0.566 0.59,0.566 h 2.99 c 0.33,0 0.62,-0.215 0.82,-0.566 l 6.09,-13.164 h 0.14 l 5.91,13.164 c 0.16,0.351 0.47,0.566 0.8,0.566 h 2.99 c 0.37,0 0.59,-0.215 0.59,-0.566 v -21.27 c 0,-0.351 -0.22,-0.566 -0.59,-0.566 z m -31.74,0 c -0.33,0 -0.56,0.215 -0.56,0.566 v 17.363 c 0,0.215 -0.12,0.332 -0.34,0.332 h -5.68 c -0.37,0 -0.58,0.215 -0.58,0.567 v 3.008 c 0,0.351 0.21,0.566 0.58,0.566 h 16.74 c 0.37,0 0.59,-0.215 0.59,-0.566 v -3.008 c 0,-0.352 -0.22,-0.567 -0.59,-0.567 H 1455 c -0.25,0 -0.37,-0.117 -0.37,-0.332 v -17.363 c 0,-0.351 -0.21,-0.566 -0.56,-0.566 h -3.58" /><path
         id="path18"
         style="fill:#000000;fill-opacity:1;fill-rule:nonzero;stroke:none"
         d="m 475.625,247.34 c -16.082,13.379 -36.387,19.492 -56.324,13.574 -15.395,-4.551 -28.008,-20.801 -30.848,-35.508 -5.039,-29.453 -2.906,-72.593 8.953,-87.926 9.387,-12.128 26.223,-15.996 38.664,-12.089 v 44.121 c 0,12.597 -5.058,20.836 -15.07,24.293 l 54.625,0.019 V 96.9141 c -11.848,-2.1485 -23.684,-3.2227 -35.867,-3.5938 -18.668,-1.4453 -36.606,0.3711 -52.403,6.8167 -35.867,13.965 -47.46,49.433 -48.992,84.765 -18.652,-37.597 -54.261,-46.386 -75.058,-47.695 -7.367,-0.332 -13.793,0.195 -22.52,3.32 l -27.031,26.934 V 59.9805 c 0,-12.5586 5.07,-21.0547 15.031,-24.5313 H 157.488 V 195.523 c -11.211,-33.531 -40.961,-39.957 -57.5036,-40.855 0,0 -6.6641,-0.215 -14.2969,1.66 l -17.2852,17.285 v -54.355 c 0,-12.617 5.0704,-21.2892 15.0704,-24.7463 H 23.543 V 292.34 c 0,0 20.8203,0 36.5937,0 43.5083,0 84.1763,4.16 97.3513,-34.551 v 93.524 c 0,0 22.414,0 44.621,0 79.239,0.019 145.629,9.492 148.364,-99.032 0.617,1.407 0.992,2.168 0.992,2.168 0,0 7.183,14.727 24.047,25.489 20.816,12.929 48.074,18.535 100.113,10.292 z M 415.727,387.004 H 83.4258 C 37.5469,387.004 0,349.457 0,303.559 V 83.418 C 0,37.5391 37.5469,0 83.4258,0 H 415.727 c 45.906,0 83.421,37.5391 83.421,83.418 v 220.141 c 0,45.898 -37.515,83.445 -83.421,83.445" /><path
         id="path20"
         style="fill:#000000;fill-opacity:1;fill-rule:nonzero;stroke:none"
         d="m 235.355,320.043 c -9.957,-1.25 -21.601,-8.008 -21.601,-17.84 V 184.219 c 0,0 14.101,-10.215 35.973,-10.215 12.32,0 45.453,7.773 45.453,77.457 0,77.332 -49.157,69.93 -59.825,68.582" /><path
         id="path22"
         style="fill:#000000;fill-opacity:1;fill-rule:nonzero;stroke:none"
         d="m 79.3711,269.703 c -6.5977,-0.781 -10.9688,-4.941 -10.9688,-10.996 v -71.113 c 0,0 5.9961,-6.324 20.4844,-6.324 10.0547,0 29.6643,2.148 29.6643,46.753 0,47.618 -32.1213,42.5 -39.1799,41.68" /></g></g></svg>