<?xml version="1.0" encoding="UTF-8" standalone="no"?>
<svg
   xmlns:dc="http://purl.org/dc/elements/1.1/"
   xmlns:cc="http://creativecommons.org/ns#"
   xmlns:rdf="http://www.w3.org/1999/02/22-rdf-syntax-ns#"
   xmlns:svg="http://www.w3.org/2000/svg"
   xmlns="http://www.w3.org/2000/svg"
   viewBox="0 0 549.33331 240"
   height="240"
   width="549.33331"
   xml:space="preserve"
   id="svg2"
   version="1.1"><metadata
     id="metadata8"><rdf:RDF><cc:Work
         rdf:about=""><dc:format>image/svg+xml</dc:format><dc:type
           rdf:resource="http://purl.org/dc/dcmitype/StillImage" /></cc:Work></rdf:RDF></metadata><defs
     id="defs6" /><g
     transform="matrix(1.3333333,0,0,-1.3333333,0,240)"
     id="g10"><g
       transform="scale(0.1)"
       id="g12"><path
         id="path14"
         style="fill:#ffffff;fill-opacity:1;fill-rule:nonzero;stroke:none"
         d="M 1059,1185.29 V 849.469 c 0,-112.137 -49.64,-158.707 -166.07,-158.707 -116.442,0 -166.078,46.57 -166.078,158.707 V 1200 H 614.707 C 604.906,1200 600,1195.09 600,1185.29 V 843.957 c 0,-187.527 119.496,-253.098 292.93,-253.098 173.42,0 292.92,65.571 292.92,253.098 V 1200 H 1073.7 c -9.8,0 -14.7,-4.91 -14.7,-14.71" /><path
         id="path16"
         style="fill:#ffffff;fill-opacity:1;fill-rule:nonzero;stroke:none"
         d="m 2684.69,1102.56 c 9.19,0 13.48,3.06 16.54,9.8 l 32.49,80.29 c 1.84,4.89 0,7.35 -4.91,7.35 h -451.64 c -42.29,0 -58.21,-12.87 -58.21,-41.68 V 636.828 c 0,-24.519 12.24,-35.547 44.73,-35.547 h 421 c 9.19,0 13.48,3.071 16.54,9.801 l 32.49,80.289 c 1.84,4.899 0,7.348 -4.91,7.348 h -385.45 v 106.019 c 0,36.77 20.22,53.317 74.75,53.317 h 167.31 c 9.19,0 13.47,3.058 16.54,9.8 l 31.26,77.215 c 1.83,4.907 0,7.352 -4.91,7.352 h -284.95 v 150.138 h 341.33" /><path
         id="path18"
         style="fill:#ffffff;fill-opacity:1;fill-rule:nonzero;stroke:none"
         d="m 1771.96,697.488 h -221.29 v 109.703 c 0,36.766 20.22,53.309 74.77,53.309 h 146.52 c 70.47,0 90.08,-26.965 90.08,-82.121 0,-55.149 -19.61,-80.891 -90.08,-80.891 z m -221.29,406.302 h 198 c 66.18,0 84.57,-24.93 84.57,-76.6 0,-51.674 -18.39,-76.608 -84.57,-76.608 h -198 z m 338.95,-186.907 c 49.02,25.738 69.24,74.148 69.24,131.137 0,132.37 -107.85,151.98 -219.38,151.98 h -254.93 c -42.29,0 -58.21,-12.87 -58.21,-41.68 V 636.828 c 0,-24.519 12.25,-35.547 44.73,-35.547 h 313.76 c 118.27,0 202.83,45.957 202.83,165.457 0,71.703 -30.64,132.371 -98.04,150.145" /><path
         id="path20"
         style="fill:#ffffff;fill-opacity:1;fill-rule:nonzero;stroke:none"
         d="M 3282.46,922.402 H 3074.1 v 181.378 h 208.36 c 77.82,0 94.98,-30.02 94.98,-90.69 0,-61.277 -17.16,-90.688 -94.98,-90.688 z m 234.09,-310.703 -134.2,230.418 c 66.79,17.156 120.72,61.278 120.72,173.423 0,145.23 -90.09,184.46 -239,184.46 h -256.15 c -42.28,0 -58.22,-12.87 -58.22,-41.68 V 615.988 c 0,-9.797 4.91,-14.707 14.71,-14.707 H 3074.1 V 775.93 c 0,36.769 20.22,53.32 74.77,53.32 h 110.3 L 3380.5,611.082 c 3.68,-6.121 7.36,-9.801 16.55,-9.801 h 113.99 c 7.97,0 7.97,6.75 5.51,10.418" /></g></g></svg>