<?xml version="1.0" encoding="UTF-8" standalone="no"?>
<!-- Created with Inkscape (http://www.inkscape.org/) -->

<svg
   xmlns:dc="http://purl.org/dc/elements/1.1/"
   xmlns:cc="http://creativecommons.org/ns#"
   xmlns:rdf="http://www.w3.org/1999/02/22-rdf-syntax-ns#"
   xmlns:svg="http://www.w3.org/2000/svg"
   xmlns="http://www.w3.org/2000/svg"
   xmlns:sodipodi="http://sodipodi.sourceforge.net/DTD/sodipodi-0.dtd"
   xmlns:inkscape="http://www.inkscape.org/namespaces/inkscape"
   width="150"
   height="51.906231"
   id="svg2"
   version="1.1"
   inkscape:version="0.92.2 (5c3e80d, 2017-08-06)"
   sodipodi:docname="bnymellon.svg">
  <defs
     id="defs4">
    <clipPath
       id="clipPath3351"
       clipPathUnits="userSpaceOnUse">
      <path
         id="path3353"
         d="M 446.118,1.119 H 581.473 V 72.4 H 446.118 Z"
         inkscape:connector-curvature="0" />
    </clipPath>
    <clipPath
       id="clipPath3329"
       clipPathUnits="userSpaceOnUse">
      <path
         id="path3331"
         d="M 203.52,760.144 H 577.089 V 593 H 203.52 Z"
         inkscape:connector-curvature="0" />
    </clipPath>
    <clipPath
       id="clipPath3315"
       clipPathUnits="userSpaceOnUse">
      <path
         id="path3317"
         d="M 207,757 H 631.72 V 593 H 207 Z"
         inkscape:connector-curvature="0" />
    </clipPath>
    <clipPath
       id="clipPath3301"
       clipPathUnits="userSpaceOnUse">
      <path
         id="path3303"
         d="M -1,757 H 37 V 593 H -1 Z"
         inkscape:connector-curvature="0" />
    </clipPath>
    <clipPath
       id="clipPath3293"
       clipPathUnits="userSpaceOnUse">
      <path
         id="path3295"
         d="M 0,0 H 612 V 792 H 0 Z"
         inkscape:connector-curvature="0" />
    </clipPath>
    <clipPath
       id="clipPath3021"
       clipPathUnits="userSpaceOnUse">
      <path
         id="path3023"
         d="M 181.88,757 H 209 V 593 h -27.12 z"
         inkscape:connector-curvature="0" />
    </clipPath>
    <clipPath
       id="clipPath3013"
       clipPathUnits="userSpaceOnUse">
      <path
         id="path3015"
         d="M 0,0 H 612 V 792 H 0 Z"
         inkscape:connector-curvature="0" />
    </clipPath>
    <clipPath
       id="clipPath2999"
       clipPathUnits="userSpaceOnUse">
      <path
         id="path3001"
         d="M 0,594 H 194.96 V 756 H 0 Z"
         inkscape:connector-curvature="0" />
    </clipPath>
  </defs>
  <sodipodi:namedview
     id="base"
     pagecolor="#ffffff"
     bordercolor="#666666"
     borderopacity="1.0"
     inkscape:pageopacity="0.0"
     inkscape:pageshadow="2"
     inkscape:zoom="3.959798"
     inkscape:cx="-10.810564"
     inkscape:cy="21.737192"
     inkscape:document-units="px"
     inkscape:current-layer="g3367"
     showgrid="false"
     fit-margin-left="0.5"
     fit-margin-bottom="0.5"
     fit-margin-top="0.5"
     fit-margin-right="0.5"
     inkscape:window-width="2048"
     inkscape:window-height="1073"
     inkscape:window-x="-9"
     inkscape:window-y="-9"
     inkscape:window-maximized="1" />
  <metadata
     id="metadata7">
    <rdf:RDF>
      <cc:Work
         rdf:about="">
        <dc:format>image/svg+xml</dc:format>
        <dc:type
           rdf:resource="http://purl.org/dc/dcmitype/StillImage" />
        <dc:title></dc:title>
      </cc:Work>
    </rdf:RDF>
  </metadata>
  <g
     inkscape:label="Layer 1"
     inkscape:groupmode="layer"
     id="layer1"
     transform="translate(-557.58463,-939.34567)">
    <g
       transform="matrix(1.25,0,0,-1.25,-7.5,1018.9724)"
       inkscape:label="factsheet"
       id="g2993">
      <g
         id="g3347"
         transform="matrix(0.96642798,0,0,0.96642798,15.190255,0.75793529)">
        <g
           clip-path="url(#clipPath3351)"
           id="g3349">
          <g
             transform="translate(482.9877,52.781906)"
             id="g3355">
            <path
               id="path3357"
               style="fill:#b07e25;fill-opacity:1;fill-rule:nonzero;stroke:none"
               d="M 0,0 -14.638,5.723 C -17.784,4.002 -20.355,2.01 -22.442,0 c 2.087,-2.006 4.658,-3.997 7.804,-5.723 z"
               inkscape:connector-curvature="0" />
          </g>
          <g
             transform="translate(452.4677,64.716095)"
             id="g3359">
            <path
               id="path3361"
               style="fill:#a7a5a6;fill-opacity:1;fill-rule:nonzero;stroke:none"
               d="m 0,0 c 0,0 1.55,-5.038 6.636,-10.465 2.255,1.733 4.973,3.312 8.202,4.666 z"
               inkscape:connector-curvature="0" />
          </g>
          <g
             transform="translate(452.4677,40.850098)"
             id="g3363">
            <path
               id="path3365"
               style="fill:#a49668;fill-opacity:1;fill-rule:nonzero;stroke:none"
               d="M 0,0 C 0,0 1.55,5.035 6.636,10.464 8.891,8.731 11.609,7.156 14.838,5.8 Z"
               inkscape:connector-curvature="0" />
          </g>
          <g
             transform="translate(526.9435,23.944397)"
             id="g3367">
            <path
               id="path3369"
               style="fill:#b3aeb1;fill-opacity:1;fill-rule:nonzero;stroke:none"
               d="m 0,0 h -4.141 v 4.535 h 3.126 V 3.172 H 0.033 V 6.908 H -1.015 V 5.563 h -3.126 v 4.321 h 3.979 V 8.37 h 1.031 v 3.059 H -0.179 V 10.928 H -7.47 v -0.884 h 1.329 V -0.134 H -7.47 V -1.028 H 1.048 V 1.568 H 0 Z m 45.062,10.928 v -0.884 h 1.349 V 2.463 l -6.183,8.465 h -3.101 v -0.884 h 1.284 l 0.425,-0.599 v -9.579 h -1.347 v -0.894 h 3.817 v 0.894 H 39.955 V 7.92 L 46.6,-1.227 h 0.933 v 11.271 h 1.332 v 0.884 z m -15.4,0.216 c -3.282,0 -5.956,-2.786 -5.956,-6.212 0,-3.413 2.674,-6.19 5.956,-6.19 3.259,0 5.907,2.786 5.907,6.21 0,3.415 -2.648,6.192 -5.907,6.192 m 0,-11.245 c -2.218,0 -3.762,2.079 -3.762,5.053 0,2.967 1.558,5.035 3.782,5.035 2.175,0 3.695,-2.068 3.695,-5.035 0,-2.974 -1.526,-5.053 -3.715,-5.053 m -46.808,2.434 -4.026,8.595 h -3.338 v -0.884 h 1.348 V -0.134 h -1.348 v -0.894 h 3.819 v 0.894 h -1.348 V 8.16 l 4.459,-9.528 4.234,9.318 v -8.084 h -1.33 v -0.894 h 4.663 v 0.894 h -1.337 v 10.178 h 1.337 v 0.884 h -3.172 z M 11.214,0 H 7.282 v 10.044 h 1.336 v 0.884 H 3.946 V 10.044 H 5.281 V -0.134 H 3.946 v -0.894 h 8.318 v 2.596 h -1.05 z m 10.247,0 h -3.942 v 10.044 h 1.332 v 0.884 h -4.666 v -0.884 h 1.338 V -0.134 h -1.338 v -0.894 h 8.318 V 1.568 H 21.461 Z M -35.16,10.044 h 1.53 l -2.569,-4.238 -2.761,4.238 h 1.386 v 0.884 h -4.828 v -0.884 h 1.078 l 3.636,-5.59 v -4.588 h -1.332 v -0.894 h 4.663 v 0.894 h -1.35 v 4.693 l 3.362,5.485 h 0.969 v 0.884 h -3.784 z m -24.465,-4.76 c 1.135,0.323 2.194,1.207 2.194,2.621 0,1.837 -1.363,3.023 -3.478,3.023 h -5.489 v -0.884 h 1.332 V -0.134 h -1.332 v -0.894 h 5.803 c 2.239,0 3.734,1.273 3.734,3.172 0,1.878 -1.348,2.832 -2.764,3.14 m -3.44,4.6 h 1.466 c 0.778,0 2.082,-0.268 2.082,-2.049 0,-1.48 -1.095,-2.145 -2.179,-2.145 h -1.369 z M -61.533,0 h -1.532 v 4.657 h 1.532 c 1.594,0 2.623,-0.951 2.623,-2.422 C -58.91,0.588 -60.319,0 -61.533,0 m 14.414,10.044 h 1.355 V 2.463 l -6.19,8.465 h -3.091 v -0.884 h 1.278 l 0.422,-0.599 v -9.583 h -1.351 v -0.89 h 3.819 v 0.89 h -1.345 V 7.92 l 6.646,-9.147 h 0.929 v 11.271 h 1.333 v 0.884 h -3.805 z"
               inkscape:connector-curvature="0" />
          </g>
        </g>
      </g>
    </g>
  </g>
</svg>
