<?xml version="1.0" encoding="UTF-8" standalone="no"?>
<svg
   xmlns:dc="http://purl.org/dc/elements/1.1/"
   xmlns:cc="http://creativecommons.org/ns#"
   xmlns:rdf="http://www.w3.org/1999/02/22-rdf-syntax-ns#"
   xmlns:svg="http://www.w3.org/2000/svg"
   xmlns="http://www.w3.org/2000/svg"
   xmlns:sodipodi="http://sodipodi.sourceforge.net/DTD/sodipodi-0.dtd"
   xmlns:inkscape="http://www.inkscape.org/namespaces/inkscape"
   id="Layer_1"
   data-name="Layer 1"
   viewBox="0 0 2901.46 3491.3565"
   version="1.1"
   sodipodi:docname="jimmyjohns.svg"
   inkscape:version="0.92.2 (5c3e80d, 2017-08-06)"
   width="362.6825"
   height="436.41956">
  <metadata
     id="metadata1023">
    <rdf:RDF>
      <cc:Work
         rdf:about="">
        <dc:format>image/svg+xml</dc:format>
        <dc:type
           rdf:resource="http://purl.org/dc/dcmitype/StillImage" />
        <dc:title>jimmy johns circle logo</dc:title>
      </cc:Work>
    </rdf:RDF>
  </metadata>
  <sodipodi:namedview
     pagecolor="#ffffff"
     bordercolor="#666666"
     borderopacity="1"
     objecttolerance="10"
     gridtolerance="10"
     guidetolerance="10"
     inkscape:pageopacity="0"
     inkscape:pageshadow="2"
     inkscape:window-width="2048"
     inkscape:window-height="1073"
     id="namedview1021"
     showgrid="false"
     inkscape:zoom="0.93835536"
     inkscape:cx="605.31369"
     inkscape:cy="-31.219331"
     inkscape:window-x="-9"
     inkscape:window-y="-9"
     inkscape:window-maximized="1"
     inkscape:current-layer="layer2"
     inkscape:pagecheckerboard="true"
     viewbox-width="2901.46"
     scale-x="2"
     fit-margin-top="0"
     fit-margin-left="0"
     fit-margin-right="0"
     fit-margin-bottom="0" />
  <defs
     id="defs922">
    <style
       id="style920">.cls-1{fill:#fff;}.cls-2{fill:#e31837;}</style>
  </defs>
  <title
     id="title924">jimmy johns circle logo</title>
  <path
     d="m 2901.46,1450.74 c 0,801.15 -649.47,1450.75 -1450.7,1450.75 C 649.53,2901.49 0,2251.87 0,1450.74 0,649.61 649.49,0 1450.73,0 2251.97,0 2901.46,649.54 2901.46,1450.74"
     id="path926"
     inkscape:connector-curvature="0" />
  <path
     class="cls-1"
     d="M 1450.73,120.1 C 715.82,120.1 120.1,715.87 120.1,1450.73 c 0,662.79 484.64,1212.39 1118.93,1313.79 q 3.85,-27.18 7.73,-54.31 C 639.15,2612.62 175.01,2085.82 175.01,1450.74 c 0,-704.55 571.15,-1275.75 1275.75,-1275.75 704.6,0 1275.71,571.19 1275.71,1275.75 0,635.09 -464.18,1161.88 -1071.79,1259.49 q 3.85,27.18 7.73,54.31 C 2296.73,2663.17 2781.3,2113.57 2781.3,1450.74 2781.3,715.88 2185.67,120.11 1450.76,120.11"
     id="path928"
     inkscape:connector-curvature="0"
     style="fill:#ffffff" />
  <path
     class="cls-1"
     d="m 911.85,910.55 v 247.88 h 77.51 v 554.4 c 0,105.53 -11.12,105.53 -38,105.53 -9.29,0 -18.85,-1.39 -31,-4.38 l -27.37,-6.93 v 256.25 l 18.93,2.69 c 52.9,7.48 76.25,10.17 130.66,10.17 100,0 171,-13.17 238.16,-80.19 68.88,-68.92 81.49,-151.54 81.49,-289.49 v -548 h 72.5 V 910.6 Z"
     id="path930"
     inkscape:connector-curvature="0"
     style="fill:#ffffff" />
  <path
     class="cls-2"
     d="m 1318.23,1114.34 h 72.5 V 954.59 H 955.9 v 159.75 h 77.5 v 598.48 c 0,93.09 -5.52,149.58 -82,149.58 -4.65,0 -9.47,-0.57 -14.29,-1 v 163.56 c 38.11,5.16 61,7.18 105.53,7.18 104.44,0 156.66,-17 207,-67.32 52.56,-52.56 68.59,-112.92 68.59,-258.31 z"
     id="path932"
     inkscape:connector-curvature="0"
     style="fill:#e31837" />
  <path
     class="cls-1"
     d="m 1503.26,910.55 v 247.88 h 77.58 v 554.4 c 0,105.53 -11.15,105.53 -38.08,105.53 -9.19,0 -19,-1.44 -30.83,-4.38 l -27.44,-6.93 v 256.25 l 18.92,2.69 c 52.87,7.48 76.23,10.17 130.6,10.17 100.06,0 171.12,-13.17 238.19,-80.19 68.88,-68.92 81.51,-151.54 81.51,-289.49 v -548 h 72.5 V 910.6 Z"
     id="path934"
     inkscape:connector-curvature="0"
     style="fill:#ffffff" />
  <path
     class="cls-2"
     d="m 1909.65,1114.34 h 72.53 V 954.59 H 1547.3 v 159.75 h 77.61 v 598.48 c 0,93.09 -5.53,149.58 -82.15,149.58 -4.59,0 -9.4,-0.57 -14.2,-1 v 163.56 c 38.09,5.16 60.92,7.18 105.45,7.18 104.48,0 156.73,-17 207,-67.32 52.56,-52.56 68.59,-112.92 68.59,-258.31 z"
     id="path936"
     inkscape:connector-curvature="0"
     style="fill:#e31837" />
  <path
     class="cls-1"
     d="m 558.44,1439.74 a 41.39,41.39 0 0 0 2.31,-10 c 1.37,-14.45 -6.19,-17.63 -34.32,-20.23 l -162,-14.95 -2,21.81 -57.27,-5.29 12.43,-134.57 57.23,5.26 -1.82,20.4 160.21,14.77 c 40.43,3.72 59.74,9.76 75,28.13 15,18.1 17.6,35.66 15,64.49 -1.39,14.81 -2.63,21 -6.09,35.6 z"
     id="path938"
     inkscape:connector-curvature="0"
     style="fill:#ffffff" />
  <polygon
     class="cls-1"
     points="543.46,1122.3 598.75,1137.93 561.42,1270.02 506.05,1254.4 512.04,1232.97 392.23,1199.18 386.2,1220.56 330.85,1204.89 368.17,1072.79 423.53,1088.4 417.47,1109.85 537.37,1143.74 "
     id="polygon940"
     style="fill:#ffffff" />
  <polygon
     class="cls-1"
     points="639.81,705.27 629.54,720.87 733.74,789.2 743.93,773.56 792.09,805.11 723.97,909.04 675.85,877.44 686.07,861.8 574.82,788.81 574.49,789.39 694.74,953.52 675.06,983.66 476.9,938.21 476.57,938.78 587.87,1011.71 598.09,996.08 646.22,1027.6 595.14,1105.54 546.98,1073.98 557.27,1058.38 453.05,990.06 442.85,1005.68 394.67,974.2 473.87,853.49 570.48,874.65 513.09,793.56 591.66,673.67 "
     id="polygon942"
     style="fill:#ffffff" />
  <polygon
     class="cls-1"
     points="1009.84,440.96 994.16,451.21 1062.06,555.64 1077.71,545.48 1109.02,593.7 1004.9,661.37 973.51,613.16 989.2,602.99 916.69,491.37 916.09,491.76 960.14,690.4 930.02,709.98 767.01,588.73 766.37,589.1 838.84,700.66 854.56,690.43 885.88,738.67 807.82,789.47 776.42,741.2 792.12,731.05 724.24,626.58 708.58,636.81 677.15,588.52 798.25,509.86 878.25,568.18 858.31,470.85 978.51,392.8 "
     id="polygon944"
     style="fill:#ffffff" />
  <polygon
     class="cls-1"
     points="1230.15,436.01 1249.12,381.71 1235.01,384.95 1222.1,328.88 1311.88,308.19 1324.81,364.26 1310.02,367.64 1271.01,465.39 1279.56,502.52 1298.17,498.26 1311.05,554.3 1183.47,583.69 1170.54,527.66 1189.1,523.38 1180.53,486.25 1102.31,415.55 1086.51,419.18 1073.57,363.16 1195.66,334.93 1208.57,391.04 1194.81,394.18 "
     id="polygon946"
     style="fill:#ffffff" />
  <path
     class="cls-1"
     d="m 1506.2,560.02 a 42.66,42.66 0 0 0 9.92,2.81 c 14.3,2.07 17.87,-5.33 21.86,-33.21 l 22.93,-161.1 -21.66,-3.12 8.15,-56.9 133.83,19.09 -8.09,56.95 -20.3,-2.9 -22.75,159.31 c -5.71,40.2 -12.72,59.17 -31.88,73.52 -18.79,14.14 -36.46,15.84 -65.18,11.76 -14.57,-2.06 -20.78,-3.72 -35.19,-7.89 z"
     id="path948"
     inkscape:connector-curvature="0"
     style="fill:#ffffff" />
  <path
     class="cls-1"
     d="m 1821.61,494.36 c 17.55,-41.3 31.81,-60.53 55.19,-50.62 23.38,9.91 19.45,33.58 2,74.81 -17.45,41.23 -31.81,60.56 -55.19,50.58 -23.38,-9.98 -19.46,-33.49 -2,-74.77 m -95.79,-40.6 c -22.13,51.94 -10.23,130.55 75.95,167.08 86.18,36.53 150.88,-9.6 172.87,-61.67 21.99,-52.07 10.19,-130.6 -75.94,-167.09 -86.13,-36.49 -150.91,9.64 -172.88,61.69"
     id="path950"
     inkscape:connector-curvature="0"
     style="fill:#ffffff" />
  <polygon
     class="cls-1"
     points="2173.45,688.32 2197.96,661.06 2186.68,650.89 2225.16,608.15 2319.05,692.6 2280.62,735.41 2266.91,723.13 2183.65,815.75 2197.27,828.03 2158.87,870.8 2064.93,786.29 2103.33,743.47 2114.61,753.63 2140.84,724.54 2099.59,687.47 2073.42,716.59 2084.73,726.78 2046.26,769.53 1952.32,685.03 1990.76,642.27 2004.48,654.57 2087.74,561.93 2074.09,549.69 2112.55,506.86 2206.52,591.33 2168.09,634.17 2156.77,624 2132.22,651.3 "
     id="polygon952"
     style="fill:#ffffff" />
  <polygon
     class="cls-1"
     points="2420.56,957.91 2470.82,929.92 2517.99,1014.29 2467.8,1042.34 2457.57,1024.19 2295.27,1114.93 2256.65,1045.93 2334.83,887.04 2334.52,886.42 2260.82,927.55 2271.34,946.35 2221.13,974.42 2173.16,888.51 2223.34,860.46 2233.57,878.91 2342.41,818.1 2332.04,799.61 2382.3,771.55 2437.68,870.73 2370.96,1007.99 2371.27,1008.57 2430.35,975.5 "
     id="polygon954"
     style="fill:#ffffff" />
  <path
     class="cls-1"
     d="m 2437.08,1099.34 c 7.51,24.3 17.77,28.85 43.66,20.44 l -9.6,-31 59.94,-18.59 25.45,81.94 -73.16,22.65 c -34.75,10.74 -61.69,-8.27 -74.49,-49.72 a 146.12,146.12 0 0 1 -4.18,-15.7 z"
     id="path956"
     inkscape:connector-curvature="0"
     style="fill:#ffffff" />
  <path
     class="cls-1"
     d="m 2411.35,1226.74 7.14,53.51 c -20.75,10.27 -28.75,22.69 -26.3,40.56 1.49,11.49 8.46,18.09 17.86,16.86 4.54,-0.62 7.9,-2.48 11.85,-7.64 13.34,-17.4 14.42,-60.36 36.56,-89.22 13,-17 27.88,-25.8 46.74,-28.29 42,-5.61 74.29,20.75 80.27,65.15 2.76,20.31 -1.22,39.7 -10.8,55.19 l 14.64,-1.93 7.2,53.56 -67.61,8.9 -7,-53.46 2.92,-1.49 c 16,-9.24 22.56,-20.81 20.47,-36.56 -1.42,-10.81 -7.92,-16.78 -17,-15.56 a 16,16 0 0 0 -9.92,5.58 c -9.36,12.39 -16.57,65.6 -40.55,96.94 -7.84,10.25 -25.58,24.42 -48.68,27.47 -40.92,5.42 -76.52,-24 -82.4,-68.44 a 99.73,99.73 0 0 1 11.34,-59.61 l -15.73,2.19 -7.17,-53.56 z"
     id="path958"
     inkscape:connector-curvature="0"
     style="fill:#ffffff" />
  <path
     class="cls-1"
     d="m 2575.64,1479.15 a 31,31 0 0 1 -33.3,-28.47 30.84,30.84 0 0 1 28.49,-33.33 30.88,30.88 0 0 1 33.26,28.44 31,31 0 0 1 -28.45,33.36 m -4.28,-55.76 a 25,25 0 0 0 -23,26.79 24.93,24.93 0 0 0 26.83,22.81 24.58,24.58 0 0 0 22.73,-26.7 24.67,24.67 0 0 0 -26.6,-22.9 m -14.14,32.46 c 5.36,-3.19 8.79,-5.24 11.15,-8 1.55,-1.78 1.55,-2.67 1.29,-5.41 v -1.24 l -13.5,1 -0.61,-6.63 32.9,-2.54 1.22,16.07 c 0.58,7.59 -3.71,10.83 -8.35,11.17 -5.09,0.41 -8.82,-2.69 -10,-8.17 h -0.13 c -0.91,3.81 -3.06,4.91 -13.4,12 z m 18.07,-9.18 c 0.31,3.76 1.62,6.93 5,6.68 2.83,-0.21 4.32,-2.56 4,-7.28 l -0.51,-6 -9,0.75 z"
     id="path960"
     inkscape:connector-curvature="0"
     style="fill:#ffffff" />
  <polygon
     class="cls-1"
     points="472.01,1714 494.2,1793.33 429.53,1742.16 360.62,1788.09 389.44,1710.62 324.56,1659.2 407.3,1662.69 436.07,1585.52 458.21,1664.74 540.56,1668.32 "
     id="polygon962"
     style="fill:#ffffff" />
  <path
     class="cls-1"
     d="m 503.49,1969.21 17.68,27.84 c -18,10.76 -22.85,29.84 -13.77,44.11 6.31,9.94 19.29,13.25 29.23,6.95 30,-19.09 -20.42,-89.36 31.18,-122.15 31.95,-20.31 60,-4.49 73,15.86 8.15,12.82 9.69,26.48 3.81,39.71 l 0.32,0.5 13.57,-8.62 17.54,27.62 -49.9,31.7 -17.54,-27.62 c 13.64,-11.73 17.13,-26.53 9.15,-39.12 -6,-9.44 -15.88,-12.69 -23.64,-7.76 -26.62,16.93 27.59,88.88 -30.52,125.8 -39.24,24.94 -68.17,0.82 -79.24,-16.61 -9.24,-14.54 -11,-29.07 -4.95,-43.09 l -0.3,-0.5 -13.82,8.78 -17.76,-27.87 z"
     id="path964"
     inkscape:connector-curvature="0"
     style="fill:#ffffff" />
  <path
     class="cls-1"
     d="m 684.05,2303.65 -64.95,-69 24.05,-22.65 16.73,17.74 18,-29.52 -34.63,-36.8 -31.52,15.08 17.9,19 -24.05,22.65 -59.43,-63.18 24.05,-22.65 16.72,17.79 120.09,-60.54 -17.9,-19 24.08,-22.62 87.16,92.67 -24.05,22.62 -17.9,-19 -66,118.07 15.75,16.75 z m 41.28,-180.79 -0.39,-0.41 -54.89,27.57 23.21,24.72 z"
     id="path966"
     inkscape:connector-curvature="0"
     style="fill:#ffffff" />
  <polygon
     class="cls-1"
     points="915.91,2272.41 934.43,2245.09 1006.89,2294.17 988.37,2321.49 965.56,2306.04 874.77,2440.01 838.67,2415.55 850.11,2250.33 849.63,2250.01 787.82,2341.23 808.01,2354.92 789.5,2382.24 718.95,2334.43 737.46,2307.1 759.07,2321.76 831.34,2215.09 809.74,2200.45 828.23,2173.13 895.72,2218.83 886.62,2359.64 887.1,2359.98 936.84,2286.57 "
     id="polygon968"
     style="fill:#ffffff" />
  <path
     class="cls-1"
     d="m 978.32,2459.41 27.87,9.89 43.16,-121.47 -27.87,-9.9 11.05,-31.11 96,34.11 c 33.27,11.82 54.05,26.21 66.1,51.51 11.85,24.92 11.23,51.51 2.32,76.68 -16.93,47.61 -62,81 -120.41,60.2 l -109.31,-38.8 z m 93.88,33.33 c 36.54,13 61.93,-4.52 74.91,-41 14,-39.51 2.34,-68.33 -33.38,-81 l -16.5,-5.88 -43.16,121.47 z"
     id="path970"
     inkscape:connector-curvature="0"
     style="fill:#ffffff" />
  <polygon
     class="cls-1"
     points="1346.27,2424.85 1348.68,2391.95 1418.48,2397.05 1416.07,2429.96 1398.06,2428.64 1422.72,2524.22 1423.29,2524.27 1460.73,2433.23 1440.69,2431.75 1443.1,2398.85 1521.5,2404.59 1519.09,2437.49 1497.92,2435.95 1431.64,2594.77 1396.44,2592.21 1372.03,2501.23 1371.46,2501.21 1335.79,2587.76 1300.02,2585.15 1255.84,2418.25 1235.24,2416.73 1237.64,2383.82 1324.92,2390.2 1322.51,2423.13 1302.77,2421.68 1327.14,2517.23 1327.71,2517.28 1364.02,2426.15 "
     id="polygon972"
     style="fill:#ffffff" />
  <polygon
     class="cls-1"
     points="1687.9,2534.82 1693.28,2567.41 1584.79,2585.33 1579.39,2552.75 1608.57,2547.91 1587.56,2420.72 1558.37,2425.53 1553,2392.97 1661.51,2375.05 1666.89,2407.61 1637.71,2412.44 1658.72,2539.63 "
     id="polygon974"
     style="fill:#ffffff" />
  <path
     class="cls-1"
     d="m 1866.88,2306.74 23.65,64.4 -31,11.37 c -6.31,-7.17 -15.73,-15.31 -22.33,-17.49 -16.59,-5.22 -24.12,-4.9 -36,-0.54 -32.88,12.07 -45.34,44.77 -31.59,82.24 13.07,35.56 43.09,52.37 73.52,41.19 25.35,-9.3 37.78,-33.74 33.43,-66.4 l 42.43,4 c 4.63,54.26 -31,83.85 -67.08,97.1 -78.15,28.71 -119.07,-17.75 -133.7,-57.64 -20.48,-55.85 4.52,-108.72 61.62,-129.69 22.35,-8.21 41.84,-9.26 61.29,-2.95 l -5.24,-14.27 z"
     id="path976"
     inkscape:connector-curvature="0"
     style="fill:#ffffff" />
  <polygon
     class="cls-1"
     points="2047.19,2282.55 2023.24,2247.11 2006.84,2258.18 1988.37,2230.83 2065.93,2178.46 2084.4,2205.83 2065.36,2218.67 2137.48,2325.51 2156.52,2312.64 2174.99,2340.01 2097.43,2392.36 2078.95,2365.01 2095.36,2353.92 2065.66,2309.92 2021.63,2339.62 2051.36,2383.64 2067.77,2372.55 2086.24,2399.91 2008.68,2452.29 1990.2,2424.92 2009.24,2412.08 1937.13,2305.24 1918.09,2318.09 1899.62,2290.74 1977.18,2238.37 1995.65,2265.74 1979.22,2276.81 2003.16,2312.25 "
     id="polygon978"
     style="fill:#ffffff" />
  <polygon
     class="cls-1"
     points="2164.14,2124.77 2196.89,2155.25 2230.11,2119.55 2254.25,2142.02 2221.03,2177.71 2258.4,2212.48 2299.61,2168.18 2278.42,2148.46 2303.63,2121.39 2348.97,2163.58 2232.33,2288.88 2208.19,2266.42 2223.82,2249.62 2129.56,2161.92 2113.95,2178.71 2089.8,2156.25 2206.44,2030.92 2251.57,2072.94 2226.36,2100.02 2205.37,2080.48 "
     id="polygon980"
     style="fill:#ffffff" />
  <path
     class="cls-1"
     d="m 2338.28,2065.27 17.34,-28.09 c 17.54,11.5 36.83,7.55 45.72,-6.88 6.17,-10 3.47,-23.12 -6.54,-29.32 -30.29,-18.67 -71.5,57.41 -123.54,25.32 -32.25,-19.9 -30.27,-52.08 -17.61,-72.59 8,-12.93 19.58,-20.29 34.06,-20.79 l 0.32,-0.5 -13.68,-8.44 17.18,-27.84 50.33,31 -17.13,27.89 c -16.52,-7.15 -31.38,-3.83 -39.21,8.87 -5.88,9.53 -4.47,19.83 3.34,24.67 26.89,16.56 67.94,-63.67 126.58,-27.5 39.58,24.42 30.5,61 19.65,78.56 -9,14.66 -21.35,22.58 -36.6,23.28 l -0.32,0.5 13.93,8.58 -17.37,28.09 z"
     id="path982"
     inkscape:connector-curvature="0"
     style="fill:#ffffff" />
  <polygon
     class="cls-1"
     points="2447.61,1648.65 2468.51,1568.95 2498.49,1645.76 2581.18,1640.95 2517.18,1693.26 2547.23,1770.39 2477.56,1725.6 2413.78,1777.7 2434.65,1698.14 2365.37,1653.46 "
     id="polygon984"
     style="fill:#ffffff" />
  <polygon
     class="cls-1"
     points="1293.6,2764.74 1298.03,2725.29 1289.06,2724.29 1287.51,2738.17 1277.14,2737.01 1279.83,2713.02 1334.04,2719.1 1331.35,2743.08 1320.98,2741.92 1322.54,2728.04 1313.57,2727.03 1309.15,2766.48 1318.12,2767.48 1316.98,2777.59 1283.51,2773.84 1284.64,2763.73 "
     id="polygon986"
     style="fill:#ffffff" />
  <path
     class="cls-1"
     d="m 1397.95,2783.44 -29.1,-1.8 0.63,-10.14 7.5,0.46 -2.19,-10.4 -15.52,-1 -3.9,10 8,0.49 -0.63,10.15 -26.64,-1.65 0.63,-10.14 7.49,0.47 14.19,-38.87 -8,-0.5 0.62,-10.14 39.07,2.42 -0.62,10.14 -8,-0.5 10.07,40.37 7.06,0.44 z m -28.82,-49.23 h -0.18 l -6.5,17.74 10.41,0.65 z"
     id="path988"
     inkscape:connector-curvature="0"
     style="fill:#ffffff" />
  <path
     class="cls-1"
     d="m 1412.37,2763.24 10.17,0.16 c -0.28,6.45 3.8,10.94 9,11 a 6.53,6.53 0 0 0 6.73,-6.35 c 0.18,-11 -26.46,-9.88 -26.15,-28.71 0.19,-11.66 9,-16.21 16.43,-16.09 a 12.5,12.5 0 0 1 10.88,5.74 h 0.18 l 0.08,-4.95 10.08,0.16 -0.29,18.21 -10.07,-0.17 c -0.71,-5.49 -3.93,-8.9 -8.52,-9 -3.45,-0.06 -6,1.94 -6,4.76 -0.16,9.73 27.55,8 27.21,29.17 -0.23,14.32 -11.33,17.67 -17.7,17.58 -5.3,-0.09 -9.34,-2.1 -11.93,-6 h -0.18 l -0.08,5 -10.17,-0.16 z"
     id="path990"
     inkscape:connector-curvature="0"
     style="fill:#ffffff" />
  <polygon
     class="cls-1"
     points="1487.44,2773.48 1486.14,2733.83 1477.13,2734.12 1477.59,2748.08 1467.16,2748.42 1466.38,2724.31 1520.87,2722.52 1521.66,2746.63 1511.24,2746.97 1510.78,2733.02 1501.77,2733.31 1503.08,2772.97 1512.09,2772.68 1512.42,2782.84 1478.76,2783.94 1478.43,2773.78 "
     id="polygon992"
     style="fill:#ffffff" />
  <polygon
     class="cls-1"
     points="1567.76,2743.73 1575.19,2728.34 1570,2728.8 1569.1,2718.67 1594.73,2716.42 1595.62,2726.54 1588.13,2727.2 1574.61,2752 1576.03,2768.11 1584.48,2767.37 1585.38,2777.49 1553.32,2780.31 1552.43,2770.19 1560.88,2769.45 1559.46,2753.33 1540.94,2731.36 1533.45,2732.02 1532.56,2721.89 1561.97,2719.3 1562.87,2729.43 1557.4,2729.91 "
     id="polygon994"
     style="fill:#ffffff" />
  <path
     class="cls-1"
     d="m 1622.66,2712.63 2.11,16.3 -0.61,22.89 -6.31,0.81 -6.41,-22 -2.11,-16.3 z m -8,46.93 14.37,-1.86 1.86,14.38 -14.37,1.86 z"
     id="path996"
     inkscape:connector-curvature="0"
     style="fill:#ffffff" />
  <g
     id="g4762"
     transform="translate(-139.83172,-444)">
    <path
       transform="translate(5483.73,2249.74)"
       id="path998"
       d="m -4597.61,1332.71 v -29.57 a 21.14,21.14 0 0 0 5.11,0.7 q 5.56,0 7.13,-3.94 1.57,-3.94 1.47,-18.63 v -76 h -11.1 v -29 h 68.2 v 29 h -10.34 V 1276 q 0,19.7 -1,27.78 a 35.82,35.82 0 0 1 -6,15.52 32.33,32.33 0 0 1 -13.21,11.19 q -8.09,3.73 -22.41,3.73 a 117.93,117.93 0 0 1 -17.85,-1.51 z"
       class="cls-1"
       inkscape:connector-curvature="0"
       style="fill:#ffffff" />
    <path
       transform="translate(5483.73,2249.74)"
       id="path1000"
       d="m -4446.23,1296.94 h -68.86 v -28.89 h 11.09 v -63 h -11.11 v -28.9 h 68.86 v 28.9 h -11 v 63 h 11 z"
       class="cls-1"
       inkscape:connector-curvature="0"
       style="fill:#ffffff" />
    <path
       transform="translate(5483.73,2249.74)"
       id="path1002"
       d="m -4385.45,1296.94 h -46.84 v -28.84 h 9.31 v -62.86 h -9.56 v -29 h 72.91 l 17.81,46.63 18.25,-46.63 h 72.49 v 29 h -9.48 v 62.86 h 9.74 v 28.84 h -63.1 v -28.86 h 9.65 v -63.15 l -36.5,92 h -18.08 L -4395,1205.8 v 62.28 h 9.55 z"
       class="cls-1"
       inkscape:connector-curvature="0"
       style="fill:#ffffff" />
    <path
       transform="translate(5483.73,2249.74)"
       id="path1004"
       d="m -4189.1,1296.94 h -46.9 v -28.84 h 9.3 v -62.86 h -9.56 v -29 h 72.92 l 17.81,46.63 18.24,-46.63 h 72.49 v 29 h -9.48 v 62.86 h 9.74 v 28.84 h -63.09 v -28.86 h 9.65 v -63.15 l -36.5,92 h -18.08 l -36.16,-91.14 v 62.28 h 9.58 z"
       class="cls-1"
       inkscape:connector-curvature="0"
       style="fill:#ffffff" />
    <path
       transform="translate(5483.73,2249.74)"
       id="path1006"
       d="m -3949,1296.94 h -66 v -28.89 h 9.74 v -19.18 l -30.49,-43.77 h -8.25 v -28.9 h 63.18 v 28.92 h -7.21 l 12.86,24.66 15.57,-24.66 h -7.4 v -28.92 h 46.47 v 28.9 h -7.54 l -30.42,43.77 v 19.18 h 9.56 z"
       class="cls-1"
       inkscape:connector-curvature="0"
       style="fill:#ffffff" />
    <path
       transform="translate(5483.73,2249.74)"
       id="path1008"
       d="m -3868.85,1332.71 v -29.57 a 21.43,21.43 0 0 0 5.15,0.7 q 5.53,0 7.12,-3.94 c 1,-2.59 1.5,-8.81 1.5,-18.63 v -76 h -11.14 v -29 h 68.22 v 29 h -10.34 V 1276 q 0,19.7 -1.06,27.78 a 35.44,35.44 0 0 1 -6,15.52 32.15,32.15 0 0 1 -13.2,11.19 q -8.06,3.73 -22.43,3.73 a 118.17,118.17 0 0 1 -17.82,-1.51 z"
       class="cls-1"
       inkscape:connector-curvature="0"
       style="fill:#ffffff" />
    <path
       transform="translate(5483.73,2249.74)"
       id="path1010"
       d="m -3791,1236.24 a 62.46,62.46 0 0 1 7.37,-29.27 q 7.28,-14.05 22.68,-23.71 a 56.06,56.06 0 0 1 11.25,-5.37 73.74,73.74 0 0 1 12.57,-3.07 89.21,89.21 0 0 1 14.25,-1.09 q 32.5,0 50.32,19 a 67.58,67.58 0 0 1 13.39,20.32 60.39,60.39 0 0 1 4.49,23.19 q 0,25.26 -18.41,43.93 -18.41,18.67 -49.79,18.67 -30.35,0 -49.2,-17.52 -18.85,-17.52 -18.92,-45.08 z m 52.46,0 q 0,20.15 3.91,27.18 a 12.43,12.43 0 0 0 11.75,7.14 12.74,12.74 0 0 0 11.81,-6.86 q 3.9,-7 3.92,-27.46 0,-19.92 -3.83,-27.12 a 12.54,12.54 0 0 0 -11.9,-7.14 12.72,12.72 0 0 0 -11.75,6.87 q -3.83,6.87 -3.86,27.39 z"
       class="cls-1"
       inkscape:connector-curvature="0"
       style="fill:#ffffff" />
    <path
       transform="translate(5483.73,2249.74)"
       id="path1012"
       d="M -3581.29,1296.94 H -3645 v -28.89 h 9.13 v -63 h -9.3 v -28.9 h 63.83 v 28.87 h -7.66 v 18.38 h 27.8 v -18.38 h -7.82 v -28.82 h 63.72 v 28.9 h -9.11 v 63 h 9.11 v 28.89 h -63.72 V 1268 h 7.82 v -19.82 H -3589 V 1268 h 7.74 z"
       class="cls-1"
       inkscape:connector-curvature="0"
       style="fill:#ffffff" />
    <path
       transform="translate(5483.73,2249.74)"
       id="path1014"
       d="m -3442,1296.94 h -49.63 v -28.84 h 10.63 v -62.86 h -10.61 v -29 h 57.29 l 44,63 v -34 h -9.82 v -29 h 48.77 v 29 h -10.54 v 93.27 h -39.81 l -50.93,-73 V 1268 h 10.65 z"
       class="cls-1"
       inkscape:connector-curvature="0"
       style="fill:#ffffff" />
    <path
       transform="translate(5483.73,2249.74)"
       id="path1016"
       d="m -3338.88,1242.91 v -17 c 4.63,0 8.14,-0.7 10.59,-2.08 2.45,-1.38 3.93,-3.1 4.52,-5 0.59,-1.9 1,-5.59 1,-11 h -16.15 v -31.63 h 43.37 v 27 q 0,14.49 -1,19.89 c -0.68,3.65 -2.71,7.19 -6.06,10.6 a 26.23,26.23 0 0 1 -12.28,7.22 q -7.32,1.99 -23.99,2 z"
       class="cls-1"
       inkscape:connector-curvature="0"
       style="fill:#ffffff" />
    <path
       transform="translate(5483.73,2249.74)"
       id="path1018"
       d="m -3257.47,1296.94 h -27.17 v -38.74 h 27.17 q 4.87,15.74 18.32,15.75 9.72,0 9.72,-7.8 a 8.3,8.3 0 0 0 -3.38,-6.78 q -3.66,-3 -15.37,-8.18 -14.78,-6.68 -21.73,-11.55 a 37.5,37.5 0 0 1 -11.09,-12.24 32.79,32.79 0 0 1 -4.6,-17.11 q 0,-16.86 11,-26.31 c 7.24,-6.32 16.13,-9.47 26.74,-9.47 10.61,0 19.55,3 26.91,9.11 v -7.42 h 27.36 v 34.29 h -27 c -3.31,-9.48 -9.14,-14.21 -17.55,-14.21 -5.91,0 -8.86,2.51 -8.86,7.55 a 6.27,6.27 0 0 0 2.53,5.48 c 1.62,1.27 6.84,4.08 15.72,8.41 q 17.8,8.87 23.78,13 a 32.26,32.26 0 0 1 6.22,5.6 41.57,41.57 0 0 1 5.25,7.43 37.18,37.18 0 0 1 4.77,18.41 33.82,33.82 0 0 1 -11.28,25.7 q -11.3,10.69 -28.48,10.69 a 48,48 0 0 1 -28.92,-9.42 z"
       class="cls-1"
       inkscape:connector-curvature="0"
       style="fill:#ffffff" />
  </g>
  <g
     inkscape:groupmode="layer"
     id="layer2"
     inkscape:label="Main">
    <g
       aria-label="WEXFORD "
       transform="scale(1.0080588,0.99200562)"
       style="font-style:normal;font-variant:normal;font-weight:normal;font-stretch:normal;font-size:40.32235336px;line-height:3.80998611px;font-family:Consolas;-inkscape-font-specification:Consolas;letter-spacing:0px;word-spacing:0px;fill:#000000;fill-opacity:1;stroke:none;stroke-width:1.00805879"
       id="text4817">
      <path
         d="m 985.37131,3332.4528 h -37.36905 l -33.44445,-91.2897 h -8.19048 v -28.4108 h 61.5139 v 28.4108 h -8.87302 l 13.99207,51.1051 17.74603,-51.1051 h -8.7877 v -28.4108 h 51.70239 v 28.4108 h -8.7877 l 18.002,51.1051 14.1627,-51.1051 h -8.5318 v -28.4108 h 47.8632 v 28.4108 h -8.1905 l -33.7857,91.2897 h -36.8572 l -16.0397,-45.7302 z"
         style="font-style:normal;font-variant:normal;font-weight:normal;font-stretch:normal;font-size:174.73019409px;font-family:'Rockwell Extra Bold';-inkscape-font-specification:'Rockwell Extra Bold, ';fill:#ffffff;fill-opacity:1;stroke-width:1.00805879"
         id="path962"
         inkscape:connector-curvature="0" />
      <path
         d="M 1218.8853,3331.429 H 1105.669 v -28.4108 h 9.2142 v -61.8551 h -9.3849 v -28.4108 h 113.387 v 37.9663 h -31.1409 v -9.5555 h -26.9603 v 18.2579 h 23.4623 v 24.1449 h -23.4623 v 19.4523 h 26.9603 v -9.5555 h 31.1409 z"
         style="font-style:normal;font-variant:normal;font-weight:normal;font-stretch:normal;font-size:174.73019409px;font-family:'Rockwell Extra Bold';-inkscape-font-specification:'Rockwell Extra Bold, ';fill:#ffffff;fill-opacity:1;stroke-width:1.00805879"
         id="path965"
         inkscape:connector-curvature="0" />
      <path
         d="m 1302.0698,3331.429 h -68.7659 v -28.4108 h 13.3095 l 38.9048,-30.373 -38.9048,-31.4821 h -12.627 v -28.4108 h 79.004 v 24.9981 h -11.8591 l 19.9643,17.4047 17.6607,-17.4047 h -10.2381 v -24.9981 h 65.8651 v 28.4108 h -17.746 l -31.9941,26.7897 42.4028,35.0654 h 11.8591 v 28.4108 h -79.8571 v -24.9981 h 12.4563 l -21.9266,-19.7936 -20.1349,19.7936 h 12.627 z"
         style="font-style:normal;font-variant:normal;font-weight:normal;font-stretch:normal;font-size:174.73019409px;font-family:'Rockwell Extra Bold';-inkscape-font-specification:'Rockwell Extra Bold, ';fill:#ffffff;fill-opacity:1;stroke-width:1.00805879"
         id="path967"
         inkscape:connector-curvature="0" />
      <path
         d="m 1480.2127,3331.429 h -72.0933 v -28.4108 h 12.4564 v -61.8551 h -12.883 v -28.4108 h 116.885 v 39.0754 h -31.5675 v -10.6646 h -26.5337 v 18.2579 h 20.4762 v 24.1449 h -20.4762 v 19.4523 h 13.7361 z"
         style="font-style:normal;font-variant:normal;font-weight:normal;font-stretch:normal;font-size:174.73019409px;font-family:'Rockwell Extra Bold';-inkscape-font-specification:'Rockwell Extra Bold, ';fill:#ffffff;fill-opacity:1;stroke-width:1.00805879"
         id="path969"
         inkscape:connector-curvature="0" />
      <path
         d="m 1587.6274,3271.792 q 0,19.7937 3.8393,26.7044 3.6686,6.996 11.5178,6.996 7.7639,0 11.6032,-6.74 3.8393,-6.8254 3.8393,-26.9604 0,-19.5377 -3.754,-26.619 -3.6686,-6.996 -11.6885,-6.996 -7.6785,0 -11.5178,6.74 -3.8393,6.7401 -3.8393,26.875 z m -51.5318,0 q 0,-14.8452 7.252,-28.752 7.1667,-13.8214 22.2679,-23.2916 5.375,-3.3274 11.0059,-5.2897 5.7163,-1.9623 12.3711,-2.9861 6.6547,-1.1091 13.992,-1.1091 31.9088,0 49.3989,18.6845 8.7023,9.2143 13.1388,19.9643 4.4366,10.75 4.4366,22.7797 0,24.8274 -18.0874,43.1707 -18.0873,18.3432 -48.8869,18.3432 -29.7758,0 -48.2897,-17.2341 -18.5992,-17.1488 -18.5992,-44.2798 z"
         style="font-style:normal;font-variant:normal;font-weight:normal;font-stretch:normal;font-size:174.73019409px;font-family:'Rockwell Extra Bold';-inkscape-font-specification:'Rockwell Extra Bold, ';fill:#ffffff;fill-opacity:1;stroke-width:1.00805879"
         id="path971"
         inkscape:connector-curvature="0" />
      <path
         d="m 1741.7961,3238.7742 v 22.6091 h 5.119 q 10.0675,0 13.6508,-0.5972 3.8393,-0.5972 6.4841,-3.4127 2.6449,-2.6449 2.6449,-7.252 0,-4.6071 -2.6449,-7.3373 -2.6448,-2.8155 -6.7401,-3.4127 -3.9246,-0.5972 -14.3333,-0.5972 z m 8.9583,92.6548 h -64.5 v -28.4108 h 9.6409 v -61.8551 h -9.6409 v -28.4108 h 64.5 q 8.7024,0 16.125,0.3413 7.4226,0.256 12.7123,0.8532 5.2897,0.5119 9.7262,1.4504 12.4563,2.6448 20.2202,11.5178 7.8492,9.0437 7.8492,21.3294 0,9.2143 -4.7777,16.7222 -4.7778,7.4227 -12.5417,10.9207 l 16.3809,27.1309 h 8.5318 v 28.4108 h -42.7441 l -25.8512,-48.4604 h -14.5892 v 20.0496 h 8.9583 z"
         style="font-style:normal;font-variant:normal;font-weight:normal;font-stretch:normal;font-size:174.73019409px;font-family:'Rockwell Extra Bold';-inkscape-font-specification:'Rockwell Extra Bold, ';fill:#ffffff;fill-opacity:1;stroke-width:1.00805879"
         id="path973"
         inkscape:connector-curvature="0" />
      <path
         d="m 1891.8695,3241.1631 v 61.8551 h 4.3512 q 16.2103,0 21.0734,-8.617 4.7778,-8.6171 4.7778,-21.6707 0,-7.8492 -2.0476,-15.5278 -2.133,-7.6785 -7.508,-11.8591 -5.2897,-4.1805 -18.9405,-4.1805 z m 0,90.2659 h -55.2004 v -28.4108 h 9.2996 v -61.8551 h -9.2996 v -28.4108 h 56.8214 q 19.4524,0 31.7381,2.3889 12.3711,2.3889 23.2917,9.8115 10.8353,7.508 17.0635,20.3056 3.0714,6.1429 4.6925,13.1389 1.621,6.996 1.621,14.6746 0,15.4425 -6.5695,28.1548 -6.4841,12.627 -16.4662,19.367 -9.7262,6.7401 -21.3294,8.7877 -11.5179,2.0477 -35.6627,2.0477 z"
         style="font-style:normal;font-variant:normal;font-weight:normal;font-stretch:normal;font-size:174.73019409px;font-family:'Rockwell Extra Bold';-inkscape-font-specification:'Rockwell Extra Bold, ';fill:#ffffff;fill-opacity:1;stroke-width:1.00805879"
         id="path975"
         inkscape:connector-curvature="0" />
    </g>
    <g
       aria-label="(724) 935-9100"
       style="font-style:normal;font-variant:normal;font-weight:normal;font-stretch:normal;font-size:40px;line-height:3.77952766px;font-family:Consolas;-inkscape-font-specification:Consolas;letter-spacing:0px;word-spacing:0px;fill:#000000;fill-opacity:1;stroke:none"
       id="text4829">
      <path
         d="m 940.57373,3474.3643 v 16.9922 q -9.76563,-2.1484 -18.29427,-6.8359 -8.52865,-4.6875 -16.08073,-12.1745 -14.90885,-14.7135 -14.90885,-41.1458 0,-15.7552 5.14323,-26.8229 5.20833,-11.2631 16.73177,-20.2474 11.52343,-8.9844 27.40885,-13.0209 v 17.0573 q -6.51042,1.6927 -11.26302,10.5469 -4.88281,8.8542 -4.88281,30.8594 0,21.2239 3.71093,30.9245 3.71094,9.6354 12.4349,13.8671 z"
         style="font-style:normal;font-variant:normal;font-weight:normal;font-stretch:normal;font-size:133.33332825px;font-family:'Rockwell Extra Bold';-inkscape-font-specification:'Rockwell Extra Bold, ';fill:#ffffff;fill-opacity:1"
         id="path935"
         inkscape:connector-curvature="0" />
      <path
         d="m 1015.4435,3463.4919 h -52.27863 v -20.7031 h 11.71875 q 9.375,-27.9297 29.49218,-51.5625 h -32.22655 v 12.5651 H 954.1805 v -30.8593 h 72.4609 v 17.3177 q -19.7916,32.6171 -22.9817,52.539 h 11.7838 z"
         style="font-style:normal;font-variant:normal;font-weight:normal;font-stretch:normal;font-size:133.33332825px;font-family:'Rockwell Extra Bold';-inkscape-font-specification:'Rockwell Extra Bold, ';fill:#ffffff;fill-opacity:1"
         id="path937"
         inkscape:connector-curvature="0" />
      <path
         d="m 1100.2091,3435.1716 h 18.75 l -0.7812,28.3203 h -72.0703 q -0.1302,-2.7343 -0.1302,-2.7994 0,-12.6302 5.4687,-22.6563 2.7995,-5.1432 7.7474,-10.2213 4.9479,-5.0782 12.0443,-10.2214 11.9792,-8.8542 15.4297,-12.7604 3.4505,-4.0365 3.4505,-8.138 0,-3.9714 -2.3438,-6.5104 -2.3437,-2.5391 -7.0312,-2.5391 -10.026,0 -10.026,12.6953 l -23.3073,-0.7161 q 0.7161,-15.5599 10.3515,-22.0704 9.7005,-6.4453 24.4792,-6.4453 16.1458,0 26.1719,7.4219 10.026,7.487 10.026,19.5313 0,7.7474 -5.0781,14.3229 -5.2084,6.5755 -19.8568,14.0625 -11.8489,5.9896 -15.8854,9.0495 -4.1016,3.1901 -6.25,7.2265 h 28.5156 z"
         style="font-style:normal;font-variant:normal;font-weight:normal;font-stretch:normal;font-size:133.33332825px;font-family:'Rockwell Extra Bold';-inkscape-font-specification:'Rockwell Extra Bold, ';fill:#ffffff;fill-opacity:1"
         id="path939"
         inkscape:connector-curvature="0" />
      <path
         d="m 1152.2274,3417.5935 h 24.4791 v -24.7396 z m 60.8724,45.8984 h -47.3308 v -18.3593 h 10.9375 v -11.4584 h -38.151 l -5.0781,-18.8802 42.3177,-43.6849 h 27.9948 v 46.4844 h 9.3099 v 16.0807 h -9.3099 v 11.4584 h 9.3099 z"
         style="font-style:normal;font-variant:normal;font-weight:normal;font-stretch:normal;font-size:133.33332825px;font-family:'Rockwell Extra Bold';-inkscape-font-specification:'Rockwell Extra Bold, ';fill:#ffffff;fill-opacity:1"
         id="path941"
         inkscape:connector-curvature="0" />
      <path
         d="m 1226.1857,3388.1664 v -17.0573 q 19.4661,4.1667 34.4401,18.9453 14.8438,14.7136 14.8438,41.2761 0,15.7552 -5.2735,27.0182 -5.2734,11.263 -16.9922,20.2474 -11.7838,9.0495 -27.0182,12.7604 v -16.9922 q 6.3802,-1.7578 11.263,-10.677 4.8828,-8.9193 4.8828,-30.7943 0,-21.2891 -3.7109,-30.9245 -3.6458,-9.5703 -12.4349,-13.8021 z"
         style="font-style:normal;font-variant:normal;font-weight:normal;font-stretch:normal;font-size:133.33332825px;font-family:'Rockwell Extra Bold';-inkscape-font-specification:'Rockwell Extra Bold, ';fill:#ffffff;fill-opacity:1"
         id="path943"
         inkscape:connector-curvature="0" />
      <path
         d="m 1371.1076,3409.781 q 0,-20.5078 -12.0443,-20.5078 -9.375,0 -9.375,11.849 0,6.0546 2.7995,9.2447 2.7344,3.3204 7.2265,3.3204 5.6641,0 11.3933,-3.9063 z m -47.6563,32.0964 22.6563,-2.0183 q 3.125,7.3568 10.9375,7.3568 12.9557,0 13.6067,-21.0937 -7.9427,5.5989 -18.75,5.5989 -12.1744,0 -20.638,-8.0729 -8.5937,-8.138 -8.5937,-20.7031 0,-14.8438 10.6771,-23.3724 10.6119,-8.4636 24.8697,-8.4636 17.7735,0 29.4922,12.1094 11.6537,12.2396 11.6537,35.4818 0,20.4427 -10.6771,33.0729 -10.612,12.5651 -31.5104,12.5651 -13.2813,0 -22.2005,-5.599 -8.9844,-5.5989 -11.5235,-16.8619 z"
         style="font-style:normal;font-variant:normal;font-weight:normal;font-stretch:normal;font-size:133.33332825px;font-family:'Rockwell Extra Bold';-inkscape-font-specification:'Rockwell Extra Bold, ';fill:#ffffff;fill-opacity:1"
         id="path945"
         inkscape:connector-curvature="0" />
      <path
         d="m 1413.0998,3432.7628 23.4375,-1.7578 q 0.5859,14.4531 13.4765,14.4531 5.599,0 8.3333,-3.0599 2.6693,-3.0599 2.6693,-7.4219 0,-11.0677 -14.7786,-11.5885 v -14.7136 q 4.5573,0 8.5937,-2.6692 3.9714,-2.6042 3.9714,-7.7474 0,-4.1667 -2.6042,-6.7058 -2.6693,-2.4739 -7.0312,-2.4739 -9.3099,0 -10.0261,10.2864 l -24.4791,-1.302 q 0.7812,-13.5417 10.5468,-20.2474 9.7005,-6.7058 26.4974,-6.7058 17.9037,0 26.8229,7.2917 8.9193,7.3568 8.9193,18.099 0,6.4453 -3.776,11.4583 -3.7761,5.0781 -10.2214,7.0312 8.138,1.7579 12.6953,7.487 4.5573,5.7292 4.5573,13.8672 0,13.0208 -10.8073,20.5078 -10.8073,7.487 -28.4505,7.487 -17.7734,0 -27.8646,-7.7474 -9.9609,-7.6823 -10.4817,-23.8281 z"
         style="font-style:normal;font-variant:normal;font-weight:normal;font-stretch:normal;font-size:133.33332825px;font-family:'Rockwell Extra Bold';-inkscape-font-specification:'Rockwell Extra Bold, ';fill:#ffffff;fill-opacity:1"
         id="path947"
         inkscape:connector-curvature="0" />
      <path
         d="m 1504.1154,3439.143 23.5677,-1.4974 q 3.125,7.4219 12.0443,7.4219 5.2734,0 8.9192,-2.8646 3.5157,-2.8646 3.5157,-8.9844 0,-5.9896 -3.5157,-8.7891 -3.5807,-2.7343 -8.3333,-2.7343 -7.2917,0 -12.2396,5.3385 l -19.7265,-6.9661 2.7343,-47.1354 h 66.7318 v 23.6979 h -15.2995 l -2.1484,-5.5339 h -32.3568 l -0.7812,17.9688 q 8.7239,-5.4688 20.7682,-5.4688 14.7135,0 24.349,7.8776 9.6354,7.8776 9.6354,21.6146 0,13.4115 -10.1563,22.3307 -10.2213,8.9193 -28.4505,8.9193 -16.0156,0 -26.4974,-6.7708 -10.4167,-6.7058 -12.7604,-18.4245 z"
         style="font-style:normal;font-variant:normal;font-weight:normal;font-stretch:normal;font-size:133.33332825px;font-family:'Rockwell Extra Bold';-inkscape-font-specification:'Rockwell Extra Bold, ';fill:#ffffff;fill-opacity:1"
         id="path949"
         inkscape:connector-curvature="0" />
      <path
         d="m 1643.5685,3445.9789 h -46.4844 v -28.0599 h 46.4844 z"
         style="font-style:normal;font-variant:normal;font-weight:normal;font-stretch:normal;font-size:133.33332825px;font-family:'Rockwell Extra Bold';-inkscape-font-specification:'Rockwell Extra Bold, ';fill:#ffffff;fill-opacity:1"
         id="path951"
         inkscape:connector-curvature="0" />
      <path
         d="m 1706.0034,3409.781 q 0,-20.5078 -12.0443,-20.5078 -9.375,0 -9.375,11.849 0,6.0546 2.7995,9.2447 2.7344,3.3204 7.2266,3.3204 5.664,0 11.3932,-3.9063 z m -47.6562,32.0964 22.6562,-2.0183 q 3.125,7.3568 10.9375,7.3568 12.9557,0 13.6068,-21.0937 -7.9427,5.5989 -18.75,5.5989 -12.1745,0 -20.638,-8.0729 -8.5938,-8.138 -8.5938,-20.7031 0,-14.8438 10.6771,-23.3724 10.612,-8.4636 24.8698,-8.4636 17.7734,0 29.4922,12.1094 11.6536,12.2396 11.6536,35.4818 0,20.4427 -10.6771,33.0729 -10.6119,12.5651 -31.5104,12.5651 -13.2812,0 -22.2005,-5.599 -8.9844,-5.5989 -11.5234,-16.8619 z"
         style="font-style:normal;font-variant:normal;font-weight:normal;font-stretch:normal;font-size:133.33332825px;font-family:'Rockwell Extra Bold';-inkscape-font-specification:'Rockwell Extra Bold, ';fill:#ffffff;fill-opacity:1"
         id="path953"
         inkscape:connector-curvature="0" />
      <path
         d="m 1816.42,3463.4919 h -54.1666 v -20.8333 h 12.8906 v -40.9505 q -3.5156,0.9114 -9.6354,0.9114 -1.9531,0 -3.2552,-0.1953 v -20.052 q 0.7812,0.065 1.6276,0.065 8.5286,0 15.8203,-3.3204 7.4219,-3.3854 10.612,-8.0078 h 13.6067 v 71.5495 h 12.5 z"
         style="font-style:normal;font-variant:normal;font-weight:normal;font-stretch:normal;font-size:133.33332825px;font-family:'Rockwell Extra Bold';-inkscape-font-specification:'Rockwell Extra Bold, ';fill:#ffffff;fill-opacity:1"
         id="path955"
         inkscape:connector-curvature="0" />
      <path
         d="m 1870.0659,3417.7237 q 0,16.9922 2.5391,22.2005 2.539,5.2735 7.0312,5.2735 4.5573,0 6.9662,-5.5339 2.4088,-5.4036 2.4088,-21.9401 0,-17.1875 -2.5391,-22.3307 -2.6041,-5.0781 -6.9661,-5.0781 -4.2969,0 -6.8359,5.0781 -2.6042,5.1432 -2.6042,22.3307 z m -29.4922,0 q 0,-22.2005 11.5234,-34.375 11.5235,-12.2396 27.4089,-12.2396 16.5365,0 27.7995,12.6302 11.1979,12.6303 11.1979,33.9844 0,22.461 -11.5885,34.5052 -11.5886,12.1094 -27.4089,12.1094 -16.4714,0 -27.7344,-12.6302 -11.1979,-12.5651 -11.1979,-33.9844 z"
         style="font-style:normal;font-variant:normal;font-weight:normal;font-stretch:normal;font-size:133.33332825px;font-family:'Rockwell Extra Bold';-inkscape-font-specification:'Rockwell Extra Bold, ';fill:#ffffff;fill-opacity:1"
         id="path957"
         inkscape:connector-curvature="0" />
      <path
         d="m 1961.7326,3417.7237 q 0,16.9922 2.539,22.2005 2.5391,5.2735 7.0313,5.2735 4.5573,0 6.9661,-5.5339 2.4089,-5.4036 2.4089,-21.9401 0,-17.1875 -2.5391,-22.3307 -2.6041,-5.0781 -6.9661,-5.0781 -4.2969,0 -6.836,5.0781 -2.6041,5.1432 -2.6041,22.3307 z m -29.4922,0 q 0,-22.2005 11.5234,-34.375 11.5235,-12.2396 27.4089,-12.2396 16.5364,0 27.7995,12.6302 11.1979,12.6303 11.1979,33.9844 0,22.461 -11.5886,34.5052 -11.5885,12.1094 -27.4088,12.1094 -16.4714,0 -27.7344,-12.6302 -11.1979,-12.5651 -11.1979,-33.9844 z"
         style="font-style:normal;font-variant:normal;font-weight:normal;font-stretch:normal;font-size:133.33332825px;font-family:'Rockwell Extra Bold';-inkscape-font-specification:'Rockwell Extra Bold, ';fill:#ffffff;fill-opacity:1"
         id="path959"
         inkscape:connector-curvature="0" />
    </g>
  </g>
</svg>
