<?xml version="1.0" encoding="UTF-8" standalone="no"?>
<svg
   xmlns:dc="http://purl.org/dc/elements/1.1/"
   xmlns:cc="http://creativecommons.org/ns#"
   xmlns:rdf="http://www.w3.org/1999/02/22-rdf-syntax-ns#"
   xmlns:svg="http://www.w3.org/2000/svg"
   xmlns="http://www.w3.org/2000/svg"
   xmlns:sodipodi="http://sodipodi.sourceforge.net/DTD/sodipodi-0.dtd"
   xmlns:inkscape="http://www.inkscape.org/namespaces/inkscape"
   viewBox="0 0 489.06576 210.26919"
   height="210.2692"
   width="489.06577"
   xml:space="preserve"
   id="svg2"
   version="1.1"
   sodipodi:docname="uber.svg"
   inkscape:version="0.92.2 (5c3e80d, 2017-08-06)"><sodipodi:namedview
     pagecolor="#ffffff"
     bordercolor="#666666"
     borderopacity="1"
     objecttolerance="10"
     gridtolerance="10"
     guidetolerance="10"
     inkscape:pageopacity="0"
     inkscape:pageshadow="2"
     inkscape:window-width="2560"
     inkscape:window-height="1361"
     id="namedview835"
     showgrid="false"
     inkscape:pagecheckerboard="true"
     inkscape:zoom="2.0273542"
     inkscape:cx="261.31094"
     inkscape:cy="176.33808"
     inkscape:window-x="-9"
     inkscape:window-y="-9"
     inkscape:window-maximized="1"
     inkscape:current-layer="layer2"
     fit-margin-top="10"
     fit-margin-left="50"
     fit-margin-right="50"
     fit-margin-bottom="10" /><metadata
     id="metadata8"><rdf:RDF><cc:Work
         rdf:about=""><dc:format>image/svg+xml</dc:format><dc:type
           rdf:resource="http://purl.org/dc/dcmitype/StillImage" /><dc:title /></cc:Work></rdf:RDF></metadata><defs
     id="defs6" /><g
     inkscape:groupmode="layer"
     id="layer2"
     inkscape:label="Vector"
     style="display:inline"
     transform="translate(0,-4e-6)"
     sodipodi:insensitive="true"><g
       transform="matrix(1.3333333,0,0,-1.3333333,-29.999998,170)"
       id="g10"><g
         transform="scale(0.1)"
         id="g12"><path
           id="path14"
           style="fill:#ffffff;fill-opacity:1;fill-rule:nonzero;stroke:none"
           d="M 1059,1185.29 V 849.469 c 0,-112.137 -49.64,-158.707 -166.07,-158.707 -116.442,0 -166.078,46.57 -166.078,158.707 V 1200 H 614.707 C 604.906,1200 600,1195.09 600,1185.29 V 843.957 c 0,-187.527 119.496,-253.098 292.93,-253.098 173.42,0 292.92,65.571 292.92,253.098 V 1200 H 1073.7 c -9.8,0 -14.7,-4.91 -14.7,-14.71"
           inkscape:connector-curvature="0" /><path
           id="path16"
           style="fill:#ffffff;fill-opacity:1;fill-rule:nonzero;stroke:none"
           d="m 2684.69,1102.56 c 9.19,0 13.48,3.06 16.54,9.8 l 32.49,80.29 c 1.84,4.89 0,7.35 -4.91,7.35 h -451.64 c -42.29,0 -58.21,-12.87 -58.21,-41.68 V 636.828 c 0,-24.519 12.24,-35.547 44.73,-35.547 h 421 c 9.19,0 13.48,3.071 16.54,9.801 l 32.49,80.289 c 1.84,4.899 0,7.348 -4.91,7.348 h -385.45 v 106.019 c 0,36.77 20.22,53.317 74.75,53.317 h 167.31 c 9.19,0 13.47,3.058 16.54,9.8 l 31.26,77.215 c 1.83,4.907 0,7.352 -4.91,7.352 h -284.95 v 150.138 h 341.33"
           inkscape:connector-curvature="0" /><path
           id="path18"
           style="fill:#ffffff;fill-opacity:1;fill-rule:nonzero;stroke:none"
           d="m 1771.96,697.488 h -221.29 v 109.703 c 0,36.766 20.22,53.309 74.77,53.309 h 146.52 c 70.47,0 90.08,-26.965 90.08,-82.121 0,-55.149 -19.61,-80.891 -90.08,-80.891 z m -221.29,406.302 h 198 c 66.18,0 84.57,-24.93 84.57,-76.6 0,-51.674 -18.39,-76.608 -84.57,-76.608 h -198 z m 338.95,-186.907 c 49.02,25.738 69.24,74.148 69.24,131.137 0,132.37 -107.85,151.98 -219.38,151.98 h -254.93 c -42.29,0 -58.21,-12.87 -58.21,-41.68 V 636.828 c 0,-24.519 12.25,-35.547 44.73,-35.547 h 313.76 c 118.27,0 202.83,45.957 202.83,165.457 0,71.703 -30.64,132.371 -98.04,150.145"
           inkscape:connector-curvature="0" /><path
           id="path20"
           style="fill:#ffffff;fill-opacity:1;fill-rule:nonzero;stroke:none"
           d="M 3282.46,922.402 H 3074.1 v 181.378 h 208.36 c 77.82,0 94.98,-30.02 94.98,-90.69 0,-61.277 -17.16,-90.688 -94.98,-90.688 z m 234.09,-310.703 -134.2,230.418 c 66.79,17.156 120.72,61.278 120.72,173.423 0,145.23 -90.09,184.46 -239,184.46 h -256.15 c -42.28,0 -58.22,-12.87 -58.22,-41.68 V 615.988 c 0,-9.797 4.91,-14.707 14.71,-14.707 H 3074.1 V 775.93 c 0,36.769 20.22,53.32 74.77,53.32 h 110.3 L 3380.5,611.082 c 3.68,-6.121 7.36,-9.801 16.55,-9.801 h 113.99 c 7.97,0 7.97,6.75 5.51,10.418"
           inkscape:connector-curvature="0" /></g></g><g
       aria-label="ATG"
       transform="scale(1.0024008,0.99760495)"
       style="font-style:normal;font-variant:normal;font-weight:normal;font-stretch:normal;font-size:27.72570419px;line-height:2.61975145px;font-family:Consolas;-inkscape-font-specification:Consolas;letter-spacing:0px;word-spacing:0px;fill:#000000;fill-opacity:1;stroke:none;stroke-width:0.69314259"
       id="text4539"><path
         d="M 112.3305,199.77528 H 101.82505 L 96.897233,184.34203 H 67.438672 L 62.45671,199.77528 H 52.438633 L 75.9405,128.99892 H 89.153531 Z M 94.135493,175.7319 82.167953,137.87981 70.200412,175.7319 Z"
         style="font-size:110.90281677px;fill:#898989;fill-opacity:1;stroke-width:0.69314259"
         id="path4541"
         inkscape:connector-curvature="0" /><path
         d="m 164.60085,137.22999 h -20.95673 v 62.54529 h -9.74732 v -62.54529 h -20.95673 v -8.23107 h 51.66078 z"
         style="font-size:110.90281677px;fill:#898989;fill-opacity:1;stroke-width:0.69314259"
         id="path4543"
         inkscape:connector-curvature="0" /><path
         d="m 222.97301,141.12892 q -3.95308,-2.11192 -8.12276,-3.24911 -4.16969,-1.19134 -9.0975,-1.19134 -5.63178,0 -10.01808,2.00362 -4.38629,2.00362 -7.41879,5.68594 -2.97834,3.62816 -4.6029,8.77258 -1.5704,5.14442 -1.5704,11.37187 0,6.49821 1.29964,11.64263 1.29965,5.14442 4.06139,8.71844 2.76174,3.57401 7.03973,5.46932 4.33214,1.89532 10.34298,1.89532 1.02889,0 2.22023,-0.10831 1.19133,-0.1083 2.38267,-0.27076 1.19134,-0.2166 2.27438,-0.48736 1.13718,-0.27076 2.00361,-0.59567 v -22.52714 h -14.45852 v -7.96031 h 23.98923 v 36.17338 q -2.22022,1.02889 -4.7112,1.84116 -2.43683,0.81228 -5.03611,1.3538 -2.54514,0.54152 -5.09027,0.81227 -2.54513,0.27076 -4.92781,0.27076 -7.25634,0 -13.10473,-2.27437 -5.79424,-2.27437 -9.90977,-6.71482 -4.06138,-4.4946 -6.28161,-11.15526 -2.16607,-6.66067 -2.16607,-15.43326 0,-8.71843 2.43683,-15.59571 2.43683,-6.93142 6.82312,-11.69678 4.44045,-4.8195 10.61375,-7.31049 6.22745,-2.54513 13.7004,-2.54513 4.76535,0 9.04334,0.86643 4.33214,0.81228 8.28522,2.65344 z"
         style="font-size:110.90281677px;fill:#898989;fill-opacity:1;stroke-width:0.69314259"
         id="path4545"
         inkscape:connector-curvature="0" /></g></g></svg>